<?xml version="1.0" standalone="no"?>
<!DOCTYPE svg PUBLIC "-//W3C//DTD SVG 20010904//EN"
 "http://www.w3.org/TR/2001/REC-SVG-20010904/DTD/svg10.dtd">
<svg version="1.0" xmlns="http://www.w3.org/2000/svg"
 width="900.000000pt" height="900.000000pt" viewBox="0 0 900.000000 900.000000"
 preserveAspectRatio="xMidYMid meet">
<metadata>
Created by potrace 1.10, written by Peter Selinger 2001-2011
</metadata>
<g transform="translate(0.000000,900.000000) scale(0.100000,-0.100000)"
fill="#000000" stroke="none">
<path d="M3725 5971 c-421 -95 -747 -410 -868 -841 -33 -117 -40 -149 -53
-260 -35 -292 4 -542 120 -770 l43 -85 93 -3 c51 -1 101 0 109 3 15 6 15 8 0
18 -23 18 -99 114 -139 177 -53 84 -83 153 -116 270 -28 98 -26 404 3 511 60
219 127 342 258 473 83 84 219 180 280 198 11 4 45 16 75 27 211 81 538 81
821 1 41 -12 89 -25 108 -30 18 -5 38 -13 44 -19 6 -6 17 -11 25 -11 7 0 46
-16 85 -36 139 -69 278 -178 263 -203 -4 -6 -35 -11 -69 -11 -121 -1 -291 -40
-349 -81 -16 -12 -44 -25 -60 -28 -39 -8 -41 -25 -3 -29 116 -11 248 -76 341
-167 68 -68 83 -89 119 -165 60 -127 78 -263 43 -325 -9 -16 -44 -97 -78 -180
-34 -82 -68 -165 -75 -183 -36 -83 -48 -109 -61 -135 -8 -16 -14 -40 -14 -53
0 -24 1 -24 103 -24 114 1 115 1 150 88 54 134 71 200 93 357 10 76 27 147 46
195 16 41 36 91 43 110 50 130 60 150 75 150 15 0 29 -28 75 -150 7 -19 20
-53 29 -75 18 -45 93 -264 106 -310 19 -65 110 -326 120 -345 10 -18 21 -20
111 -20 l101 0 -5 33 c-2 17 -14 57 -27 87 -12 30 -26 69 -30 85 -5 17 -25 75
-45 130 -20 55 -47 132 -60 170 -13 39 -33 95 -45 125 -12 30 -24 66 -27 80
-3 14 -12 34 -19 45 -8 11 -14 25 -14 32 0 7 -13 42 -30 76 -16 35 -30 67 -30
70 0 4 -23 46 -52 94 -73 121 -192 241 -281 282 -56 26 -73 40 -97 79 -129
211 -178 269 -311 368 -197 147 -402 212 -689 219 -124 3 -171 0 -235 -14z
m1130 -688 c73 -33 140 -81 188 -137 51 -60 57 -85 30 -138 -32 -64 -40 -83
-47 -108 -3 -14 -15 -36 -25 -50 -19 -24 -20 -24 -27 -5 -63 186 -234 352
-411 397 -43 10 -72 33 -59 45 27 28 288 25 351 -4z"/>
<path d="M2264 3912 c-6 -4 -19 -22 -28 -40 -14 -28 -15 -38 -5 -67 21 -58 79
-71 128 -29 59 50 28 144 -47 144 -20 0 -42 -4 -48 -8z m78 -39 c24 -22 23
-44 -5 -76 -28 -33 -40 -34 -61 -2 -19 28 -19 35 -6 69 11 30 44 35 72 9z"/>
<path d="M2996 3904 c-3 -9 -6 -35 -6 -58 0 -39 -21 -76 -43 -76 -12 0 -31 46
-37 89 -8 68 -30 65 -30 -4 0 -46 4 -60 25 -80 28 -29 56 -32 90 -9 22 14 25
23 25 80 0 61 -12 90 -24 58z"/>
<path d="M3299 3873 c-21 -49 -35 -49 -41 1 -2 16 -9 31 -15 34 -20 6 -16 -60
7 -114 20 -45 22 -47 38 -30 9 9 22 31 28 48 15 44 34 48 34 6 0 -42 12 -61
36 -56 13 2 20 13 22 38 2 19 10 43 19 52 16 18 15 64 -2 61 -5 -2 -11 -18
-13 -38 -2 -19 -7 -35 -11 -35 -12 0 -38 33 -45 58 -12 36 -35 26 -57 -25z"/>
<path d="M3687 3914 c-4 -4 -7 -14 -7 -22 0 -9 -6 -23 -13 -31 -16 -20 -41
-91 -33 -98 2 -3 18 4 34 16 37 26 44 26 67 1 41 -46 46 12 7 84 -27 49 -42
63 -55 50z m18 -72 c0 -18 -20 -15 -23 4 -3 10 1 15 10 12 7 -3 13 -10 13 -16z"/>
<path d="M3994 3913 c-31 -22 -20 -74 17 -83 17 -4 25 -14 27 -33 4 -31 -14
-36 -34 -9 -10 13 -15 15 -25 5 -10 -10 -9 -16 7 -28 28 -21 58 -18 84 10 l23
25 -23 25 c-13 13 -31 27 -42 31 -31 9 -22 34 13 34 20 0 29 4 27 13 -5 14
-58 21 -74 10z"/>
<path d="M4287 3913 c-12 -11 -8 -138 5 -151 14 -14 88 -16 88 -2 0 6 -13 10
-29 10 -21 0 -30 6 -34 22 -8 28 -1 38 28 38 13 0 26 4 29 9 7 10 -17 21 -45
21 -37 0 -20 27 21 34 23 4 38 11 35 16 -7 11 -88 14 -98 3z"/>
<path d="M4586 3912 c-4 -7 4 -31 18 -55 15 -24 26 -53 26 -65 0 -13 6 -22 15
-22 10 0 15 10 15 28 0 15 7 38 15 52 26 46 28 51 17 62 -8 8 -14 4 -21 -15
-12 -30 -35 -28 -62 6 -11 13 -18 16 -23 9z"/>
<path d="M5405 3883 c-10 -21 -24 -50 -32 -65 -13 -26 -18 -58 -8 -58 3 0 19
9 34 21 25 18 32 19 52 8 13 -7 29 -19 35 -27 20 -28 27 7 9 46 -37 78 -53
106 -62 109 -5 2 -18 -13 -28 -34z m43 -40 c-4 -22 -22 -20 -26 1 -2 10 3 16
13 16 10 0 15 -7 13 -17z"/>
<path d="M5702 3898 c-13 -37 -7 -129 9 -139 21 -13 52 -11 93 6 35 15 36 17
36 70 0 65 -21 85 -87 85 -36 0 -45 -4 -51 -22z m102 -24 c12 -32 5 -66 -16
-84 -21 -17 -25 -17 -40 -3 -18 16 -25 82 -11 96 13 13 61 7 67 -9z"/>
<path d="M6057 3913 c-9 -8 -9 -126 -1 -147 4 -11 19 -16 50 -16 48 0 61 17
17 22 -22 2 -29 9 -31 31 -3 23 0 27 22 27 14 0 27 4 30 9 7 10 -17 21 -46 21
-30 0 -16 23 20 32 18 5 32 13 32 18 0 11 -83 14 -93 3z"/>
<path d="M6372 3890 c-31 -41 -28 -83 5 -115 33 -30 69 -32 103 -5 21 16 25
27 25 70 0 61 -18 80 -75 80 -29 0 -41 -6 -58 -30z m102 -27 c8 -31 -9 -79
-31 -88 -21 -7 -63 32 -63 58 0 30 29 57 60 57 22 0 29 -6 34 -27z"/>
<path d="M6726 3904 c-9 -8 -16 -20 -16 -25 0 -22 22 -49 40 -49 18 0 40 -27
40 -49 0 -17 -40 -13 -46 4 -8 21 -36 19 -32 -2 5 -29 54 -40 86 -21 44 27 40
52 -12 83 -25 15 -46 31 -46 36 0 5 19 9 41 9 36 0 40 2 29 15 -16 20 -64 19
-84 -1z"/>
<path d="M7135 3898 c-2 -13 -6 -40 -7 -62 -2 -27 -10 -43 -25 -53 -20 -13
-23 -12 -34 9 -7 13 -16 43 -19 67 -8 68 -30 65 -30 -4 0 -46 4 -60 25 -80 28
-29 56 -32 90 -9 22 14 25 23 25 80 0 63 -15 95 -25 52z"/>
<path d="M7374 3907 c-3 -8 -4 -45 -2 -83 3 -75 20 -89 29 -25 3 23 8 43 10
46 3 3 20 -16 38 -41 48 -67 66 -58 66 34 0 74 -17 105 -23 42 -2 -19 -7 -38
-11 -43 -4 -4 -24 13 -45 38 -41 47 -53 54 -62 32z"/>
<path d="M2596 3903 c-8 -8 -8 -116 0 -137 7 -18 84 -23 84 -6 0 6 -9 10 -20
10 -26 0 -40 29 -40 84 0 43 -10 63 -24 49z"/>
<path d="M4906 3894 c-11 -30 -6 -111 8 -123 11 -9 15 -8 20 5 8 20 8 63 0
103 -7 34 -18 40 -28 15z"/>
<path d="M3436 3611 c-11 -17 117 -66 254 -97 110 -24 408 -24 510 0 119 29
244 81 234 98 -7 11 -991 10 -998 -1z"/>
<path d="M4486 3598 c-7 -13 -31 -63 -51 -113 -20 -49 -51 -124 -68 -165 -17
-41 -36 -82 -44 -91 -7 -8 -13 -20 -13 -26 0 -14 -70 -82 -105 -101 -16 -9
-57 -23 -89 -32 -33 -8 -61 -21 -64 -28 -3 -9 64 -12 303 -12 321 0 354 5 252
39 -72 25 -92 50 -92 119 1 54 26 129 111 332 8 19 16 49 17 65 l2 30 -72 3
c-66 3 -73 1 -87 -20z"/>
<path d="M5664 3605 c-8 -19 -2 -45 26 -115 11 -30 33 -90 47 -133 14 -42 29
-80 34 -83 5 -3 9 -12 9 -20 0 -7 14 -44 31 -81 139 -303 289 -512 464 -644
74 -56 161 -109 178 -109 7 0 17 -4 23 -9 19 -19 167 -51 233 -51 63 0 236 30
260 45 6 3 11 12 11 20 0 11 -14 13 -69 8 -112 -9 -245 24 -359 89 -74 42
-201 165 -275 267 -57 77 -77 108 -141 214 -35 59 -104 201 -141 292 -20 50
-42 99 -47 110 -6 11 -15 33 -19 50 -13 49 -38 115 -55 141 -15 23 -22 24
-110 24 -75 0 -96 -3 -100 -15z"/>
</g>
</svg>
