<?xml version="1.0" encoding="UTF-8"?>
<svg version="1.1" xmlns="http://www.w3.org/2000/svg" width="613" height="365">
<path d="M0 0 C1.12921875 0.17144531 2.2584375 0.34289063 3.421875 0.51953125 C23.57670899 4.11860875 40.62261279 14.82948167 55 29 C55.65871094 29.64582031 56.31742188 30.29164062 56.99609375 30.95703125 C63.1528668 37.48349506 70.09159531 47.16488246 72 56 C73.3921875 56.2784375 73.3921875 56.2784375 74.8125 56.5625 C91.28964058 61.36555312 100.51956705 76.55583118 108.46875 90.59375 C118.84488703 110.54785967 125.32977452 132.87839325 132.58691406 154.10205078 C132.98749023 155.2723584 133.38806641 156.44266602 133.80078125 157.6484375 C134.1767041 158.75155273 134.55262695 159.85466797 134.93994141 160.99121094 C135.84584439 163.56245654 136.82763717 166.0776973 137.85546875 168.6015625 C139.00737887 172.02190997 139.03197372 172.77227187 138 176 C134.87501937 176.02895976 131.7500731 176.04678483 128.625 176.0625 C127.73554688 176.07087891 126.84609375 176.07925781 125.9296875 176.08789062 C125.07890625 176.09111328 124.228125 176.09433594 123.3515625 176.09765625 C122.56604004 176.10289307 121.78051758 176.10812988 120.97119141 176.11352539 C119 176 119 176 117 175 C116.08612688 172.76108714 115.28731235 170.55823402 114.53125 168.265625 C114.29475235 167.5684285 114.0582547 166.87123199 113.81459045 166.15290833 C113.30361626 164.64350439 112.79606785 163.13293742 112.29153442 161.62136841 C111.49644819 159.23935907 110.69270922 156.86043491 109.88647461 154.48217773 C108.78674732 151.23580051 107.69040413 147.98831496 106.59716797 144.73974609 C104.27399133 137.83985723 101.92317837 130.94963343 99.5625 124.0625 C98.98048828 122.34498535 98.98048828 122.34498535 98.38671875 120.59277344 C96.1498062 114.06137446 93.68641941 107.69330188 90.93334961 101.36108398 C90 99 90 99 90 97 C89.34 97 88.68 97 88 97 C87.89300781 97.67675781 87.78601563 98.35351562 87.67578125 99.05078125 C86.86509061 102.5887664 85.56938322 105.84423414 84.1875 109.1875 C83.41327838 111.08786216 82.63952238 112.98835304 81.87060547 114.89086914 C81.25466856 116.38303934 80.61593963 117.86589634 79.96142578 119.34155273 C77.33004043 125.45515811 76.18588129 131.09072897 75.5 137.6875 C73.93157791 150.61447399 71.64233292 163.56795763 65 175 C62.59940183 176.20029908 61.10639351 176.11459743 58.4296875 176.09765625 C57.53378906 176.09443359 56.63789063 176.09121094 55.71484375 176.08789062 C54.77769531 176.07951172 53.84054687 176.07113281 52.875 176.0625 C51.93011719 176.05798828 50.98523438 176.05347656 50.01171875 176.04882812 C47.67441613 176.03702357 45.33723939 176.02055759 43 176 C41.84111527 172.52334581 42.11855528 172.08615363 43.5546875 168.88671875 C44.09947754 167.64897705 44.09947754 167.64897705 44.65527344 166.38623047 C45.0577832 165.49564941 45.46029297 164.60506836 45.875 163.6875 C46.71272438 161.7885477 47.54860319 159.88878035 48.3828125 157.98828125 C49.0329834 156.51222412 49.0329834 156.51222412 49.69628906 155.00634766 C52.19951223 149.23393378 54.54086324 143.39457537 56.87963867 137.55395508 C58.77602797 132.85173985 60.81010382 128.35919443 63.1875 123.875 C66.73845164 116.10729329 63.74235966 108.6879899 60.9465332 101.10839844 C59.18815409 96.51365031 57.51985278 92.42638267 54.30078125 88.6796875 C52 86 52 86 52 84 C51.34 84 50.68 84 50 84 C50 83.34 50 82.68 50 82 C49.34 82 48.68 82 48 82 C48 81.34 48 80.68 48 80 C47.44054687 79.73058594 46.88109375 79.46117188 46.3046875 79.18359375 C42.97450959 77.47334984 39.82339752 75.49051478 36.6328125 73.53515625 C31.22642994 70.38276998 26.88957334 68.58079673 20.625 67.8125 C18.75714844 67.57466797 18.75714844 67.57466797 16.8515625 67.33203125 C15.91054688 67.22246094 14.96953125 67.11289063 14 67 C14.33 65.35 14.66 63.7 15 62 C17.31 62 19.62 62 22 62 C22 61.34 22 60.68 22 60 C34.15012763 54.92886622 46.89563122 52.8051413 60 52 C60 51.34 60 50.68 60 50 C59.34 50 58.68 50 58 50 C58 49.34 58 48.68 58 48 C57.43023437 47.73574219 56.86046875 47.47148438 56.2734375 47.19921875 C53.86017869 45.92624546 51.81153763 44.44307499 49.625 42.8125 C23.39436818 24.43580736 -13.6963259 18.20920101 -44.97509766 23.59765625 C-65.83028473 27.74153716 -83.86873102 38.18468056 -97 55 C-97.825 56.010625 -98.65 57.02125 -99.5 58.0625 C-110.65661465 74.39372869 -114.44328832 92.81342345 -114.5625 112.25 C-114.57577835 113.25352005 -114.57577835 113.25352005 -114.58932495 114.27731323 C-114.70650437 127.33911312 -112.41019637 139.68040612 -106.25 151.3125 C-105.91218506 151.9727417 -105.57437012 152.6329834 -105.22631836 153.31323242 C-102.54969097 158.36949579 -99.35035518 162.77973315 -95.56640625 167.08203125 C-94 169 -94 169 -93 172 C-92.34 172 -91.68 172 -91 172 C-91 173.32 -91 174.64 -91 176 C-93.89740622 176.13539281 -96.78845621 176.23426829 -99.6875 176.3125 C-100.91243164 176.3753418 -100.91243164 176.3753418 -102.16210938 176.43945312 C-106.26564639 176.52252068 -108.3758003 176.42935283 -111.828125 174.0546875 C-114.59441412 170.16397151 -116.35769324 166.25620446 -118.0625 161.8125 C-118.40539062 160.91885742 -118.74828125 160.02521484 -119.1015625 159.10449219 C-127.88059441 135.54631055 -129.3673693 108.46815703 -123 84 C-122.83371094 83.32050293 -122.66742188 82.64100586 -122.49609375 81.94091797 C-114.82702952 50.93091472 -97.05270954 27.08760547 -70.3125 9.875 C-61.24215906 4.57189332 -50.39352276 0.52729247 -40 -1 C-39.26265625 -1.10957031 -38.5253125 -1.21914063 -37.765625 -1.33203125 C-25.08366898 -2.88619253 -12.56204161 -2.09812823 0 0 Z M29 63 C32.13154684 64.63998069 35.32962034 65.91369229 38.625 67.1875 C54.90053964 73.92426183 64.10714932 85.77407528 72 101 C75.49593231 99.25203385 76.2948495 95.22970771 77.75 91.75 C78.09160156 90.98558594 78.43320312 90.22117187 78.78515625 89.43359375 C80.7310705 84.90576507 80.7310705 84.90576507 80.33984375 80.10546875 C78.54338412 77.28246075 76.47607619 75.25598053 74 73 C73.47148437 72.50242187 72.94296875 72.00484375 72.3984375 71.4921875 C63.29033122 63.21587175 53.67958645 60.64032581 41.46875 60.796875 C37.09814539 61.05281131 33.21400783 61.83751508 29 63 Z " fill="#13D3D9" transform="translate(303,36)"/>
<path d="M0 0 C6.93 0 13.86 0 21 0 C23.29686112 5.16793751 25.51795007 10.18199324 27.515625 15.44140625 C34.85688967 34.62707688 34.85688967 34.62707688 44 53 C44.35271973 53.63147949 44.70543945 54.26295898 45.06884766 54.91357422 C50.8607688 65.15610261 57.40131793 74.66897025 65.0625 83.625 C67 86 67 86 67 88 C67.66 88 68.32 88 69 88 C71.125 89.875 71.125 89.875 73 92 C73 92.66 73 93.32 73 94 C73.56460938 94.27070313 74.12921875 94.54140625 74.7109375 94.8203125 C77.10576507 96.05450691 79.34447261 97.4413134 81.625 98.875 C94.80359287 106.7629169 107.77515688 108.44852238 123 108 C122.67 109.65 122.34 111.3 122 113 C115.02044456 114.87774842 108.22709833 116.56042694 101 117 C99.90365234 117.09667969 99.90365234 117.09667969 98.78515625 117.1953125 C80.28412333 118.11882496 63.87159106 108.66343782 50.53662109 96.68554688 C41.4979026 88.42252892 34.50628213 79.34359963 28 69 C27.03126953 67.47246094 27.03126953 67.47246094 26.04296875 65.9140625 C15.44802803 48.45513084 0 20.71726934 0 0 Z " fill="#15D3D9" transform="translate(433,245)"/>
<path d="M0 0 C39.27 0 78.54 0 119 0 C120 2 120 2 119.36669922 4.00854492 C119.01623535 4.82427979 118.66577148 5.64001465 118.3046875 6.48046875 C117.92038574 7.39038574 117.53608398 8.30030273 117.14013672 9.23779297 C116.51389404 10.69789795 116.51389404 10.69789795 115.875 12.1875 C107.56511039 29.08852239 107.56511039 29.08852239 107 47 C109.22893357 49.85989323 111.17517494 50.5257576 114.6875 51.1875 C115.89986328 51.42533203 115.89986328 51.42533203 117.13671875 51.66796875 C117.75160156 51.77753906 118.36648438 51.88710938 119 52 C119 53.65 119 55.3 119 57 C100.19 57 81.38 57 62 57 C61.67 55.35 61.34 53.7 61 52 C61.86882812 51.82984375 62.73765625 51.6596875 63.6328125 51.484375 C69.97623911 50.15041057 74.88463602 49.00933934 80 45 C80.66 45 81.32 45 82 45 C82.2784375 44.43796875 82.556875 43.8759375 82.84375 43.296875 C83.59789603 41.7987741 84.36807928 40.30860784 85.15625 38.828125 C90.85572921 27.89307768 95.33814956 16.40424184 100 5 C99.22293701 5.33483398 98.44587402 5.66966797 97.64526367 6.01464844 C91.91781365 8.44825136 86.33624625 10.68607908 80.3125 12.25 C78.54326172 12.72179687 78.54326172 12.72179687 76.73828125 13.203125 C52.07940318 18.45956296 21.52110117 15.70585034 0 2 C0 1.34 0 0.68 0 0 Z " fill="#12D2D8" transform="translate(228,245)"/>
<path d="M0 0 C0.66 0.33 1.32 0.66 2 1 C0.69791667 2.43229167 -0.60416667 3.86458333 -1.90625 5.296875 C-3.36024492 7.22360515 -3.36024492 7.22360515 -3 11 C-4.32 10.67 -5.64 10.34 -7 10 C-7 10.99 -7 11.98 -7 13 C-7.763125 13.20625 -8.52625 13.4125 -9.3125 13.625 C-12.82229103 15.42070704 -13.52599781 17.43136312 -15 21 C-14.34 21 -13.68 21 -13 21 C-12.67 20.34 -12.34 19.68 -12 19 C-11.01 19 -10.02 19 -9 19 C-9 19.66 -9 20.32 -9 21 C-9.66 21 -10.32 21 -11 21 C-10.67 21.66 -10.34 22.32 -10 23 C-8.37061226 22.40776866 -6.74658872 21.80076372 -5.125 21.1875 C-4.22007812 20.85105469 -3.31515625 20.51460937 -2.3828125 20.16796875 C0.29425849 19.10350976 0.29425849 19.10350976 2 16 C5.625 14.8125 5.625 14.8125 9 14 C8.505 12.515 8.505 12.515 8 11 C9.41377782 10.63447197 10.83120576 10.28304505 12.25 9.9375 C13.03890625 9.74027344 13.8278125 9.54304688 14.640625 9.33984375 C17.10394822 8.98502733 18.65604132 9.23122456 21 10 C20.14019531 10.37769531 19.28039062 10.75539063 18.39453125 11.14453125 C5.82585198 16.99712236 -4.41181375 25.00235039 -13 36 C-13.825 37.010625 -14.65 38.02125 -15.5 39.0625 C-26.65661465 55.39372869 -30.44328832 73.81342345 -30.5625 93.25 C-30.57577835 94.25352005 -30.57577835 94.25352005 -30.58932495 95.27731323 C-30.70650437 108.33911312 -28.41019637 120.68040612 -22.25 132.3125 C-21.91218506 132.9727417 -21.57437012 133.6329834 -21.22631836 134.31323242 C-18.54969097 139.36949579 -15.35035518 143.77973315 -11.56640625 148.08203125 C-10 150 -10 150 -9 153 C-8.34 153 -7.68 153 -7 153 C-7 154.32 -7 155.64 -7 157 C-9.89740622 157.13539281 -12.78845621 157.23426829 -15.6875 157.3125 C-16.91243164 157.3753418 -16.91243164 157.3753418 -18.16210938 157.43945312 C-22.26564639 157.52252068 -24.3758003 157.42935283 -27.828125 155.0546875 C-30.59441412 151.16397151 -32.35769324 147.25620446 -34.0625 142.8125 C-34.40539062 141.91885742 -34.74828125 141.02521484 -35.1015625 140.10449219 C-43.88059441 116.54631055 -45.3673693 89.46815703 -39 65 C-38.83371094 64.32050293 -38.66742188 63.64100586 -38.49609375 62.94091797 C-33.29637186 41.9157462 -22.66751366 19.46428618 -5.8125 5.25 C-3.80099302 3.54233442 -1.86676587 1.86676587 0 0 Z " fill="#15D2D8" transform="translate(219,55)"/>
<path d="M0 0 C3.3 0 6.6 0 10 0 C10 1.65 10 3.3 10 5 C13.465 4.505 13.465 4.505 17 4 C17 5.65 17 7.3 17 9 C19.31 9.33 21.62 9.66 24 10 C23.505 8.02 23.505 8.02 23 6 C22.01 6 21.02 6 20 6 C20 4.02 20 2.04 20 0 C23.6695036 3.2893298 25.88370205 6.87442777 28.25 11.125 C28.61351562 11.75792969 28.97703125 12.39085938 29.3515625 13.04296875 C32 17.7324953 32 17.7324953 32 20 C32.928125 20.185625 33.85625 20.37125 34.8125 20.5625 C42.13112618 22.63860008 48.84131463 27.51512141 54 33 C53.505 33.99 53.505 33.99 53 35 C51.515 34.505 51.515 34.505 50 34 C49.67 33.34 49.34 32.68 49 32 C47.11736119 31.09656316 47.11736119 31.09656316 44.9375 30.375 C44.20402344 30.11460938 43.47054687 29.85421875 42.71484375 29.5859375 C42.14894531 29.39257812 41.58304687 29.19921875 41 29 C40.67 30.98 40.34 32.96 40 35 C38.02 34.505 38.02 34.505 36 34 C37.05270463 35.15811388 37.05270463 35.15811388 39 36 C39.33333333 37.66666667 39.66666667 39.33333333 40 41 C40.66 41.33 41.32 41.66 42 42 C42.53449652 49.24539726 41.71607548 53.72912263 38 60 C37.34 60 36.68 60 36 60 C36 61.65 36 63.3 36 65 C35.34 65 34.68 65 34 65 C33.505 66.98 33.505 66.98 33 69 C32.34 69 31.68 69 31 69 C31 67.35 31 65.7 31 64 C31.66 64 32.32 64 33 64 C34.23006372 61.27885905 35.43391679 58.55064806 36.625 55.8125 C36.975625 55.04357422 37.32625 54.27464844 37.6875 53.48242188 C39.72788753 48.92431148 39.72788753 48.92431148 39.265625 44.0859375 C38.84796875 43.39757812 38.4303125 42.70921875 38 42 C37.71125 41.278125 37.4225 40.55625 37.125 39.8125 C35.70777287 37.52918962 34.39801704 37.1711246 32 36 C30.63649681 35.05499779 29.28285377 34.09566646 27.9375 33.125 C17.68854088 26.31461674 7.27256079 24.34684908 -4.9140625 26.51953125 C-5.94660156 26.75736328 -5.94660156 26.75736328 -7 27 C-4.79724692 29.20275308 -3.40482252 29.67173137 -0.5 30.6875 C5.34059542 32.94428579 10.02770652 36.24850259 15 40 C15.886875 40.598125 16.77375 41.19625 17.6875 41.8125 C23.29167972 47.11375109 27.45128731 54.18647164 31 61 C31 61.66 31 62.32 31 63 C30.34 63 29.68 63 29 63 C26.60268669 59.80358226 24.61520275 56.99881788 24 53 C23.34 53 22.68 53 22 53 C22 52.01 22 51.02 22 50 C21.01 50 20.02 50 19 50 C19.495 54.95 19.495 54.95 20 60 C15.99543524 57.99771762 13.91252854 51.98443446 12 48 C11.34 48 10.68 48 10 48 C10 47.34 10 46.68 10 46 C9.34 46 8.68 46 8 46 C8 45.34 8 44.68 8 44 C7.44054687 43.73058594 6.88109375 43.46117187 6.3046875 43.18359375 C2.97450959 41.47334984 -0.17660248 39.49051478 -3.3671875 37.53515625 C-8.77357006 34.38276998 -13.11042666 32.58079673 -19.375 31.8125 C-20.62023437 31.65394531 -21.86546875 31.49539062 -23.1484375 31.33203125 C-24.08945312 31.22246094 -25.03046875 31.11289063 -26 31 C-25.67 29.35 -25.34 27.7 -25 26 C-22.69 26 -20.38 26 -18 26 C-18 25.34 -18 24.68 -18 24 C-5.84987237 18.92886622 6.89563122 16.8051413 20 16 C20 15.34 20 14.68 20 14 C19.34 14 18.68 14 18 14 C18 13.34 18 12.68 18 12 C17.443125 11.74089844 16.88625 11.48179688 16.3125 11.21484375 C13.7122169 9.84881665 11.39602836 8.26090425 9 6.5625 C7.7315625 5.66724609 7.7315625 5.66724609 6.4375 4.75390625 C4.27225421 3.19590087 2.13401707 1.6005128 0 0 Z " fill="#2BD1D7" transform="translate(343,72)"/>
<path d="M0 0 C4.29 0 8.58 0 13 0 C12.67 2.97 12.34 5.94 12 9 C11.34 9 10.68 9 10 9 C10.07347656 10.11375 10.14695312 11.2275 10.22265625 12.375 C10.22402105 18.57666941 7.68155373 23.90743705 5.40039062 29.578125 C3.245884 35.25383538 2.49321595 39.05113828 4 45 C5.57628706 47.39110622 6.54969413 47.85456443 9.26171875 48.73046875 C10.06222656 48.88128906 10.86273438 49.03210938 11.6875 49.1875 C12.89986328 49.42533203 12.89986328 49.42533203 14.13671875 49.66796875 C14.75160156 49.77753906 15.36648438 49.88710938 16 50 C16 51.65 16 53.3 16 55 C-2.81 55 -21.62 55 -41 55 C-41.33 53.35 -41.66 51.7 -42 50 C-41.13117188 49.82984375 -40.26234375 49.6596875 -39.3671875 49.484375 C-33.02376089 48.15041057 -28.11536398 47.00933934 -23 43 C-22.34 43 -21.68 43 -21 43 C-19.92303211 40.86582509 -18.87049969 38.7251422 -17.8515625 36.5625 C-13.63816441 27.75998679 -13.63816441 27.75998679 -10 25 C-9.34 25 -8.68 25 -8 25 C-8 23.68 -8 22.36 -8 21 C-7.34 21 -6.68 21 -6 21 C-6 19.35 -6 17.7 -6 16 C-5.34 16 -4.68 16 -4 16 C-3.81824219 14.89591797 -3.81824219 14.89591797 -3.6328125 13.76953125 C-3.46523438 12.79371094 -3.29765625 11.81789063 -3.125 10.8125 C-2.96257812 9.84957031 -2.80015625 8.88664063 -2.6328125 7.89453125 C-2 5 -2 5 0 0 Z " fill="#11D3D9" transform="translate(331,247)"/>
<path d="M0 0 C4.8403477 4.53782597 9.14689594 9.59800548 13 15 C13 15.66 13 16.32 13 17 C13.66 17 14.32 17 15 17 C17.125 18.875 17.125 18.875 19 21 C19 21.66 19 22.32 19 23 C19.84691406 23.40605469 19.84691406 23.40605469 20.7109375 23.8203125 C23.10576507 25.05450691 25.34447261 26.4413134 27.625 27.875 C40.80359287 35.7629169 53.77515688 37.44852238 69 37 C68.67 38.65 68.34 40.3 68 42 C61.02044456 43.87774842 54.22709833 45.56042694 47 46 C46.26910156 46.06445312 45.53820312 46.12890625 44.78515625 46.1953125 C30.67685203 46.89955398 18.5653748 41.44521003 7 34 C7 33.01 7 32.02 7 31 C6.34 30.67 5.68 30.34 5 30 C5.66 30 6.32 30 7 30 C7 28.68 7 27.36 7 26 C7.66 26 8.32 26 9 26 C9.33 26.66 9.66 27.32 10 28 C10.76352698 20.82177699 10.76352698 20.82177699 8.0625 14.5625 C7.381875 14.046875 6.70125 13.53125 6 13 C5.855625 12.360625 5.71125 11.72125 5.5625 11.0625 C5.09804313 8.6731736 5.09804313 8.6731736 2.4375 6.5 C0 4 0 4 0 0 Z " fill="#28D2D8" transform="translate(487,316)"/>
<path d="M0 0 C2 2 2 2 2 6 C1.02246356 7.02196992 0.0194119 8.01979625 -1 9 C-1.309375 9.804375 -1.61875 10.60875 -1.9375 11.4375 C-3.15595742 14.37613259 -4.73440858 15.80520832 -7 18 C-7.66 19.32 -8.32 20.64 -9 22 C4.86 22.495 4.86 22.495 19 23 C18.01 21.02 17.02 19.04 16 17 C16.3125 14.625 16.3125 14.625 17 13 C17.350625 13.78375 17.70125 14.5675 18.0625 15.375 C20.63792358 18.86428356 22.84182771 19.10896308 27 20 C27.99 20.33 28.98 20.66 30 21 C30 22.65 30 24.3 30 26 C11.19 26 -7.62 26 -27 26 C-27.33 24.35 -27.66 22.7 -28 21 C-27.13117188 20.82984375 -26.26234375 20.6596875 -25.3671875 20.484375 C-19.02376089 19.15041057 -14.11536398 18.00933934 -9 14 C-8.34 14 -7.68 14 -7 14 C-6.58621094 13.17242187 -6.58621094 13.17242187 -6.1640625 12.328125 C-3.08203125 6.1640625 -3.08203125 6.1640625 0 0 Z " fill="#5DE1E7" transform="translate(317,276)"/>
<path d="M0 0 C3.23356015 1.21258505 4.00856305 2.01284458 6 5 C6.66 3.68 7.32 2.36 8 1 C9.32 1 10.64 1 12 1 C10.9007105 7.31121503 9.41862058 13.06338584 7 19 C3.21875 18.2578125 3.21875 18.2578125 1.25 15.9375 C0.8375 15.298125 0.425 14.65875 0 14 C-0.33 15.32 -0.66 16.64 -1 18 C-2.65 18.33 -4.3 18.66 -6 19 C-8.41862058 13.06338584 -9.9007105 7.31121503 -11 1 C-9.35 1 -7.7 1 -6 1 C-5.34 2.98 -4.68 4.96 -4 7 C-3.566875 5.5459375 -3.566875 5.5459375 -3.125 4.0625 C-2 1 -2 1 0 0 Z " fill="#63D8DD" transform="translate(226,219)"/>
<path d="M0 0 C39.27 0 78.54 0 119 0 C119.495 0.99 119.495 0.99 120 2 C119.09239638 4.59732225 118.12932108 7.09450975 117.0625 9.625 C116.62647461 10.68460938 116.62647461 10.68460938 116.18164062 11.765625 C115.46132512 13.51327573 114.73154306 15.25701915 114 17 C113.67 17 113.34 17 113 17 C113 15.02 113 13.04 113 11 C113.66 11 114.32 11 115 11 C115.33 8.03 115.66 5.06 116 2 C111.71 2.33 107.42 2.66 103 3 C102.525625 4.918125 102.05125 6.83625 101.5625 8.8125 C100.79317287 11.92325754 100.01348676 14.95953973 99 18 C98.34 18 97.68 18 97 18 C97 19.65 97 21.3 97 23 C96.34 23 95.68 23 95 23 C95 24.32 95 25.64 95 27 C92.5 29.25 92.5 29.25 90 31 C92.75107872 22.09945121 96.40298363 13.58356509 100 5 C99.05125 5.495 98.1025 5.99 97.125 6.5 C94 8 94 8 92 8 C92 7.34 92 6.68 92 6 C94.5 4.375 94.5 4.375 97 3 C92.44659619 1.85307453 87.9727589 1.86576658 83.31005859 1.88647461 C82.44607956 1.88632858 81.58210052 1.88618256 80.69194031 1.8860321 C77.84408024 1.88672715 74.99628611 1.89450213 72.1484375 1.90234375 C70.16736893 1.90420986 68.18629991 1.90563285 66.20523071 1.90663147 C60.99498211 1.91044542 55.78476149 1.92026363 50.57452393 1.93133545 C45.26843645 1.94155873 39.96234449 1.94613503 34.65625 1.95117188 C25.33945717 1.96074311 16.02268211 1.97521644 6.7059021 1.99327087 C4.47060396 1.9973297 2.23530183 2 0 2 C0 1.34 0 0.68 0 0 Z " fill="#75D9DC" transform="translate(228,245)"/>
<path d="M0 0 C1.32 0.33 2.64 0.66 4 1 C4 6.61 4 12.22 4 18 C2.68 18.33 1.36 18.66 0 19 C-1.98 16.36 -3.96 13.72 -6 11 C-6.33 13.31 -6.66 15.62 -7 18 C-7.99 18.33 -8.98 18.66 -10 19 C-10.66 18.67 -11.32 18.34 -12 18 C-12 12.72 -12 7.44 -12 2 C-10.35 1.67 -8.7 1.34 -7 1 C-5.68 2.65 -4.36 4.3 -3 6 C-2.01 4.02 -1.02 2.04 0 0 Z " fill="#62D9DE" transform="translate(600,219)"/>
<path d="M0 0 C0.99 0.33 1.98 0.66 3 1 C3 2.32 3 3.64 3 5 C2.34 5 1.68 5 1 5 C1.66 6.98 2.32 8.96 3 11 C2.34 11.66 1.68 12.32 1 13 C1.66 13.33 2.32 13.66 3 14 C2.67 15.65 2.34 17.3 2 19 C0.37536158 19.05395478 -1.24978541 19.09277195 -2.875 19.125 C-3.77992188 19.14820313 -4.68484375 19.17140625 -5.6171875 19.1953125 C-8 19 -8 19 -10 17 C-10.22503811 14.45151644 -10.32440357 12.04736331 -10.3125 9.5 C-10.32861328 8.81035156 -10.34472656 8.12070313 -10.36132812 7.41015625 C-10.36328125 5.40625 -10.36328125 5.40625 -10 2 C-6.31884463 -0.45410358 -4.34706402 -0.23287843 0 0 Z M-5 5 C-5 5.66 -5 6.32 -5 7 C-3.68 6.67 -2.36 6.34 -1 6 C-2.32 5.67 -3.64 5.34 -5 5 Z " fill="#1FD4DA" transform="translate(479,219)"/>
<path d="M0 0 C2.9375 1.5625 2.9375 1.5625 5 4 C5.51780959 7.2622004 5.77909754 8.93230345 5 12 C2.82425584 14.69105198 1.08934144 16.45532928 -2 18 C-8.53333333 18.23333333 -8.53333333 18.23333333 -11 17 C-11 11.72 -11 6.44 -11 1 C-6.39382561 -1.30308719 -4.89699915 -1.20277172 0 0 Z M-6 4 C-6 6.97 -6 9.94 -6 13 C-3.58380177 13.25030977 -3.58380177 13.25030977 -1 13 C1.28287629 10.30486239 1.28287629 10.30486239 0.6875 7.9375 C0.02860761 5.95524751 0.02860761 5.95524751 -1 4 C-2.65 4 -4.3 4 -6 4 Z " fill="#42CCD0" transform="translate(449,220)"/>
<path d="M0 0 C0.80824219 0.10183594 1.61648438 0.20367187 2.44921875 0.30859375 C3.06410156 0.39238281 3.67898438 0.47617188 4.3125 0.5625 C4.33934312 3.37506281 4.35926188 6.18737241 4.375 9 C4.38337891 9.80244141 4.39175781 10.60488281 4.40039062 11.43164062 C4.4090143 13.47545221 4.3647815 15.51933902 4.3125 17.5625 C3.3125 18.5625 3.3125 18.5625 1.0625 18.6953125 C0.155 18.69273437 -0.7525 18.69015625 -1.6875 18.6875 C-3.04875 18.69136719 -3.04875 18.69136719 -4.4375 18.6953125 C-6.6875 18.5625 -6.6875 18.5625 -7.6875 17.5625 C-7.76075168 14.69982433 -7.77988205 11.861781 -7.75 9 C-7.74548828 8.19369141 -7.74097656 7.38738281 -7.73632812 6.55664062 C-7.72450518 4.55856244 -7.70656914 2.56052217 -7.6875 0.5625 C-4.59271121 -0.46909626 -3.16118607 -0.41232862 0 0 Z M-2.6875 4.5625 C-2.3575 5.5525 -2.0275 6.5425 -1.6875 7.5625 C-1.0275 6.9025 -0.3675 6.2425 0.3125 5.5625 C-0.6775 5.2325 -1.6675 4.9025 -2.6875 4.5625 Z M-2.6875 11.5625 C-2.6875 12.2225 -2.6875 12.8825 -2.6875 13.5625 C-1.3675 12.9025 -0.0475 12.2425 1.3125 11.5625 C-0.0075 11.5625 -1.3275 11.5625 -2.6875 11.5625 Z " fill="#1FCED3" transform="translate(318.6875,219.4375)"/>
<path d="M0 0 C1.63550171 3.36186462 1.64303057 5.62153222 1.125 9.3125 C-1.15628494 12.31076021 -2.84152412 13.92494655 -6.375 15.25 C-9.40916144 15.32585404 -11.21105626 14.75246959 -13.875 13.3125 C-16.33692771 9.61960844 -16.5602305 6.59936887 -15.875 2.3125 C-14.18067541 -0.53154484 -12.96347544 -2.14326228 -10 -3.625 C-6.02701872 -3.74185239 -2.94959461 -2.65463515 0 0 Z M-8.875 1.3125 C-11.22473818 3.21005144 -11.22473818 3.21005144 -11 6.4375 C-10.95875 7.38625 -10.9175 8.335 -10.875 9.3125 C-8.47780568 9.99208603 -8.47780568 9.99208603 -5.875 10.3125 C-3.6258092 8.48546773 -3.6258092 8.48546773 -3.625 5.8125 C-3.6258092 3.13953227 -3.6258092 3.13953227 -5.875 1.3125 C-6.865 1.3125 -7.855 1.3125 -8.875 1.3125 Z " fill="#42CFD3" transform="translate(141.875,222.6875)"/>
<path d="M0 0 C2.24360341 2.61753731 1.9995752 4.01189426 1.875 7.5 C0.90823677 11.36705293 0.2351208 12.72667187 -3 15 C-6.87823602 16.34895166 -8.52836642 16.18341306 -12.375 14.6875 C-15.30074738 11.69209197 -15.45942309 11.00341326 -15.625 7 C-15.41667064 3.63200873 -15.18399615 2.26942293 -13.25 -0.5625 C-8.06284618 -3.87651494 -5.47882944 -2.94233433 0 0 Z M-9 2 C-10.41577477 3.18424326 -10.41577477 3.18424326 -10.0625 6.5625 C-10.041875 7.696875 -10.02125 8.83125 -10 10 C-7.60280568 10.67958603 -7.60280568 10.67958603 -5 11 C-2.7508092 9.17296773 -2.7508092 9.17296773 -2.75 6.5 C-2.7508092 3.82703227 -2.7508092 3.82703227 -5 2 C-6.32 2 -7.64 2 -9 2 Z " fill="#5DD2D5" transform="translate(512,222)"/>
<path d="M0 0 C2.25 1.1875 2.25 1.1875 3.25 2.1875 C4.38327324 7.54806232 5.19629597 11.69636696 2.1875 16.4375 C-0.75 18.1875 -0.75 18.1875 -3.875 18.1875 C-6.71232816 17.20060325 -8.05453998 16.63649781 -9.75 14.1875 C-9.75 13.1975 -9.75 12.2075 -9.75 11.1875 C-8.76 10.8575 -7.77 10.5275 -6.75 10.1875 C-7.41 9.5275 -8.07 8.8675 -8.75 8.1875 C-8.375 4.5625 -8.375 4.5625 -7.75 1.1875 C-4.69204879 -0.38516062 -3.36664721 -0.99469122 0 0 Z M-3.75 4.1875 C-3.75 4.8475 -3.75 5.5075 -3.75 6.1875 C-1.275 6.6825 -1.275 6.6825 1.25 7.1875 C0.59 6.8575 -0.07 6.5275 -0.75 6.1875 C-0.75 5.5275 -0.75 4.8675 -0.75 4.1875 C-1.74 4.1875 -2.73 4.1875 -3.75 4.1875 Z " fill="#49D6DC" transform="translate(291.75,219.8125)"/>
<path d="M0 0 C0.99 0.33 1.98 0.66 3 1 C3.33 4.96 3.66 8.92 4 13 C5.32 12.67 6.64 12.34 8 12 C8.33 8.37 8.66 4.74 9 1 C10.65 1.33 12.3 1.66 14 2 C14.56489945 12.77493398 14.56489945 12.77493398 11 17 C8 19 8 19 5.0625 18.875 C1.46691546 17.84769013 0.27015788 16.94585798 -2 14 C-2.390625 10.765625 -2.390625 10.765625 -2.25 7.25 C-2.21390625 6.07953125 -2.1778125 4.9090625 -2.140625 3.703125 C-2.09421875 2.81109375 -2.0478125 1.9190625 -2 1 C-1.34 0.67 -0.68 0.34 0 0 Z " fill="#53D3D7" transform="translate(559,219)"/>
<path d="M0 0 C1.65 0 3.3 0 5 0 C5.33 3.96 5.66 7.92 6 12 C7.32 12.33 8.64 12.66 10 13 C10 9.04 10 5.08 10 1 C11.65 0.67 13.3 0.34 15 0 C15.13526139 2.24834496 15.23210804 4.49902514 15.3125 6.75 C15.39951172 8.62945312 15.39951172 8.62945312 15.48828125 10.546875 C15 14 15 14 12.671875 16.453125 C10 18 10 18 6.9375 18 C3.51380879 16.8344881 2.21138261 15.84792132 0 13 C-0.390625 9.765625 -0.390625 9.765625 -0.25 6.25 C-0.21390625 5.07953125 -0.1778125 3.9090625 -0.140625 2.703125 C-0.09421875 1.81109375 -0.0478125 0.9190625 0 0 Z " fill="#76DCE3" transform="translate(185,220)"/>
<path d="M0 0 C0 2.33333333 0 4.66666667 0 7 C0.226875 7.969375 0.45375 8.93875 0.6875 9.9375 C1 13 1 13 -0.125 14.8125 C-2.50755167 16.32144939 -4.17986876 16.79856205 -7 17 C-9.8125 16.0625 -9.8125 16.0625 -12 15 C-12 12.33333333 -12 9.66666667 -12 7 C-12.061875 6.175 -12.12375 5.35 -12.1875 4.5 C-12 2 -12 2 -10.6875 0.25 C-6.70548953 -2.69963738 -4.33643554 -1.63820898 0 0 Z M-7 3 C-7 3.66 -7 4.32 -7 5 C-6.01 5 -5.02 5 -4 5 C-4 4.34 -4 3.68 -4 3 C-4.99 3 -5.98 3 -7 3 Z M-9 9 C-8.67 9.99 -8.34 10.98 -8 12 C-7.01 11.67 -6.02 11.34 -5 11 C-6.32 10.34 -7.64 9.68 -9 9 Z " fill="#46D2D7" transform="translate(541,221)"/>
<path d="M0 0 C2.38671875 0.04296875 2.38671875 0.04296875 5 1 C6.58203125 3.80078125 6.58203125 3.80078125 7.8125 7.3125 C8.23144531 8.46363281 8.65039062 9.61476562 9.08203125 10.80078125 C10 14 10 14 10 18 C8.0625 17.6875 8.0625 17.6875 6 17 C5.67 16.01 5.34 15.02 5 14 C3.02 14 1.04 14 -1 14 C-1.66 15.32 -2.32 16.64 -3 18 C-4.32 17.34 -5.64 16.68 -7 16 C-6.02394493 13.51956646 -5.04432337 11.04064915 -4.0625 8.5625 C-3.78470703 7.85544922 -3.50691406 7.14839844 -3.22070312 6.41992188 C-1.11328125 1.11328125 -1.11328125 1.11328125 0 0 Z " fill="#5BD5D9" transform="translate(258,220)"/>
<path d="M0 0 C3.79304947 3.2095034 5.25831477 6.63421928 6.75 11.25 C6.97042969 11.8996875 7.19085938 12.549375 7.41796875 13.21875 C7.95583998 14.80897798 8.47939178 16.4040371 9 18 C7.68 18.33 6.36 18.66 5 19 C4.34 17.68 3.68 16.36 3 15 C1.02 15 -0.96 15 -3 15 C-3.66 16.32 -4.32 17.64 -5 19 C-5.99 18.67 -6.98 18.34 -8 18 C-7.50297368 11.87000876 -4.92244872 6.34416636 -2 1 C-1.34 0.67 -0.68 0.34 0 0 Z " fill="#21CDD0" transform="translate(415,219)"/>
<path d="M0 0 C0.33 0 0.66 0 1 0 C1 2.97 1 5.94 1 9 C0.01 9.33 -0.98 9.66 -2 10 C-2.02505615 10.57032959 -2.0501123 11.14065918 -2.07592773 11.72827148 C-2.19156549 14.29826157 -2.31443624 16.86785527 -2.4375 19.4375 C-2.47681641 20.33533203 -2.51613281 21.23316406 -2.55664062 22.15820312 C-2.59853516 23.01220703 -2.64042969 23.86621094 -2.68359375 24.74609375 C-2.72025146 25.53685303 -2.75690918 26.3276123 -2.79467773 27.14233398 C-3 29 -3 29 -4 30 C-4.16003488 32.66426685 -4.25942889 35.30560428 -4.31640625 37.97265625 C-4.33718735 38.77029892 -4.35796844 39.56794159 -4.37937927 40.38975525 C-4.44496158 42.94724611 -4.50379967 45.5048428 -4.5625 48.0625 C-4.60567699 49.79232882 -4.64929101 51.52214679 -4.69335938 53.25195312 C-4.80065172 57.5011926 -4.90189426 61.7505389 -5 66 C-7.23847141 62.40585817 -7.27101401 59.39030172 -7.30078125 55.20703125 C-7.3063353 54.54803833 -7.31188934 53.88904541 -7.31761169 53.21008301 C-7.32940429 51.07732991 -7.32312958 48.94525296 -7.3125 46.8125 C-7.31100952 46.08791595 -7.30951904 45.36333191 -7.3079834 44.61679077 C-7.24963567 28.92147029 -5.10319941 14.89512517 0 0 Z " fill="#56D1D5" transform="translate(184,107)"/>
<path d="M0 0 C2 2 2 2 2 6 C1.02246356 7.02196992 0.0194119 8.01979625 -1 9 C-1.309375 9.804375 -1.61875 10.60875 -1.9375 11.4375 C-3.15595742 14.37613259 -4.73440858 15.80520832 -7 18 C-8.34410262 20.01735205 -8.34410262 20.01735205 -9 22 C-8.67 22.66 -8.34 23.32 -8 24 C-11.63 24 -15.26 24 -19 24 C-19 23.34 -19 22.68 -19 22 C-21.64 22 -24.28 22 -27 22 C-27.33 22.99 -27.66 23.98 -28 25 C-28 23.68 -28 22.36 -28 21 C-27.13117188 20.82984375 -26.26234375 20.6596875 -25.3671875 20.484375 C-19.02376089 19.15041057 -14.11536398 18.00933934 -9 14 C-8.34 14 -7.68 14 -7 14 C-6.58621094 13.17242187 -6.58621094 13.17242187 -6.1640625 12.328125 C-3.08203125 6.1640625 -3.08203125 6.1640625 0 0 Z " fill="#29D2D6" transform="translate(317,276)"/>
<path d="M0 0 C29.7 0 59.4 0 90 0 C90 0.33 90 0.66 90 1 C61.95 1.33 33.9 1.66 5 2 C6.65 2.33 8.3 2.66 10 3 C10 3.66 10 4.32 10 5 C15.94 5.99 15.94 5.99 22 7 C18.8220056 9.11866293 17.81971935 9.2616131 14.1796875 8.61328125 C9.58638863 7.32090146 5.09360974 5.45049995 1 3 C0.67 2.01 0.34 1.02 0 0 Z " fill="#35C7CF" transform="translate(230,246)"/>
<path d="M0 0 C2.97 0 5.94 0 9 0 C5.72227275 2.1851515 2.62753542 3.08341586 -1.125 4.0625 C-2.38570313 4.40410156 -3.64640625 4.74570312 -4.9453125 5.09765625 C-19.08257303 8.49657031 -34.23570731 7.63593423 -48.5 5.625 C-49.40202148 5.49899414 -50.30404297 5.37298828 -51.23339844 5.24316406 C-57.60397922 4.26401385 -57.60397922 4.26401385 -61 2 C-59.93978638 2.09087891 -59.93978638 2.09087891 -58.8581543 2.18359375 C-41.18423144 3.66270212 -23.73955617 4.27678136 -6 4 C-6 3.34 -6 2.68 -6 2 C-4.02 2 -2.04 2 0 2 C0 1.34 0 0.68 0 0 Z " fill="#58D2D9" transform="translate(310,253)"/>
<path d="M0 0 C4.55384615 -0.36923077 4.55384615 -0.36923077 6.8125 1.5 C7.204375 1.995 7.59625 2.49 8 3 C8.66 2.01 9.32 1.02 10 0 C12.625 -0.1875 12.625 -0.1875 15 0 C13.94124926 3.40312738 12.99097846 6.01353231 11 9 C10.54860541 11.0492094 10.54860541 11.0492094 10.375 13.1875 C10.25125 14.445625 10.1275 15.70375 10 17 C8.0625 17.5625 8.0625 17.5625 6 18 C3.9896446 15.9896446 4.13800534 12.26754198 3.6953125 9.54296875 C2.93548818 6.7640607 1.73410814 5.26002618 0 3 C0 2.01 0 1.02 0 0 Z " fill="#4DCED6" transform="translate(337,220)"/>
<path d="M0 0 C1.65 0 3.3 0 5 0 C5.66 1.98 6.32 3.96 7 6 C7.33 4.68 7.66 3.36 8 2 C9.65 1.67 11.3 1.34 13 1 C13.33 3.31 13.66 5.62 14 8 C12.68 8 11.36 8 10 8 C9.67 10.64 9.34 13.28 9 16 C7.35 16 5.7 16 4 16 C2.68 10.72 1.36 5.44 0 0 Z " fill="#56CFD5" transform="translate(215,220)"/>
<path d="M0 0 C-0.33 0.99 -0.66 1.98 -1 3 C-1.99 3 -2.98 3 -4 3 C-4 3.66 -4 4.32 -4 5 C-3.15695312 4.50886719 -3.15695312 4.50886719 -2.296875 4.0078125 C0.26859964 2.88214506 1.96842277 2.7931889 4.75 2.875 C5.54921875 2.89304687 6.3484375 2.91109375 7.171875 2.9296875 C7.77515625 2.95289062 8.3784375 2.97609375 9 3 C9 3.33 9 3.66 9 4 C7.35 4.33 5.7 4.66 4 5 C5.95216435 6.95216435 7.53199953 7.84826645 10 9 C6.19055107 9.08859184 2.681512 9.05186057 -1 8 C-1.33 7.34 -1.66 6.68 -2 6 C-2.99 6.495 -2.99 6.495 -4 7 C-3.15115234 7.39832031 -3.15115234 7.39832031 -2.28515625 7.8046875 C-1.18494141 8.33449219 -1.18494141 8.33449219 -0.0625 8.875 C0.66839844 9.22304687 1.39929688 9.57109375 2.15234375 9.9296875 C4 11 4 11 5 13 C4.16210938 12.69320312 3.32421875 12.38640625 2.4609375 12.0703125 C-1.1643701 10.94916771 -4.61576806 10.37150233 -8.375 9.875 C-9.62023437 9.70742187 -10.86546875 9.53984375 -12.1484375 9.3671875 C-13.08945312 9.24601562 -14.03046875 9.12484375 -15 9 C-14.67 7.35 -14.34 5.7 -14 4 C-11.69 4 -9.38 4 -7 4 C-7 3.34 -7 2.68 -7 2 C-2.25 0 -2.25 0 0 0 Z " fill="#5AD8DC" transform="translate(332,94)"/>
<path d="M0 0 C0.33 0.66 0.66 1.32 1 2 C2.55460937 1.94779297 2.55460937 1.94779297 4.140625 1.89453125 C5.51040042 1.86638518 6.88019341 1.83908589 8.25 1.8125 C8.93191406 1.78736328 9.61382812 1.76222656 10.31640625 1.73632812 C13.59199289 1.68862541 15.65348556 1.78914924 18.484375 3.51171875 C18.98453125 4.00285156 19.4846875 4.49398437 20 5 C19.67 5.66 19.34 6.32 19 7 C18.01 6.67 17.02 6.34 16 6 C15.01 6.66 14.02 7.32 13 8 C10.73828125 8.1953125 10.73828125 8.1953125 8.3125 8.125 C7.50425781 8.10695313 6.69601562 8.08890625 5.86328125 8.0703125 C4.94095703 8.03550781 4.94095703 8.03550781 4 8 C4 7.34 4 6.68 4 6 C-0.95 6 -5.9 6 -11 6 C-11 5.34 -11 4.68 -11 4 C-10.37351562 3.96261719 -9.74703125 3.92523438 -9.1015625 3.88671875 C-8.28429687 3.82097656 -7.46703125 3.75523438 -6.625 3.6875 C-5.81289063 3.62949219 -5.00078125 3.57148437 -4.1640625 3.51171875 C-1.62078662 3.17009472 -1.62078662 3.17009472 0 0 Z " fill="#10D4D9" transform="translate(352,89)"/>
<path d="M0 0 C1.65 0 3.3 0 5 0 C5 4.29 5 8.58 5 13 C6.98 13 8.96 13 11 13 C10.67 14.65 10.34 16.3 10 18 C8.52093108 18.02689216 7.04172517 18.04634621 5.5625 18.0625 C4.32693359 18.07990234 4.32693359 18.07990234 3.06640625 18.09765625 C1 18 1 18 0 17 C-0.07325168 14.13732433 -0.09238205 11.299281 -0.0625 8.4375 C-0.05798828 7.63119141 -0.05347656 6.82488281 -0.04882812 5.99414062 C-0.03700518 3.99606244 -0.01906914 1.99802217 0 0 Z " fill="#63D5D9" transform="translate(159,220)"/>
<path d="M0 0 C-0.99 1.485 -0.99 1.485 -2 3 C-4.1640625 3.29296875 -4.1640625 3.29296875 -6.625 3.1875 C-7.44226563 3.16042969 -8.25953125 3.13335937 -9.1015625 3.10546875 C-9.72804688 3.07066406 -10.35453125 3.03585938 -11 3 C-11 3.66 -11 4.32 -11 5 C-6.05 5 -1.1 5 4 5 C4 5.66 4 6.32 4 7 C6.64 7.33 9.28 7.66 12 8 C12 8.66 12 9.32 12 10 C10.75863281 9.67386719 9.51726562 9.34773438 8.23828125 9.01171875 C2.53814938 7.74713105 -2.99675007 7.74153067 -8.8125 7.8125 C-10.34680664 7.8134668 -10.34680664 7.8134668 -11.91210938 7.81445312 C-18.02791402 7.82909347 -18.02791402 7.82909347 -24 9 C-24 8.34 -24 7.68 -24 7 C-23.01 6.67 -22.02 6.34 -21 6 C-20.30970703 5.27876953 -20.30970703 5.27876953 -19.60546875 4.54296875 C-14.68546166 -0.18550522 -6.43210551 -0.35733919 0 0 Z " fill="#3ECFD4" transform="translate(352,90)"/>
<path d="M0 0 C0.66 0.33 1.32 0.66 2 1 C0.69791667 2.43229167 -0.60416667 3.86458333 -1.90625 5.296875 C-3.36024492 7.22360515 -3.36024492 7.22360515 -3 11 C-4.32 10.67 -5.64 10.34 -7 10 C-7 10.99 -7 11.98 -7 13 C-7.78375 13.226875 -8.5675 13.45375 -9.375 13.6875 C-12.21875 14.78125 -12.21875 14.78125 -13.3125 17.625 C-13.539375 18.40875 -13.76625 19.1925 -14 20 C-14.66 20 -15.32 20 -16 20 C-16.3403125 21.5778125 -16.3403125 21.5778125 -16.6875 23.1875 C-17.81684567 27.19667711 -19.94824308 29.17154237 -23 32 C-23.556875 32.928125 -24.11375 33.85625 -24.6875 34.8125 C-25.120625 35.534375 -25.55375 36.25625 -26 37 C-26.66 37 -27.32 37 -28 37 C-26.54099543 31.53939812 -23.90550145 27.54708305 -20.6875 23 C-20.21376953 22.31421875 -19.74003906 21.6284375 -19.25195312 20.921875 C-15.25469471 15.19119535 -11.18480525 9.78060945 -5.8125 5.25 C-3.80099302 3.54233442 -1.86676587 1.86676587 0 0 Z " fill="#4CD2D7" transform="translate(219,55)"/>
<path d="M0 0 C0 0.33 0 0.66 0 1 C-4.27249266 1.08901026 -8.383192 1.08507697 -12.625 0.5 C-26.46584136 -1.38738746 -40.35462289 0.66619898 -54 3 C-54 2.34 -54 1.68 -54 1 C-38.83880546 -7.33340485 -16.12573404 -3.55062034 0 0 Z " fill="#41CDD3" transform="translate(304,58)"/>
<path d="M0 0 C2.97 0.33 5.94 0.66 9 1 C9.02684312 3.81256281 9.04676188 6.62487241 9.0625 9.4375 C9.07087891 10.23994141 9.07925781 11.04238281 9.08789062 11.86914062 C9.0965143 13.91295221 9.0522815 15.95683902 9 18 C8 19 8 19 5.75 19.1328125 C4.8425 19.13023437 3.935 19.12765625 3 19.125 C1.63875 19.12886719 1.63875 19.12886719 0.25 19.1328125 C-2 19 -2 19 -3 18 C-3.07325168 15.13732433 -3.09238205 12.299281 -3.0625 9.4375 C-3.05798828 8.63119141 -3.05347656 7.82488281 -3.04882812 6.99414062 C-3.03700518 4.99606244 -3.01906914 2.99802217 -3 1 C-2.67 1 -2.34 1 -2 1 C-2 6.28 -2 11.56 -2 17 C0.97 17 3.94 17 7 17 C7 16.34 7 15.68 7 15 C4.69 15 2.38 15 0 15 C0 13.68 0 12.36 0 11 C2.31 11 4.62 11 7 11 C7 8.03 7 5.06 7 2 C4.69 1.67 2.38 1.34 0 1 C0 0.67 0 0.34 0 0 Z M2 12 C2 12.66 2 13.32 2 14 C3.32 13.34 4.64 12.68 6 12 C4.68 12 3.36 12 2 12 Z " fill="#67D3DA" transform="translate(314,219)"/>
<path d="M0 0 C0.99 0.33 1.98 0.66 3 1 C2.62488281 1.64582031 2.24976563 2.29164062 1.86328125 2.95703125 C-8.00793406 21.13299697 -8.88816686 39.62224709 -9 60 C-9.33 60 -9.66 60 -10 60 C-10.82555811 26.49821699 -10.82555811 26.49821699 -6 12 C-5.34 12 -4.68 12 -4 12 C-3.81824219 11.07767578 -3.81824219 11.07767578 -3.6328125 10.13671875 C-3.38144531 8.92435547 -3.38144531 8.92435547 -3.125 7.6875 C-2.96257812 6.88699219 -2.80015625 6.08648437 -2.6328125 5.26171875 C-2 3 -2 3 0 0 Z " fill="#70DEE0" transform="translate(197,100)"/>
<path d="M0 0 C0.66 0 1.32 0 2 0 C2.33 1.32 2.66 2.64 3 4 C3.66 4 4.32 4 5 4 C5.66 7.3 6.32 10.6 7 14 C7.66 14 8.32 14 9 14 C9.33 17.63 9.66 21.26 10 25 C10.99 25 11.98 25 13 25 C14.19088986 30.38027025 15.2919519 35.45291384 15 41 C13.24427138 37.69895031 11.97479023 34.32142033 10.72265625 30.80078125 C10.29146484 29.59099609 9.86027344 28.38121094 9.41601562 27.13476562 C9.08210815 26.19177612 9.08210815 26.19177612 8.74145508 25.22973633 C8.07052415 23.33515864 7.39563707 21.44198346 6.72070312 19.54882812 C4.41124279 13.05411629 2.14997306 6.54925787 0 0 Z " fill="#5DD5DB" transform="translate(394,135)"/>
<path d="M0 0 C0.33 0.66 0.66 1.32 1 2 C1.66 2 2.32 2 3 2 C5.60347152 7.80858562 6.11333115 13.72998458 7 20 C13.27 20 19.54 20 26 20 C26 18.35 26 16.7 26 15 C28 18 28 18 27.625 20.1875 C27.315625 21.0846875 27.315625 21.0846875 27 22 C23.87501937 22.02895976 20.7500731 22.04678483 17.625 22.0625 C16.73554688 22.07087891 15.84609375 22.07925781 14.9296875 22.08789062 C13.65351563 22.09272461 13.65351563 22.09272461 12.3515625 22.09765625 C11.17327881 22.10551147 11.17327881 22.10551147 9.97119141 22.11352539 C8 22 8 22 6 21 C4.86682459 18.23751798 3.84341297 15.50701814 2.875 12.6875 C2.59785156 11.91470703 2.32070313 11.14191406 2.03515625 10.34570312 C0.72337509 6.58806398 0 4.06386359 0 0 Z " fill="#6FE0E4" transform="translate(414,190)"/>
<path d="M0 0 C1.65 0 3.3 0 5 0 C5 4.62 5 9.24 5 14 C6.32 14.33 7.64 14.66 9 15 C9 15.33 9 15.66 9 16 C5.625 16.1875 5.625 16.1875 2 16 C-0.42130331 12.36804504 -0.21022785 10.61650652 -0.125 6.3125 C-0.09792969 4.54326172 -0.09792969 4.54326172 -0.0703125 2.73828125 C-0.04710937 1.83464844 -0.02390625 0.93101562 0 0 Z " fill="#5AD0D4" transform="translate(185,220)"/>
<path d="M0 0 C-0.85980469 0.37769531 -1.71960938 0.75539063 -2.60546875 1.14453125 C-12.03517817 5.53546464 -19.35705963 10.97915942 -27 18 C-28 15 -28 15 -27.375 12.9375 C-25.59366149 10.4274321 -23.83784002 10.06419001 -21 9 C-20.34 8.01 -19.68 7.02 -19 6 C-15.375 4.8125 -15.375 4.8125 -12 4 C-12.33 3.01 -12.66 2.02 -13 1 C-11.58622218 0.63447197 -10.16879424 0.28304505 -8.75 -0.0625 C-7.96109375 -0.25972656 -7.1721875 -0.45695312 -6.359375 -0.66015625 C-3.89605178 -1.01497267 -2.34395868 -0.76877544 0 0 Z " fill="#4CD1D5" transform="translate(240,65)"/>
<path d="M0 0 C12.75585095 2.05004747 25.76012262 8.19132087 36 16 C36.495 16.99 36.495 16.99 37 18 C33.17670414 17.4833384 31.62665115 16.74085338 29 14 C27.67139075 13.64830932 26.33841672 13.31229724 25 13 C24.67 12.34 24.34 11.68 24 11 C21.6859378 10.26924352 19.35171131 9.59861742 17 9 C17 8.34 17 7.68 17 7 C15.02 7 13.04 7 11 7 C11 6.34 11 5.68 11 5 C9.35 4.67 7.7 4.34 6 4 C6 3.34 6 2.68 6 2 C4.35 2 2.7 2 1 2 C0.67 1.34 0.34 0.68 0 0 Z " fill="#5AD4D8" transform="translate(310,38)"/>
<path d="M0 0 C2.6656263 2.6656263 3.46254144 5.6899866 4.625 9.1875 C4.96917969 10.15913086 4.96917969 10.15913086 5.3203125 11.15039062 C5.536875 11.79556641 5.7534375 12.44074219 5.9765625 13.10546875 C6.17330566 13.68449951 6.37004883 14.26353027 6.57275391 14.86010742 C7 17 7 17 7 24 C0.73 24 -5.54 24 -12 24 C-12.33 22.35 -12.66 20.7 -13 19 C-12.01 19 -11.02 19 -10 19 C-10.33 20.32 -10.66 21.64 -11 23 C-5.39 23 0.22 23 6 23 C5.67 22.34 5.34 21.68 5 21 C3.68 21.33 2.36 21.66 1 22 C1.66 21.67 2.32 21.34 3 21 C3.05399736 19.54207116 3.09279177 18.08357288 3.125 16.625 C3.14820313 15.81289062 3.17140625 15.00078125 3.1953125 14.1640625 C3.21370051 11.78657757 3.21370051 11.78657757 1 10 C0.5859375 7.6171875 0.5859375 7.6171875 0.375 4.875 C0.30023438 3.96492187 0.22546875 3.05484375 0.1484375 2.1171875 C0.09945313 1.41851562 0.05046875 0.71984375 0 0 Z " fill="#21CCD1" transform="translate(433,186)"/>
<path d="M0 0 C2.97 0.33 5.94 0.66 9 1 C9 1.66 9 2.32 9 3 C7.02 3 5.04 3 3 3 C3.33 6.3 3.66 9.6 4 13 C5.65 13.33 7.3 13.66 9 14 C8.67 14.66 8.34 15.32 8 16 C5.36 16 2.72 16 0 16 C0 10.72 0 5.44 0 0 Z " fill="#2AC8D0" transform="translate(439,220)"/>
<path d="M0 0 C0.33 0.66 0.66 1.32 1 2 C1.99 2.33 2.98 2.66 4 3 C4.33 2.01 4.66 1.02 5 0 C7 3 7 3 7 6 C4.36 6 1.72 6 -1 6 C-1.103125 6.639375 -1.20625 7.27875 -1.3125 7.9375 C-1.539375 8.618125 -1.76625 9.29875 -2 10 C-2.99 10.33 -3.98 10.66 -5 11 C-5.66 10.34 -6.32 9.68 -7 9 C-6.5504955 7.68445015 -6.09010284 6.37261642 -5.625 5.0625 C-5.36976563 4.33160156 -5.11453125 3.60070312 -4.8515625 2.84765625 C-3.69201147 0.33174967 -2.72825565 0 0 0 Z " fill="#24CDD2" transform="translate(258,227)"/>
<path d="M0 0 C1.32 0 2.64 0 4 0 C4 5.61 4 11.22 4 17 C2.68 17 1.36 17 0 17 C-0.19386492 14.35448944 -0.38038267 11.70882217 -0.5625 9.0625 C-0.61857422 8.30775391 -0.67464844 7.55300781 -0.73242188 6.77539062 C-0.86176157 4.85254042 -0.93516912 2.92610452 -1 1 C-0.67 0.67 -0.34 0.34 0 0 Z " fill="#45C7CC" transform="translate(367,220)"/>
<path d="M0 0 C3.82504319 2.4907258 7.56944283 4.97303779 11 8 C11 8.66 11 9.32 11 10 C9.68 9.67 8.36 9.34 7 9 C7 8.34 7 7.68 7 7 C5.68 6.67 4.36 6.34 3 6 C3 7.65 3 9.3 3 11 C3.66 11 4.32 11 5 11 C5.33 12.65 5.66 14.3 6 16 C5.01 15.34 4.02 14.68 3 14 C3 13.34 3 12.68 3 12 C2.34 12 1.68 12 1 12 C1 11.34 1 10.68 1 10 C0.34 10 -0.32 10 -1 10 C-1 9.34 -1 8.68 -1 8 C-2.32 7.34 -3.64 6.68 -5 6 C-5 5.67 -5 5.34 -5 5 C-3.35 4.67 -1.7 4.34 0 4 C0 2.68 0 1.36 0 0 Z " fill="#4FD5DB" transform="translate(352,108)"/>
<path d="M0 0 C6.93 0 13.86 0 21 0 C21.66 1.65 22.32 3.3 23 5 C22.34 5 21.68 5 21 5 C20.67 4.34 20.34 3.68 20 3 C14.06 2.67 8.12 2.34 2 2 C2.99 4.64 3.98 7.28 5 10 C5.1875 13 5.1875 13 5 15 C2.82813579 12.82813579 2.3206752 11.50023469 1.375 8.625 C1.11460937 7.85414063 0.85421875 7.08328125 0.5859375 6.2890625 C0 4 0 4 0 0 Z " fill="#72D5D9" transform="translate(433,245)"/>
<path d="M0 0 C0.33 0 0.66 0 1 0 C1.01981934 0.74572266 1.03963867 1.49144531 1.06005859 2.25976562 C1.15594411 5.67350188 1.26536441 9.08667879 1.375 12.5 C1.42140625 14.25957031 1.42140625 14.25957031 1.46875 16.0546875 C1.70375948 23.4036879 1.70375948 23.4036879 3.1015625 30.59375 C3.97943734 33.92204071 3.96798619 34.88952639 3 38 C0.32072659 33.98108988 0.84398752 31.75838077 1 27 C0.34 27 -0.32 27 -1 27 C-1.02892385 22.87501462 -1.04677267 18.75005515 -1.0625 14.625 C-1.07087891 13.449375 -1.07925781 12.27375 -1.08789062 11.0625 C-1.09111328 9.94101563 -1.09433594 8.81953125 -1.09765625 7.6640625 C-1.10289307 6.62717285 -1.10812988 5.5902832 -1.11352539 4.52197266 C-1 2 -1 2 0 0 Z " fill="#2CC8CE" transform="translate(186,134)"/>
<path d="M0 0 C1.9375 0.6875 1.9375 0.6875 2.9375 2.6875 C1.9475 2.6875 0.9575 2.6875 -0.0625 2.6875 C-0.0625 3.6775 -0.0625 4.6675 -0.0625 5.6875 C0.741875 5.914375 1.54625 6.14125 2.375 6.375 C3.220625 6.808125 4.06625 7.24125 4.9375 7.6875 C5.75 10.3125 5.75 10.3125 5.9375 12.6875 C5.2775 12.6875 4.6175 12.6875 3.9375 12.6875 C3.6075 12.0275 3.2775 11.3675 2.9375 10.6875 C0.61543475 9.98258733 -1.71843068 9.31537571 -4.0625 8.6875 C-4.3925 8.3575 -4.7225 8.0275 -5.0625 7.6875 C-4.75 4.1875 -4.75 4.1875 -4.0625 0.6875 C-2.0625 -0.3125 -2.0625 -0.3125 0 0 Z " fill="#43D1D7" transform="translate(288.0625,220.3125)"/>
<path d="M0 0 C0 2.33333333 0 4.66666667 0 7 C0.226875 7.969375 0.45375 8.93875 0.6875 9.9375 C1 13 1 13 -0.125 14.8125 C-2.39109264 16.247692 -4.35831079 16.64301497 -7 17 C-7.33 16.34 -7.66 15.68 -8 15 C-4.535 14.505 -4.535 14.505 -1 14 C-1.33 12.02 -1.66 10.04 -2 8 C-3.65 7.67 -5.3 7.34 -7 7 C-7 6.34 -7 5.68 -7 5 C-6.01 5 -5.02 5 -4 5 C-4 4.34 -4 3.68 -4 3 C-4.99 2.67 -5.98 2.34 -7 2 C-6.67 1.67 -6.34 1.34 -6 1 C-6.99 0.34 -7.98 -0.32 -9 -1 C-5.23375329 -2.25541557 -3.62811066 -1.37061958 0 0 Z " fill="#53D6DB" transform="translate(541,221)"/>
<path d="M0 0 C1.14921928 3.89192472 0.63117119 6.31729001 -0.4375 10.25 C-0.72496094 11.32765625 -1.01242187 12.4053125 -1.30859375 13.515625 C-1.53675781 14.33546875 -1.76492188 15.1553125 -2 16 C-2.66 16 -3.32 16 -4 16 C-4.66 18.97 -5.32 21.94 -6 25 C-6.66 25 -7.32 25 -8 25 C-8 25.99 -8 26.98 -8 28 C-8.99 28.33 -9.98 28.66 -11 29 C-8.35842154 18.92898212 -4.1285413 9.53101572 0 0 Z " fill="#5CD4D8" transform="translate(361,171)"/>
<path d="M0 0 C4.42809367 4.22681669 5.34262609 7.27637289 5.75 13.375 C5.89695312 15.33566406 5.89695312 15.33566406 6.046875 17.3359375 C6.001425 20.88861211 5.5381022 22.85716302 4 26 C2.70797755 29.64806338 1.67275063 33.18774641 1 37 C0.01 36.67 -0.98 36.34 -2 36 C0.61748901 26.60674157 0.61748901 26.60674157 2.8125 23.125 C5.49997807 16.05268929 1.91297011 7.10531754 0 0 Z " fill="#54D3D8" transform="translate(364,135)"/>
<path d="M0 0 C1.32 0.33 2.64 0.66 4 1 C4.53449652 8.24539726 3.71607548 12.72912263 0 19 C-0.66 19 -1.32 19 -2 19 C-2 20.65 -2 22.3 -2 24 C-2.66 24 -3.32 24 -4 24 C-4.33 25.32 -4.66 26.64 -5 28 C-5.66 28 -6.32 28 -7 28 C-7 26.35 -7 24.7 -7 23 C-6.34 23 -5.68 23 -5 23 C-3.76748418 20.30048975 -2.56433107 17.59347103 -1.375 14.875 C-0.8490625 13.73417969 -0.8490625 13.73417969 -0.3125 12.5703125 C1.38818664 8.62471949 2.16745861 6.75439273 1.2109375 2.4453125 C0.61152344 1.23488281 0.61152344 1.23488281 0 0 Z " fill="#45D2D6" transform="translate(381,113)"/>
<path d="M0 0 C-9.36879685 3.95486097 -9.36879685 3.95486097 -14.1875 5.0625 C-20.50706236 6.61649074 -25.35903091 8.98554357 -30.32421875 13.109375 C-32 14 -32 14 -34.20703125 13.640625 C-34.79871094 13.42921875 -35.39039063 13.2178125 -36 13 C-27.80334944 6.36461621 -10.72769727 -3.57589909 0 0 Z " fill="#55D1D5" transform="translate(263,37)"/>
<path d="M0 0 C-3.08809695 1.76462683 -4.23312136 2 -8 2 C-8 6.95 -8 11.9 -8 17 C-5.03 17 -2.06 17 1 17 C0.67 15.68 0.34 14.36 0 13 C0.99 13.33 1.98 13.66 3 14 C2.67 15.65 2.34 17.3 2 19 C0.37536158 19.05395478 -1.24978541 19.09277195 -2.875 19.125 C-3.77992188 19.14820313 -4.68484375 19.17140625 -5.6171875 19.1953125 C-8 19 -8 19 -10 17 C-10.22503811 14.45151644 -10.32440357 12.04736331 -10.3125 9.5 C-10.32861328 8.81035156 -10.34472656 8.12070313 -10.36132812 7.41015625 C-10.36328125 5.40625 -10.36328125 5.40625 -10 2 C-6.3558226 -0.4294516 -4.28758728 -0.16179575 0 0 Z " fill="#94DCE0" transform="translate(479,219)"/>
<path d="M0 0 C1.32 0 2.64 0 4 0 C3.4140625 6.15234375 3.4140625 6.15234375 3 8 C2.01 8.495 2.01 8.495 1 9 C0.27306096 10.97888961 -0.39816251 12.97954558 -1 15 C-2.32 14.67 -3.64 14.34 -5 14 C-5 12.35 -5 10.7 -5 9 C-4.34 9 -3.68 9 -3 9 C-2.67 9.33 -2.34 9.66 -2 10 C-1.93941406 9.36191406 -1.87882813 8.72382813 -1.81640625 8.06640625 C-1.73261719 7.24011719 -1.64882812 6.41382813 -1.5625 5.5625 C-1.48128906 4.73878906 -1.40007812 3.91507813 -1.31640625 3.06640625 C-1 1 -1 1 0 0 Z " fill="#17D1DB" transform="translate(234,220)"/>
<path d="M0 0 C0.66 0 1.32 0 2 0 C2.64836042 1.74906531 3.29358784 3.49929219 3.9375 5.25 C4.29714844 6.22453125 4.65679687 7.1990625 5.02734375 8.203125 C6 11 6 11 6.50390625 13.296875 C6.66761719 13.85890625 6.83132813 14.4209375 7 15 C7.66 15.33 8.32 15.66 9 16 C9.88671875 18.3984375 9.88671875 18.3984375 10.6875 21.375 C11.09548828 22.84066406 11.09548828 22.84066406 11.51171875 24.3359375 C12 27 12 27 11 30 C7.93918536 23.60750216 5.1981819 17.12495092 2.6875 10.5 C2.42114746 9.80583984 2.15479492 9.11167969 1.88037109 8.39648438 C0.78161962 5.45589934 0 3.16593293 0 0 Z " fill="#5CD6DA" transform="translate(438,261)"/>
<path d="M0 0 C7.50396825 0.48412698 7.50396825 0.48412698 9.5625 2.625 C10.16850224 5.91472643 9.62714128 8.73886535 9 12 C7.35 12 5.7 12 4 12 C4 9.03 4 6.06 4 3 C2.35 2.67 0.7 2.34 -1 2 C-0.67 1.34 -0.34 0.68 0 0 Z " fill="#40CFD3" transform="translate(504,221)"/>
<path d="M0 0 C0.33 2.31 0.66 4.62 1 7 C-0.32 7 -1.64 7 -3 7 C-3.33 9.64 -3.66 12.28 -4 15 C-4.99 15 -5.98 15 -7 15 C-7.79953138 11.71303767 -8.09658936 10.28976808 -7 7 C-6.34 7 -5.68 7 -5 7 C-4.87625 6.030625 -4.7525 5.06125 -4.625 4.0625 C-4.41875 3.051875 -4.2125 2.04125 -4 1 C-2 0 -2 0 0 0 Z " fill="#20CED4" transform="translate(228,221)"/>
<path d="M0 0 C0.97591583 3.38317487 0.85856655 5.5657338 0 9 C0.804375 8.979375 1.60875 8.95875 2.4375 8.9375 C5 9 5 9 6 10 C7.84891946 10.23363881 9.70488031 10.41303635 11.5625 10.5625 C12.57441406 10.64628906 13.58632813 10.73007813 14.62890625 10.81640625 C15.41136719 10.87699219 16.19382812 10.93757812 17 11 C17 11.33 17 11.66 17 12 C10.4 12 3.8 12 -3 12 C-4.21386936 8.35839192 -3.6674695 7.66834531 -2.0625 4.3125 C-1.49208984 3.10013672 -1.49208984 3.10013672 -0.91015625 1.86328125 C-0.60980469 1.24839844 -0.30945313 0.63351563 0 0 Z " fill="#8CE2E4" transform="translate(349,200)"/>
<path d="M0 0 C2.2813993 4.3998415 3.95040267 8.57543379 4.9375 13.4375 C5.54968684 16.37696856 6.19744678 18.39489356 7.5625 21.125 C9.21728242 24.43456485 9.63392369 27.33923693 10 31 C6.69175783 29.34587892 6.19461465 25.69271692 5 22.375 C4.73960937 21.67503906 4.47921875 20.97507813 4.2109375 20.25390625 C1.7140739 13.45688867 -0.29950731 7.33792915 0 0 Z " fill="#5DD3D9" transform="translate(179,173)"/>
<path d="M0 0 C2.64 0 5.28 0 8 0 C8 0.66 8 1.32 8 2 C17.9 2 27.8 2 38 2 C38 2.33 38 2.66 38 3 C25.46 3 12.92 3 0 3 C0 2.01 0 1.02 0 0 Z " fill="#37C8CE" transform="translate(290,298)"/>
<path d="M0 0 C1.54238266 0.11583111 3.08390272 0.24316572 4.625 0.375 C5.91277344 0.47941406 5.91277344 0.47941406 7.2265625 0.5859375 C12.5252547 1.37700986 17.33697465 3.4948323 22.25 5.5625 C23.28640625 5.99691406 24.3228125 6.43132812 25.390625 6.87890625 C26.94460036 7.54655734 28.4872284 8.2436142 30 9 C30 9.66 30 10.32 30 11 C25.85466234 9.67461993 21.78372408 8.35344419 17.8125 6.5625 C12.14858189 4.02722237 5.97030118 2.63127508 0 1 C0 0.67 0 0.34 0 0 Z " fill="#59D1D7" transform="translate(313,61)"/>
<path d="M0 0 C0.33 0 0.66 0 1 0 C1.33 1.98 1.66 3.96 2 6 C4.97 6.33 7.94 6.66 11 7 C10 10 10 10 8.3125 11.25 C5.21117147 12.25583628 3.1253275 11.81530283 0 11 C-0.66 10.34 -1.32 9.68 -2 9 C-1.01 9 -0.02 9 1 9 C0.67 8.34 0.34 7.68 0 7 C-0.04022391 4.6670134 -0.04320247 2.33293334 0 0 Z " fill="#5CD6DB" transform="translate(501,226)"/>
<path d="M0 0 C0.33 0 0.66 0 1 0 C1 4.95 1 9.9 1 15 C3.64 14.67 6.28 14.34 9 14 C7.68 13.34 6.36 12.68 5 12 C6.65 12 8.3 12 10 12 C10.33 11.01 10.66 10.02 11 9 C11.12375 9.639375 11.2475 10.27875 11.375 10.9375 C11.58125 11.618125 11.7875 12.29875 12 13 C12.66 13.33 13.32 13.66 14 14 C9.89888036 16.98263247 7.02618483 17.3793347 2 17 C1.34 16.67 0.68 16.34 0 16 C0 10.72 0 5.44 0 0 Z " fill="#79E1E6" transform="translate(438,221)"/>
<path d="M0 0 C0.99 0 1.98 0 3 0 C4.30267176 5.50016964 3.71033431 10.47032059 3 16 C2.01 16 1.02 16 0 16 C0 10.72 0 5.44 0 0 Z " fill="#2CC7CD" transform="translate(589,220)"/>
<path d="M0 0 C4.26763313 2.2859534 7.47663624 5.23583857 10.8125 8.6875 C11.31458984 9.19861328 11.81667969 9.70972656 12.33398438 10.23632812 C13.56063509 11.48634362 14.78097491 12.7425468 16 14 C15.67 14.66 15.34 15.32 15 16 C12.525 15.01 12.525 15.01 10 14 C10 13.01 10 12.02 10 11 C9.01 11 8.02 11 7 11 C4.11973815 8.811001 3.29911753 6.29109775 2 3 C1.34 2.67 0.68 2.34 0 2 C0 1.34 0 0.68 0 0 Z " fill="#54D5D9" transform="translate(347,56)"/>
<path d="M0 0 C1 2 1 2 0.375 4.3125 C-1.27144579 7.53055314 -3.42114336 9.4840423 -6 12 C-6.8353125 13.3921875 -6.8353125 13.3921875 -7.6875 14.8125 C-8.120625 15.534375 -8.55375 16.25625 -9 17 C-9.66 17 -10.32 17 -11 17 C-9.53437194 10.81179262 -5.91540406 5.90348952 -2 1 C-1.34 0.67 -0.68 0.34 0 0 Z " fill="#3BD1D4" transform="translate(202,75)"/>
<path d="M0 0 C0.66 0 1.32 0 2 0 C2 0.99 2 1.98 2 3 C2.99 3.33 3.98 3.66 5 4 C5.33 5.65 5.66 7.3 6 9 C6.66 9 7.32 9 8 9 C8.2475 9.639375 8.495 10.27875 8.75 10.9375 C9.81562433 13.18741541 9.81562433 13.18741541 12.125 13.75 C12.74375 13.8325 13.3625 13.915 14 14 C13.34 15.32 12.68 16.64 12 18 C12.66 18 13.32 18 14 18 C13.67 18.99 13.34 19.98 13 21 C0 4.08333333 0 4.08333333 0 0 Z " fill="#56D6DB" transform="translate(458,307)"/>
<path d="M0 0 C1.98 0 3.96 0 6 0 C5.67 0.66 5.34 1.32 5 2 C6.65 2.33 8.3 2.66 10 3 C10 3.66 10 4.32 10 5 C15.94 5.99 15.94 5.99 22 7 C18.8220056 9.11866293 17.81971935 9.2616131 14.1796875 8.61328125 C9.58638863 7.32090146 5.09360974 5.45049995 1 3 C0.67 2.01 0.34 1.02 0 0 Z " fill="#53D2D5" transform="translate(230,246)"/>
<path d="M0 0 C1.71290015 5.13870046 -1.72646749 9.28657894 -4 14 C-8.29 14 -12.58 14 -17 14 C-17 13.67 -17 13.34 -17 13 C-12.9472484 12.01751476 -9.16138263 11.91840426 -5 12 C-5 10.35 -5 8.7 -5 7 C-4.34 7 -3.68 7 -3 7 C-2.690625 6.030625 -2.38125 5.06125 -2.0625 4.0625 C-1 1 -1 1 0 0 Z " fill="#3FCDD1" transform="translate(372,197)"/>
<path d="M0 0 C0.66 0.33 1.32 0.66 2 1 C1.53980469 1.75539062 1.07960938 2.51078125 0.60546875 3.2890625 C-1.76025843 8.02051685 -2.07468634 13.18450182 -2.6875 18.375 C-2.81705078 19.39722656 -2.94660156 20.41945312 -3.08007812 21.47265625 C-3.3965163 23.98072176 -3.70284032 26.4895899 -4 29 C-4.33 29 -4.66 29 -5 29 C-4.94789331 25.29054264 -4.85276213 21.58337256 -4.75 17.875 C-4.73582031 16.82828125 -4.72164063 15.7815625 -4.70703125 14.703125 C-4.51202567 8.54094865 -4.08498178 4.72223894 0 0 Z " fill="#65D5D7" transform="translate(381,156)"/>
<path d="M0 0 C0.66 0 1.32 0 2 0 C2 0.66 2 1.32 2 2 C7.61 2 13.22 2 19 2 C19 1.34 19 0.68 19 0 C19.66 0 20.32 0 21 0 C21 1.32 21 2.64 21 4 C18.06225537 4.05390357 15.12549768 4.0936255 12.1875 4.125 C11.35412109 4.14175781 10.52074219 4.15851563 9.66210938 4.17578125 C8.85966797 4.18222656 8.05722656 4.18867188 7.23046875 4.1953125 C6.12288208 4.21102295 6.12288208 4.21102295 4.99291992 4.22705078 C3 4 3 4 0 2 C0 1.34 0 0.68 0 0 Z " fill="#93DEE2" transform="translate(191,208)"/>
<path d="M0 0 C0.99 0.33 1.98 0.66 3 1 C2.28972656 1.91523437 1.57945312 2.83046875 0.84765625 3.7734375 C-0.08081828 4.97388942 -1.00919882 6.17441403 -1.9375 7.375 C-2.40607422 7.97828125 -2.87464844 8.5815625 -3.35742188 9.203125 C-5.90551455 12.45408381 -5.90551455 12.45408381 -8 16 C-8.66 16 -9.32 16 -10 16 C-10.3125 13.1875 -10.3125 13.1875 -10 10 C-7.8125 8.5625 -7.8125 8.5625 -5 7 C-3.138072 4.7656864 -1.60696785 2.43340846 0 0 Z " fill="#3BCED5" transform="translate(208,84)"/>
<path d="M0 0 C2.77770708 3.48746819 4.98481471 7.26133864 7.1875 11.125 C7.55552734 11.75792969 7.92355469 12.39085937 8.30273438 13.04296875 C11 17.75692834 11 17.75692834 11 20 C10.34 20 9.68 20 9 20 C6.25624329 17.04518508 6 16.22528092 6 12 C5.34 12 4.68 12 4 12 C1.85708967 10.36503879 1.08838825 9.39066259 0.48828125 6.73828125 C0.43027344 5.93777344 0.37226563 5.13726562 0.3125 4.3125 C0.24675781 3.50425781 0.18101562 2.69601562 0.11328125 1.86328125 C0.07589844 1.24839844 0.03851563 0.63351562 0 0 Z " fill="#46D1D3" transform="translate(473,292)"/>
<path d="M0 0 C3.43851071 0.66063979 6.00994509 2.01208584 9 3.8125 C9.845625 4.31394531 10.69125 4.81539063 11.5625 5.33203125 C14.01803882 7.01234387 15.96961236 8.83331319 18 11 C17.67 11.66 17.34 12.32 17 13 C16.01 12.67 15.02 12.34 14 12 C13.67 11.34 13.34 10.68 13 10 C12.01 9.67 11.02 9.34 10 9 C9.34 8.01 8.68 7.02 8 6 C7.01 5.67 6.02 5.34 5 5 C5 4.34 5 3.68 5 3 C3.35 2.67 1.7 2.34 0 2 C0 1.34 0 0.68 0 0 Z " fill="#5CD7D9" transform="translate(379,94)"/>
<path d="M0 0 C0.7734375 1.175625 0.7734375 1.175625 1.5625 2.375 C4.54457052 5.58646056 6.77647523 6.07850369 11 7 C11.99 7.33 12.98 7.66 14 8 C14 9.65 14 11.3 14 13 C13.01 12.67 12.02 12.34 11 12 C11.33 11.01 11.66 10.02 12 9 C9.69 9 7.38 9 5 9 C5 9.66 5 10.32 5 11 C4.34 11 3.68 11 3 11 C0 4.5 0 4.5 0 0 Z " fill="#60D3D6" transform="translate(333,289)"/>
<path d="M0 0 C1.2841212 2.5682424 0.81933504 3.8108781 0.375 6.625 C-0.25140948 11.94561387 0.76810965 15.17911685 3 20 C1.68 20.33 0.36 20.66 -1 21 C-1 20.34 -1 19.68 -1 19 C-1.99 18.67 -2.98 18.34 -4 18 C-3.67 17.34 -3.34 16.68 -3 16 C-2.72304178 12.98423267 -2.55347062 9.96861888 -2.37890625 6.9453125 C-2.01903971 4.14799941 -1.43081115 2.39820168 0 0 Z " fill="#1DCFD1" transform="translate(333,277)"/>
<path d="M0 0 C0.66 0.33 1.32 0.66 2 1 C0.30188276 7.6509592 -1.66538129 14.08451729 -4.1328125 20.4921875 C-4.99425075 22.9833738 -5.54455199 25.40673482 -6 28 C-6.33 28 -6.66 28 -7 28 C-6.51679152 21.7945858 -5.66681876 16.00054754 -4 10 C-3.34 10 -2.68 10 -2 10 C-1.34 6.7 -0.68 3.4 0 0 Z " fill="#63D4DA" transform="translate(339,261)"/>
<path d="M0 0 C5.28 0 10.56 0 16 0 C16.33 0.66 16.66 1.32 17 2 C16.09239638 4.59732225 15.12932108 7.09450975 14.0625 9.625 C13.77181641 10.33140625 13.48113281 11.0378125 13.18164062 11.765625 C12.46132512 13.51327573 11.73154306 15.25701915 11 17 C10.67 17 10.34 17 10 17 C10 15.02 10 13.04 10 11 C10.66 11 11.32 11 12 11 C12 9.35 12 7.7 12 6 C12.66 6 13.32 6 14 6 C14 4.35 14 2.7 14 1 C9.38 1 4.76 1 0 1 C0 0.67 0 0.34 0 0 Z " fill="#7DD8DB" transform="translate(331,245)"/>
<path d="M0 0 C0.99 0 1.98 0 3 0 C3 4.62 3 9.24 3 14 C4.98 14 6.96 14 9 14 C9 14.66 9 15.32 9 16 C6.36 16 3.72 16 1 16 C1.01160156 15.01257813 1.02320313 14.02515625 1.03515625 13.0078125 C1.04417969 11.72648438 1.05320313 10.44515625 1.0625 9.125 C1.07410156 7.84882813 1.08570313 6.57265625 1.09765625 5.2578125 C1.23176569 2.11335348 1.23176569 2.11335348 0 0 Z " fill="#2AC7CD" transform="translate(160,220)"/>
<path d="M0 0 C0.66 0.33 1.32 0.66 2 1 C1.51273438 1.40089844 1.02546875 1.80179688 0.5234375 2.21484375 C-1.39518362 4.46307414 -1.40385225 5.64361428 -1.375 8.5625 C-1.38273438 9.34753906 -1.39046875 10.13257813 -1.3984375 10.94140625 C-1.26695312 11.62074219 -1.13546875 12.30007812 -1 13 C1.91765 14.9451 3.62537285 15.45276317 7 16 C6.67 16.66 6.34 17.32 6 18 C2.67260127 17.69750921 0.4372406 17.28765829 -2.375 15.4375 C-4.2752989 12.58705165 -4.55915027 10.38105801 -4.40625 6.97265625 C-3.78208323 3.94184644 -2.14552985 2.14552985 0 0 Z " fill="#7FDADB" transform="translate(130,220)"/>
<path d="M0 0 C3.37705625 0.53725895 6.696686 1.11064623 10 2 C10.5625 3.9375 10.5625 3.9375 11 6 C10 7 10 7 7.4375 7.0625 C6.2309375 7.0315625 6.2309375 7.0315625 5 7 C5 6.34 5 5.68 5 5 C4.34 5 3.68 5 3 5 C3 4.34 3 3.68 3 3 C2.01 2.67 1.02 2.34 0 2 C0 1.34 0 0.68 0 0 Z " fill="#1DCFD4" transform="translate(342,106)"/>
<path d="M0 0 C1.37671875 0.81404297 1.37671875 0.81404297 2.78125 1.64453125 C9.04667542 5.31059876 15.05136719 8.7764375 22 11 C22 11.33 22 11.66 22 12 C17.17209882 12.33467752 14.50632923 11.53547877 10.375 9.0625 C7.24778207 7.20982047 4.59271521 5.6662547 1 5 C0.67 3.35 0.34 1.7 0 0 Z " fill="#5FD3D5" transform="translate(508,340)"/>
<path d="M0 0 C3.2542015 2.83430453 4.5206753 4.68607774 5 9 C4.01 8.67 3.02 8.34 2 8 C2 8.99 2 9.98 2 11 C1.01 11 0.02 11 -1 11 C-1 9.35 -1 7.7 -1 6 C-0.34 6 0.32 6 1 6 C1.33 5.01 1.66 4.02 2 3 C1.01 3 0.02 3 -1 3 C-1.66 4.32 -2.32 5.64 -3 7 C-3.33 6.34 -3.66 5.68 -4 5 C-2.52830189 1.26415094 -2.52830189 1.26415094 0 0 Z " fill="#5AD5D8" transform="translate(415,219)"/>
<path d="M0 0 C2.97 0 5.94 0 9 0 C5.6752388 2.21650746 2.49460399 3.12605143 -1.3125 4.125 C-2.28993164 4.39763672 -2.28993164 4.39763672 -3.28710938 4.67578125 C-7.28383711 5.73997502 -10.87067786 6.19206149 -15 6 C-15 5.67 -15 5.34 -15 5 C-10.545 4.505 -10.545 4.505 -6 4 C-6 3.34 -6 2.68 -6 2 C-4.02 2 -2.04 2 0 2 C0 1.34 0 0.68 0 0 Z " fill="#6DDBDA" transform="translate(310,253)"/>
<path d="M0 0 C2.61973192 2.34397066 4.06926039 4.73488754 5.625 7.875 C6.05039062 8.71804687 6.47578125 9.56109375 6.9140625 10.4296875 C7.98459247 12.96353181 8.56314418 15.2914939 9 18 C8.34 18.33 7.68 18.66 7 19 C5.74335022 16.09399739 5 14.20395416 5 11 C4.34 11 3.68 11 3 11 C0 4.5 0 4.5 0 0 Z " fill="#58D3D6" transform="translate(407,121)"/>
<path d="M0 0 C5.23880078 0.55145271 9.97350697 1.42922093 15 3 C15 3.66 15 4.32 15 5 C14.34 5 13.68 5 13 5 C13 5.66 13 6.32 13 7 C10.04705712 6.35632481 7.51718012 5.40722839 4.8125 4.0625 C4.11769531 3.72347656 3.42289062 3.38445312 2.70703125 3.03515625 C1 2 1 2 0 0 Z " fill="#1FCDD4" transform="translate(327,100)"/>
<path d="M0 0 C1.32 0.33 2.64 0.66 4 1 C4 2.65 4 4.3 4 6 C4.66 6 5.32 6 6 6 C6 6.66 6 7.32 6 8 C1.38486888 6.68139111 -2.09897612 4.78644563 -6 2 C-3.50907189 0.75453595 -2.58919267 1.2232422 0 2 C0 1.34 0 0.68 0 0 Z " fill="#41D5DB" transform="translate(500,348)"/>
<path d="M0 0 C4.54109672 4.26587874 8.24735246 9.03612328 12 14 C11.01 14.495 11.01 14.495 10 15 C7.9375 14.3125 7.9375 14.3125 6 13 C5.855625 12.401875 5.71125 11.80375 5.5625 11.1875 C5.12085728 8.68501222 5.12085728 8.68501222 2.4375 6.5 C0 4 0 4 0 0 Z " fill="#5FD8DB" transform="translate(487,316)"/>
<path d="M0 0 C0.33 0 0.66 0 1 0 C1 2.31 1 4.62 1 7 C3.31 7 5.62 7 8 7 C8 7.33 8 7.66 8 8 C6.02 8 4.04 8 2 8 C1.34 9.32 0.68 10.64 0 12 C-0.99 11.67 -1.98 11.34 -3 11 C-2.44894091 7.0507432 -1.61064629 3.65079826 0 0 Z " fill="#5CD8DC" transform="translate(410,226)"/>
<path d="M0 0 C2.97 0.33 5.94 0.66 9 1 C8.67 2.98 8.34 4.96 8 7 C6.68 6.01 5.36 5.02 4 4 C3.67 4.99 3.34 5.98 3 7 C2.67 6.01 2.34 5.02 2 4 C1.34 4.66 0.68 5.32 0 6 C0 4.02 0 2.04 0 0 Z " fill="#35CAD9" transform="translate(312,220)"/>
<path d="M0 0 C0.33 0.66 0.66 1.32 1 2 C1.66 2 2.32 2 3 2 C5.74683953 7.88608471 7.7743383 14.64942783 6 21 C4.99222971 18.25262623 3.99358554 15.50250048 3 12.75 C2.71382813 11.97269531 2.42765625 11.19539062 2.1328125 10.39453125 C1.72675781 9.26337891 1.72675781 9.26337891 1.3125 8.109375 C0.93544922 7.07248535 0.93544922 7.07248535 0.55078125 6.01464844 C0 4 0 4 0 0 Z " fill="#6BD8DE" transform="translate(414,190)"/>
<path d="M0 0 C0.99 0 1.98 0 3 0 C3 3.96 3 7.92 3 12 C2.01 12.33 1.02 12.66 0 13 C0 8.71 0 4.42 0 0 Z " fill="#1ECED5" transform="translate(196,220)"/>
<path d="M0 0 C0 0.99 0 1.98 0 3 C-2.31 3 -4.62 3 -7 3 C-7 4.32 -7 5.64 -7 7 C-7.99 7 -8.98 7 -10 7 C-10 5.02 -10 3.04 -10 1 C-6.61981469 -0.04005702 -3.5219721 -0.08004482 0 0 Z " fill="#29CCD2" transform="translate(481,220)"/>
<path d="M0 0 C-0.99 1.485 -0.99 1.485 -2 3 C-4.77262255 3.38394667 -7.34323528 3.60342248 -10.125 3.6875 C-10.87910156 3.72166016 -11.63320313 3.75582031 -12.41015625 3.79101562 C-14.27291201 3.87354278 -16.13643326 3.93844711 -18 4 C-13.39829283 -0.60170717 -6.11199681 -0.2182856 0 0 Z " fill="#53CDDB" transform="translate(352,90)"/>
<path d="M0 0 C6.75 0.75 6.75 0.75 9 3 C8.625 5.625 8.625 5.625 8 8 C7.34 7.67 6.68 7.34 6 7 C6 6.34 6 5.68 6 5 C4.35 5 2.7 5 1 5 C1 7.97 1 10.94 1 14 C0.67 14 0.34 14 0 14 C0 10.7 0 7.4 0 4 C1.98 4 3.96 4 6 4 C6 3.34 6 2.68 6 2 C4.35 2 2.7 2 1 2 C0.67 1.34 0.34 0.68 0 0 Z " fill="#67D3D8" transform="translate(442,219)"/>
<path d="M0 0 C2.97 0 5.94 0 9 0 C9.33 1.32 9.66 2.64 10 4 C6.7 4 3.4 4 0 4 C0 2.68 0 1.36 0 0 Z " fill="#40CACE" transform="translate(317,99)"/>
<path d="M0 0 C0.66 0.33 1.32 0.66 2 1 C1.360625 1.20625 0.72125 1.4125 0.0625 1.625 C-2.34925077 2.89538209 -2.34925077 2.89538209 -2.75 6.125 C-2.8325 7.07375 -2.915 8.0225 -3 9 C-2.34 9 -1.68 9 -1 9 C-1.33 9.99 -1.66 10.98 -2 12 C-2.99 12 -3.98 12 -5 12 C-5.99 12.495 -5.99 12.495 -7 13 C-6.34 11.35 -5.68 9.7 -5 8 C-5.66 7.67 -6.32 7.34 -7 7 C-4.78071806 4.09197539 -3.07030857 2.04687238 0 0 Z " fill="#2CD2D7" transform="translate(225,51)"/>
<path d="M0 0 C0.33 1.32 0.66 2.64 1 4 C0.34 4 -0.32 4 -1 4 C-0.34 5.98 0.32 7.96 1 10 C-0.32 10.33 -1.64 10.66 -3 11 C-3 10.01 -3 9.02 -3 8 C-4.32 7.34 -5.64 6.68 -7 6 C-6.01 5.67 -5.02 5.34 -4 5 C-4.99 4.34 -5.98 3.68 -7 3 C-4.69 3 -2.38 3 0 3 C0 2.01 0 1.02 0 0 Z " fill="#66E2E3" transform="translate(481,220)"/>
<path d="M0 0 C5.66153846 1.47692308 5.66153846 1.47692308 7.375 4.125 C7.684375 5.053125 7.684375 5.053125 8 6 C7.01 6 6.02 6 5 6 C5 7.65 5 9.3 5 11 C4.731875 10.401875 4.46375 9.80375 4.1875 9.1875 C3.01506533 7.02775192 1.80630718 5.64209744 0 4 C0.99 4 1.98 4 3 4 C3 3.34 3 2.68 3 2 C2.01 2 1.02 2 0 2 C0 1.34 0 0.68 0 0 Z " fill="#67D5DA" transform="translate(134,219)"/>
<path d="M0 0 C2.5 1.75 2.5 1.75 5 4 C5 5.32 5 6.64 5 8 C-0.61 8 -6.22 8 -12 8 C-12 7.67 -12 7.34 -12 7 C-7.05 7 -2.1 7 3 7 C2.01 6.01 1.02 5.02 0 4 C0 2.68 0 1.36 0 0 Z " fill="#3ACED2" transform="translate(205,202)"/>
<path d="M0 0 C8.04995287 0.34401508 8.04995287 0.34401508 11.625 2.8125 C13 5 13 5 12.5859375 7.13671875 C12.39257812 7.75160156 12.19921875 8.36648437 12 9 C8 6 4 3 0 0 Z " fill="#4ED6D9" transform="translate(364,100)"/>
<path d="M0 0 C2.31 0.66 4.62 1.32 7 2 C7.6875 4.8125 7.6875 4.8125 8 8 C6.40238809 10.57393029 5.249454 10.93618619 2.3125 11.6875 C1.1678125 11.8421875 1.1678125 11.8421875 0 12 C-0.33 11.34 -0.66 10.68 -1 10 C2.465 9.505 2.465 9.505 6 9 C5.67 7.02 5.34 5.04 5 3 C3.35 2.67 1.7 2.34 0 2 C0 1.34 0 0.68 0 0 Z " fill="#6ED3D5" transform="translate(534,226)"/>
<path d="M0 0 C2.34882224 2.34882224 3.03503024 4.27123667 4.1875 7.375 C4.55230469 8.33148438 4.91710937 9.28796875 5.29296875 10.2734375 C6.01370542 13.05285296 5.98549829 14.35108103 5 17 C1.72408048 11.18524285 -0.7342166 6.75479274 0 0 Z " fill="#5AD2DA" transform="translate(427,169)"/>
<path d="M0 0 C7.59498961 -0.26442904 14.57359158 0.39118425 22 2 C22 2.33 22 2.66 22 3 C14.37685526 3.23576736 7.41430591 2.83717315 0 1 C0 0.67 0 0.34 0 0 Z " fill="#58D1D4" transform="translate(288,35)"/>
<path d="M0 0 C2 2 2 2 2 6 C0.625 7.75 0.625 7.75 -1 9 C-1.66 9 -2.32 9 -3 9 C-3 10.32 -3 11.64 -3 13 C-4.32 13.33 -5.64 13.66 -7 14 C-4.66666667 9.33333333 -2.33333333 4.66666667 0 0 Z " fill="#5BD6DD" transform="translate(317,276)"/>
<path d="M0 0 C2.33697029 2.33697029 3.27094054 4.49097899 4.625 7.5 C5.29402344 8.96953125 5.29402344 8.96953125 5.9765625 10.46875 C7 13 7 13 7 15 C6.34 15 5.68 15 5 15 C-0.74031891 5.77448747 -0.74031891 5.77448747 0 0 Z " fill="#58D5D7" transform="translate(466,277)"/>
<path d="M0 0 C1.65 0 3.3 0 5 0 C5.33 0.66 5.66 1.32 6 2 C5.01 2 4.02 2 3 2 C3.33 2.66 3.66 3.32 4 4 C6.32156597 4.40729228 8.6568787 4.74438677 11 5 C10.34 5.66 9.68 6.32 9 7 C5.83987005 6.79828958 3.70335103 6.51579075 1.125 4.625 C0 3 0 3 0 0 Z " fill="#77D7DD" transform="translate(282,231)"/>
<path d="M0 0 C4.875 2.625 4.875 2.625 6 6 C5.34 6 4.68 6 4 6 C4.33 6.99 4.66 7.98 5 9 C2.09303901 7.93411431 1.15567038 7.29651501 -0.3125 4.5 C-1 2 -1 2 0 0 Z " fill="#37CFD3" transform="translate(595,226)"/>
<path d="M0 0 C1.485 0.99 1.485 0.99 3 2 C3.29296875 4.1640625 3.29296875 4.1640625 3.1875 6.625 C3.16042969 7.44226563 3.13335938 8.25953125 3.10546875 9.1015625 C3.07066406 9.72804687 3.03585937 10.35453125 3 11 C2.01 11.33 1.02 11.66 0 12 C0 8.04 0 4.08 0 0 Z " fill="#26C8CB" transform="translate(558,220)"/>
<path d="M0 0 C1.3805087 3.76668598 0.59568159 6.44789173 -0.4375 10.25 C-0.72496094 11.32765625 -1.01242187 12.4053125 -1.30859375 13.515625 C-1.53675781 14.33546875 -1.76492188 15.1553125 -2 16 C-2.66 16 -3.32 16 -4 16 C-4.33 16.99 -4.66 17.98 -5 19 C-2.31451613 5.125 -2.31451613 5.125 0 0 Z " fill="#40CED4" transform="translate(361,171)"/>
<path d="M0 0 C0.99 0.33 1.98 0.66 3 1 C2.67 2.65 2.34 4.3 2 6 C-1.3 6 -4.6 6 -8 6 C-8.33 5.34 -8.66 4.68 -9 4 C-5.7 4 -2.4 4 1 4 C0.67 2.68 0.34 1.36 0 0 Z " fill="#72DADC" transform="translate(479,232)"/>
<path d="M0 0 C0.33 0.99 0.66 1.98 1 3 C1.66 3 2.32 3 3 3 C2.67 3.99 2.34 4.98 2 6 C-0.75 6.6875 -0.75 6.6875 -4 7 C-6.375 5.5625 -6.375 5.5625 -8 4 C-5.36 4.33 -2.72 4.66 0 5 C0 4.34 0 3.68 0 3 C-1.32 2.67 -2.64 2.34 -4 2 C-2.68 1.34 -1.36 0.68 0 0 Z " fill="#6FD4D8" transform="translate(567,231)"/>
<path d="M0 0 C0.66 0 1.32 0 2 0 C2.33 3.63 2.66 7.26 3 11 C2.01 11 1.02 11 0 11 C-1.28571429 3.57142857 -1.28571429 3.57142857 0 0 Z " fill="#2BC8CF" transform="translate(499,224)"/>
<path d="M0 0 C0.66 0 1.32 0 2 0 C2 0.66 2 1.32 2 2 C2.66 2 3.32 2 4 2 C4.33 5.96 4.66 9.92 5 14 C2.42853943 11.42853943 2.19882003 9.3949583 1.375 5.875 C1.11460937 4.77929688 0.85421875 3.68359375 0.5859375 2.5546875 C0.39257812 1.71164063 0.19921875 0.86859375 0 0 Z " fill="#53D2D9" transform="translate(409,176)"/>
<path d="M0 0 C1.32 0 2.64 0 4 0 C4 2.31 4 4.62 4 7 C2.68 7 1.36 7 0 7 C0 4.69 0 2.38 0 0 Z " fill="#44D1D5" transform="translate(139,225)"/>
<path d="M0 0 C2.4375 0.6875 2.4375 0.6875 5 2 C5.8125 4.625 5.8125 4.625 6 7 C4.68 7 3.36 7 2 7 C2 6.34 2 5.68 2 5 C1.01 4.67 0.02 4.34 -1 4 C-0.34 3.67 0.32 3.34 1 3 C0.67 2.01 0.34 1.02 0 0 Z " fill="#54CFD2" transform="translate(289,219)"/>
<path d="M0 0 C0.33 0 0.66 0 1 0 C1 1.98 1 3.96 1 6 C1.66 6 2.32 6 3 6 C2.34 7.32 1.68 8.64 1 10 C-0.32 9.34 -1.64 8.68 -3 8 C-2.01 5.36 -1.02 2.72 0 0 Z " fill="#6AD6DB" transform="translate(254,228)"/>
<path d="M0 0 C0.33 0 0.66 0 1 0 C1 2.64 1 5.28 1 8 C-0.9375 8.5625 -0.9375 8.5625 -3 9 C-4 8 -4 8 -4.0625 4.4375 C-4.041875 3.303125 -4.02125 2.16875 -4 1 C-3.34 1 -2.68 1 -2 1 C-2 2.98 -2 4.96 -2 7 C-1.34 7 -0.68 7 0 7 C0 4.69 0 2.38 0 0 Z " fill="#73D2DD" transform="translate(346,229)"/>
<path d="M0 0 C0.66 0 1.32 0 2 0 C2.33 4.29 2.66 8.58 3 13 C2.01 12.67 1.02 12.34 0 12 C0 8.04 0 4.08 0 0 Z " fill="#21CFD5" transform="translate(187,221)"/>
<path d="M0 0 C1.32 0 2.64 0 4 0 C3.67 2.64 3.34 5.28 3 8 C2.67 6.68 2.34 5.36 2 4 C-0.33075929 4.95865509 -0.33075929 4.95865509 -2 8 C-1.125 1.125 -1.125 1.125 0 0 Z " fill="#5BCFD0" transform="translate(234,220)"/>
<path d="M0 0 C2.48862878 3.23521742 4.75421558 6.59260295 7 10 C6.67 10.66 6.34 11.32 6 12 C3.21882328 10.9802352 2.18166898 10.33608762 0.75 7.6875 C-0.00511726 4.98166314 -0.1595955 2.79292118 0 0 Z " fill="#51D1D5" transform="translate(195,186)"/>
<path d="M0 0 C0.95904856 3.83619425 0.91892116 5.32431536 0 9 C-0.66 9 -1.32 9 -2 9 C-2.33 10.32 -2.66 11.64 -3 13 C-3.66 13 -4.32 13 -5 13 C-5 11.35 -5 9.7 -5 8 C-4.34 8 -3.68 8 -3 8 C-2.01 5.36 -1.02 2.72 0 0 Z " fill="#5BD4DB" transform="translate(379,128)"/>
<path d="M0 0 C0.33 0.66 0.66 1.32 1 2 C1.66 2 2.32 2 3 2 C5.125 3.875 5.125 3.875 7 6 C7 6.66 7 7.32 7 8 C7.66 8.33 8.32 8.66 9 9 C8.01 9.33 7.02 9.66 6 10 C6 9.34 6 8.68 6 8 C5.38125 7.896875 4.7625 7.79375 4.125 7.6875 C2 7 2 7 0 4 C0 2.68 0 1.36 0 0 Z " fill="#58D5D7" transform="translate(499,331)"/>
<path d="M0 0 C-0.66 1.32 -1.32 2.64 -2 4 C-2.66 4 -3.32 4 -4 4 C-4 3.34 -4 2.68 -4 2 C-6.64 2 -9.28 2 -12 2 C-12.33 2.99 -12.66 3.98 -13 5 C-13 3.68 -13 2.36 -13 1 C-11.20994059 0.63779734 -9.41787943 0.28547531 -7.625 -0.0625 C-6.12839844 -0.35833984 -6.12839844 -0.35833984 -4.6015625 -0.66015625 C-2 -1 -2 -1 0 0 Z " fill="#6DD7DE" transform="translate(302,296)"/>
<path d="M0 0 C2.625 -0.1875 2.625 -0.1875 5 0 C4.39816251 2.02045442 3.72693904 4.02111039 3 6 C2.01 6.495 2.01 6.495 1 7 C1 6.01 1 5.02 1 4 C0.01 3.67 -0.98 3.34 -2 3 C-1.34 2.01 -0.68 1.02 0 0 Z " fill="#64D4D6" transform="translate(347,220)"/>
<path d="M0 0 C1.99097846 2.98646769 2.94124926 5.59687262 4 9 C2.68 9.33 1.36 9.66 0 10 C-0.66 8.68 -1.32 7.36 -2 6 C-1.34 6 -0.68 6 0 6 C0 4.02 0 2.04 0 0 Z " fill="#71D5DC" transform="translate(420,228)"/>
<path d="M0 0 C-0.33 0.99 -0.66 1.98 -1 3 C-1.99 3 -2.98 3 -4 3 C-4 3.66 -4 4.32 -4 5 C-7.3 5 -10.6 5 -14 5 C-14 4.67 -14 4.34 -14 4 C-11.69 4 -9.38 4 -7 4 C-7 3.34 -7 2.68 -7 2 C-2.25 0 -2.25 0 0 0 Z " fill="#7CDBE0" transform="translate(332,94)"/>
<path d="M0 0 C2.49361571 1.20381448 4.68143083 2.45428722 7 4 C9.11280345 4.63292383 9.11280345 4.63292383 11 5 C11 5.66 11 6.32 11 7 C9.68 7.33 8.36 7.66 7 8 C7 7.34 7 6.68 7 6 C6.34 6 5.68 6 5 6 C5 5.34 5 4.68 5 4 C4.360625 3.71125 3.72125 3.4225 3.0625 3.125 C1 2 1 2 0 0 Z " fill="#59D9DC" transform="translate(356,80)"/>
<path d="M0 0 C0.79921875 0.11085937 1.5984375 0.22171875 2.421875 0.3359375 C3.32679688 0.47902344 3.32679688 0.47902344 4.25 0.625 C4.25 0.955 4.25 1.285 4.25 1.625 C-0.04 2.285 -4.33 2.945 -8.75 3.625 C-8.75 2.965 -8.75 2.305 -8.75 1.625 C-5.5750906 -0.2828584 -3.64414789 -0.5359041 0 0 Z " fill="#5BD5D9" transform="translate(258.75,57.375)"/>
<path d="M0 0 C1.80030122 2.70045182 2.93377066 5.06677881 4.125 8.0625 C4.47820312 8.94035156 4.83140625 9.81820313 5.1953125 10.72265625 C6 13 6 13 6 15 C5.34 15 4.68 15 4 15 C1.0554321 10.00703705 0.36504064 5.66442374 0 0 Z " fill="#61D7DA" transform="translate(456,251)"/>
<path d="M0 0 C1 2 1 2 0.44140625 3.9453125 C0.15136719 4.66460937 -0.13867188 5.38390625 -0.4375 6.125 C-0.72496094 6.84945312 -1.01242188 7.57390625 -1.30859375 8.3203125 C-1.53675781 8.87460938 -1.76492187 9.42890625 -2 10 C-3.32 9.67 -4.64 9.34 -6 9 C-5.67 8.01 -5.34 7.02 -5 6 C-4.01 6.33 -3.02 6.66 -2 7 C-1.855625 6.030625 -1.71125 5.06125 -1.5625 4.0625 C-1 1 -1 1 0 0 Z " fill="#5CD1D2" transform="translate(235,228)"/>
<path d="M0 0 C1.98 0.99 1.98 0.99 4 2 C4 4.97 4 7.94 4 11 C3.34 11 2.68 11 2 11 C1.34 7.37 0.68 3.74 0 0 Z " fill="#20CECF" transform="translate(342,225)"/>
<path d="M0 0 C2.46301423 2.46301423 2.76766521 4.27360036 3.625 7.625 C3.88539063 8.62789062 4.14578125 9.63078125 4.4140625 10.6640625 C4.60742188 11.43492187 4.80078125 12.20578125 5 13 C3.046875 11.82421875 3.046875 11.82421875 1 10 C0.390625 7.51953125 0.390625 7.51953125 0.25 4.8125 C0.19328125 3.91144531 0.1365625 3.01039063 0.078125 2.08203125 C0.05234375 1.39496094 0.0265625 0.70789063 0 0 Z " fill="#61D4DB" transform="translate(433,186)"/>
<path d="M0 0 C0.66 0 1.32 0 2 0 C1.19642857 8.03571429 1.19642857 8.03571429 -1 12 C-1.02687279 10.18757948 -1.04633715 8.37504767 -1.0625 6.5625 C-1.07410156 5.55316406 -1.08570313 4.54382813 -1.09765625 3.50390625 C-1 1 -1 1 0 0 Z " fill="#57D7DB" transform="translate(374,185)"/>
<path d="M0 0 C2 1 2 1 2.58984375 2.765625 C3.01692392 5.09219507 3.32028738 7.39707739 3.5625 9.75 C3.64628906 10.54921875 3.73007812 11.3484375 3.81640625 12.171875 C3.87699219 12.77515625 3.93757813 13.3784375 4 14 C0.73262697 10.73262697 0.04327104 7.16831802 -0.125 2.625 C-0.08375 1.75875 -0.0425 0.8925 0 0 Z " fill="#55D3D7" transform="translate(434,246)"/>
<path d="M0 0 C0.99 0.33 1.98 0.66 3 1 C3.33 2.32 3.66 3.64 4 5 C1.03 5 -1.94 5 -5 5 C-3.35 3.35 -1.7 1.7 0 0 Z " fill="#2FCAD5" transform="translate(476,231)"/>
<path d="M0 0 C2.875 -0.125 2.875 -0.125 6 0 C6.66 0.66 7.32 1.32 8 2 C3.25 5 3.25 5 1 5 C0.67 3.35 0.34 1.7 0 0 Z " fill="#40C8CD" transform="translate(530,232)"/>
<path d="M0 0 C0.33 0 0.66 0 1 0 C0.67 2.64 0.34 5.28 0 8 C-0.66 8 -1.32 8 -2 8 C-2.33 8.66 -2.66 9.32 -3 10 C-3 7.69 -3 5.38 -3 3 C-2.01 2.67 -1.02 2.34 0 2 C0 1.34 0 0.68 0 0 Z " fill="#2FCDD0" transform="translate(383,148)"/>
<path d="M0 0 C1.65 0.99 3.3 1.98 5 3 C3.68 3.33 2.36 3.66 1 4 C0.67 2.68 0.34 1.36 0 0 Z M-5 5 C-3.35 5 -1.7 5 0 5 C-0.33 5.99 -0.66 6.98 -1 8 C-2.32 7.34 -3.64 6.68 -5 6 C-5 5.67 -5 5.34 -5 5 Z " fill="#62DCDF" transform="translate(352,108)"/>
<path d="M0 0 C2.5 1.3125 2.5 1.3125 5 3 C5 3.99 5 4.98 5 6 C3.02 6 1.04 6 -1 6 C-1 5.34 -1 4.68 -1 4 C-0.34 4 0.32 4 1 4 C0.67 2.68 0.34 1.36 0 0 Z " fill="#39D0D2" transform="translate(395,106)"/>
<path d="M0 0 C0.99 0.33 1.98 0.66 3 1 C0.69 3.97 -1.62 6.94 -4 10 C-4.33 9.01 -4.66 8.02 -5 7 C-4.00390625 5.17578125 -4.00390625 5.17578125 -2.5625 3.3125 C-2.08941406 2.68988281 -1.61632812 2.06726563 -1.12890625 1.42578125 C-0.75636719 0.95527344 -0.38382813 0.48476562 0 0 Z " fill="#5AD4D4" transform="translate(208,84)"/>
<path d="M0 0 C3.08089673 2.77280706 4.68775452 5.06326356 6 9 C5.01 8.67 4.02 8.34 3 8 C3 7.34 3 6.68 3 6 C2.01 6 1.02 6 0 6 C0 4.02 0 2.04 0 0 Z " fill="#59D6D5" transform="translate(363,72)"/>
<path d="M0 0 C3.48331435 3.01887244 4.79157144 5.56909529 6 10 C5.34 10 4.68 10 4 10 C1.04696841 6.92884715 0.47348414 4.1666604 0 0 Z " fill="#58D2D4" transform="translate(478,302)"/>
<path d="M0 0 C0.33 0 0.66 0 1 0 C1.08075665 2.29109597 1.13907731 4.58299267 1.1875 6.875 C1.22230469 8.15117187 1.25710937 9.42734375 1.29296875 10.7421875 C1.19628906 11.81726563 1.09960938 12.89234375 1 14 C0.01 14.66 -0.98 15.32 -2 16 C-2.33 15.01 -2.66 14.02 -3 13 C-2.34 12.67 -1.68 12.34 -1 12 C-0.53101037 9.1840151 -0.53101037 9.1840151 -0.375 5.9375 C-0.30023438 4.83277344 -0.22546875 3.72804687 -0.1484375 2.58984375 C-0.09945312 1.73519531 -0.05046875 0.88054687 0 0 Z " fill="#5BD1DA" transform="translate(199,220)"/>
<path d="M0 0 C1.9375 1.4375 1.9375 1.4375 2.6875 4.5625 C2.77 5.51125 2.8525 6.46 2.9375 7.4375 C1.9475 6.7775 0.9575 6.1175 -0.0625 5.4375 C-0.0625 4.1175 -0.0625 2.7975 -0.0625 1.4375 C-1.3825 1.7675 -2.7025 2.0975 -4.0625 2.4375 C-4.0625 1.7775 -4.0625 1.1175 -4.0625 0.4375 C-2.0625 -0.5625 -2.0625 -0.5625 0 0 Z " fill="#6AD5D7" transform="translate(228.0625,219.5625)"/>
<path d="M0 0 C2.27795022 2.27795022 3.05219877 3.93787293 4 7 C3.625 9.3125 3.625 9.3125 3 11 C0.39665076 8.28817788 0.00543309 7.10866187 -0.1875 3.25 C-0.125625 2.1775 -0.06375 1.105 0 0 Z " fill="#61D3D9" transform="translate(423,158)"/>
<path d="M0 0 C0.66 0 1.32 0 2 0 C2.3125 2.25 2.3125 2.25 2 5 C-0.5 7.3125 -0.5 7.3125 -3 9 C-2.01 6.03 -1.02 3.06 0 0 Z " fill="#67D5D9" transform="translate(321,267)"/>
<path d="M0 0 C0.99 0.495 0.99 0.495 2 1 C2.4140625 3.06640625 2.4140625 3.06640625 2.625 5.5625 C2.69976562 6.38878906 2.77453125 7.21507812 2.8515625 8.06640625 C2.92503906 9.02353516 2.92503906 9.02353516 3 10 C2.01 9.67 1.02 9.34 0 9 C0 6.03 0 3.06 0 0 Z " fill="#26CBD1" transform="translate(128,224)"/>
<path d="M0 0 C0.66 0.33 1.32 0.66 2 1 C2.625 3.5625 2.625 3.5625 3 6 C2.34 6 1.68 6 1 6 C0.67 6.99 0.34 7.98 0 9 C-0.99 8.67 -1.98 8.34 -3 8 C-2.34 8 -1.68 8 -1 8 C-0.67 5.36 -0.34 2.72 0 0 Z " fill="#34D2D4" transform="translate(437,199)"/>
<path d="M0 0 C1.90389849 2.85584773 2.69462177 4.9311762 3.625 8.1875 C4.01558594 9.53908203 4.01558594 9.53908203 4.4140625 10.91796875 C4.60742188 11.60503906 4.80078125 12.29210937 5 13 C2.53686261 11.17251097 1.16571382 9.77023784 0.51171875 6.73046875 C0.27481707 4.48520654 0.09638651 2.25544422 0 0 Z " fill="#62D1D6" transform="translate(190,173)"/>
<path d="M0 0 C2.2344598 4.03292745 2.54496743 7.44967434 3 12 C0.89366282 10.29171079 0.06198392 9.47851584 -0.29296875 6.73828125 C-0.25816406 5.93777344 -0.22335938 5.13726562 -0.1875 4.3125 C-0.16042969 3.50425781 -0.13335937 2.69601563 -0.10546875 1.86328125 C-0.07066406 1.24839844 -0.03585938 0.63351563 0 0 Z " fill="#51D0D2" transform="translate(187,160)"/>
<path d="M0 0 C0 3.28176588 -0.47835901 5.10888212 -2 8 C-4.125 8.8125 -4.125 8.8125 -6 9 C-4.68775452 5.06326356 -3.08089673 2.77280706 0 0 Z " fill="#60D3D8" transform="translate(207,67)"/>
<path d="M0 0 C3.3 0.99 6.6 1.98 10 3 C9.67 3.66 9.34 4.32 9 5 C3.48387097 4.38709677 3.48387097 4.38709677 1.125 2.5 C0 1 0 1 0 0 Z " fill="#5ED6DA" transform="translate(127,233)"/>
<path d="M0 0 C0 1.65 0 3.3 0 5 C-1.65 5 -3.3 5 -5 5 C-4.6875 3.0625 -4.6875 3.0625 -4 1 C-1 0 -1 0 0 0 Z " fill="#2BD4D1" transform="translate(321,225)"/>
<path d="M0 0 C1.10844919 3.32534757 0.84454356 5.62182575 0 9 C-0.99 8.67 -1.98 8.34 -3 8 C-1.125 2.25 -1.125 2.25 0 0 Z " fill="#47D2D4" transform="translate(365,163)"/>
<path d="M0 0 C1.32 0.99 2.64 1.98 4 3 C3.67 3.99 3.34 4.98 3 6 C2.01 6 1.02 6 0 6 C-0.38218767 4.34385343 -0.71395102 2.67542976 -1 1 C-0.67 0.67 -0.34 0.34 0 0 Z " fill="#0ED3D7" transform="translate(355,113)"/>
<path d="M0 0 C0.99 0.33 1.98 0.66 3 1 C0.525 5.455 0.525 5.455 -2 10 C-3 8 -3 8 -2.125 5 C-1 2 -1 2 0 0 Z " fill="#70D8DC" transform="translate(197,100)"/>
<path d="M0 0 C2.97 0 5.94 0 9 0 C5.81237635 2.12508244 3.73487777 2.5020163 0 3 C0 2.01 0 1.02 0 0 Z " fill="#55D4D8" transform="translate(310,253)"/>
<path d="M0 0 C0.66 0 1.32 0 2 0 C1.45276317 3.37462715 0.9451 5.08235 -1 8 C-1.93065133 5.39417629 -2.14917407 4.35801776 -1.0625 1.75 C-0.711875 1.1725 -0.36125 0.595 0 0 Z " fill="#28CBD2" transform="translate(234,224)"/>
<path d="M0 0 C0.99 0.33 1.98 0.66 3 1 C3 2.32 3 3.64 3 5 C1.68 5 0.36 5 -1 5 C-0.67 3.35 -0.34 1.7 0 0 Z " fill="#1AD0D6" transform="translate(259,221)"/>
<path d="M0 0 C0.99 0.99 1.98 1.98 3 3 C2.01 3.33 1.02 3.66 0 4 C-1.68538601 5.99665314 -1.68538601 5.99665314 -3 8 C-3 6.02 -3 4.04 -3 2 C-2.01 2 -1.02 2 0 2 C0 1.34 0 0.68 0 0 Z " fill="#26CBD0" transform="translate(288,220)"/>
<path d="M0 0 C0.99 0 1.98 0 3 0 C3 0.99 3 1.98 3 3 C2.34 3 1.68 3 1 3 C1 5.97 1 8.94 1 12 C0.67 12 0.34 12 0 12 C0 8.04 0 4.08 0 0 Z " fill="#3BC4C8" transform="translate(196,220)"/>
<path d="M0 0 C0.33 0.99 0.66 1.98 1 3 C1.66 3 2.32 3 3 3 C3 4.98 3 6.96 3 9 C2.34 9 1.68 9 1 9 C0.67 6.03 0.34 3.06 0 0 Z " fill="#45D0D4" transform="translate(400,146)"/>
<path d="M0 0 C4.42857143 5.14285714 4.42857143 5.14285714 5 9 C4.34 9 3.68 9 3 9 C0.56839395 5.63316085 0 4.26649636 0 0 Z " fill="#70D6DD" transform="translate(369,126)"/>
<path d="M0 0 C2.97 0.495 2.97 0.495 6 1 C6 1.99 6 2.98 6 4 C4.35 3.67 2.7 3.34 1 3 C0.67 2.01 0.34 1.02 0 0 Z " fill="#13D2DA" transform="translate(342,106)"/>
<path d="M0 0 C0.6875 1.6875 0.6875 1.6875 1 4 C-0.3125 6.75 -0.3125 6.75 -2 9 C-2.66 9 -3.32 9 -4 9 C-2.94124926 5.59687262 -1.99097846 2.98646769 0 0 Z " fill="#54D0D4" transform="translate(195,83)"/>
<path d="M0 0 C2.97 0.495 2.97 0.495 6 1 C6 1.99 6 2.98 6 4 C6.66 4 7.32 4 8 4 C7.67 4.66 7.34 5.32 7 6 C5.83054208 5.19152271 4.66449539 4.37810888 3.5 3.5625 C2.8503125 3.11003906 2.200625 2.65757812 1.53125 2.19140625 C1.0259375 1.79824219 0.520625 1.40507812 0 1 C0 0.67 0 0.34 0 0 Z " fill="#63D4DB" transform="translate(486,343)"/>
<path d="M0 0 C1.5625 1.8125 1.5625 1.8125 3 4 C2.67 4.99 2.34 5.98 2 7 C0.0625 6.625 0.0625 6.625 -2 6 C-2.33 5.34 -2.66 4.68 -3 4 C-2.01 4 -1.02 4 0 4 C0 2.68 0 1.36 0 0 Z " fill="#90D6E0" transform="translate(266,231)"/>
<path d="M0 0 C0.33 1.32 0.66 2.64 1 4 C1.99 3.67 2.98 3.34 4 3 C3.34 4.32 2.68 5.64 2 7 C1.01 6.67 0.02 6.34 -1 6 C-0.67 4.02 -0.34 2.04 0 0 Z " fill="#75D1DC" transform="translate(408,231)"/>
<path d="M0 0 C2.64 0.33 5.28 0.66 8 1 C8 1.66 8 2.32 8 3 C5.69 3 3.38 3 1 3 C0.67 2.01 0.34 1.02 0 0 Z " fill="#24CCD2" transform="translate(285,233)"/>
<path d="M0 0 C0.66 0 1.32 0 2 0 C2.625 3.375 2.625 3.375 3 7 C2.34 7.66 1.68 8.32 1 9 C0.63877119 7.68942607 0.28619689 6.37646376 -0.0625 5.0625 C-0.35833984 3.96615234 -0.35833984 3.96615234 -0.66015625 2.84765625 C-0.77230469 2.23792969 -0.88445312 1.62820312 -1 1 C-0.67 0.67 -0.34 0.34 0 0 Z " fill="#73D9E3" transform="translate(293,226)"/>
<path d="M0 0 C0.66 0 1.32 0 2 0 C2 2.31 2 4.62 2 7 C1.01 6.67 0.02 6.34 -1 6 C-0.67 4.02 -0.34 2.04 0 0 Z " fill="#24D5DE" transform="translate(221,228)"/>
<path d="M0 0 C1.39195915 4.17587745 -0.17676781 6.13474776 -2 10 C-2.33 10 -2.66 10 -3 10 C-2.25 2.25 -2.25 2.25 0 0 Z " fill="#6AD7DA" transform="translate(372,197)"/>
<path d="M0 0 C0.33 0.66 0.66 1.32 1 2 C1.66 2 2.32 2 3 2 C3.66 4.31 4.32 6.62 5 9 C4.34 8.67 3.68 8.34 3 8 C3 7.34 3 6.68 3 6 C2.34 6 1.68 6 1 6 C0.67 4.02 0.34 2.04 0 0 Z " fill="#55D4D7" transform="translate(414,190)"/>
</svg>
