<?xml version="1.0" encoding="utf-8"?>
<!-- Generator: Adobe Illustrator 27.5.0, SVG Export Plug-In . SVG Version: 6.00 Build 0)  -->
<svg version="1.1" id="Layer_1" xmlns="http://www.w3.org/2000/svg" xmlns:xlink="http://www.w3.org/1999/xlink" x="0px" y="0px"
	 viewBox="0 0 418.438 510.492" style="enable-background:new 0 0 418.438 510.492;" xml:space="preserve">
<g>
	<g>
		<g>
			<path style="fill:#B66D4A;" d="M119.595,362.878c1.03,2.026,2.334,3.941,3.646,5.792c5.552,7.831,12.547,14.591,19.96,20.647
				c13.563,11.079,29.865,18.44,47.045,21.713c8.572,1.633,17.471,2.415,26.194,1.946c8.405-0.452,16.722-2.203,24.63-5.074
				c7.994-2.902,15.566-6.954,22.457-11.935c6.925-5.005,12.839-10.956,18.368-17.439c5.845-6.852,11.44-13.961,16.16-21.645
				c0.296-0.481,0.588-0.965,0.876-1.451c-11.494-5.928-39.973-15.3-46.006-28.087c-6.059-12.844-0.989-81.48-0.989-81.48h-83.435
				c0,0,5.616,74.083-3.688,83.387c-11.256,11.256-38.666,23.534-47.632,28.07C117.911,359.206,118.679,361.077,119.595,362.878z"/>
			<path style="opacity:0.64;fill:#EFB291;" d="M170.03,300.173c1.969,1.673,3.855,3.45,5.848,5.093
				c3.39,2.796,7.274,4.903,11.259,6.728c7.935,3.633,16.538,5.683,25.27,5.823c7.241,0.117,14.498-0.905,21.462-2.874
				c5.676-1.605,11.182-3.867,16.301-6.806c-1.005-24.75,1.767-62.272,1.767-62.272h-83.434
				C168.503,245.865,170.782,275.941,170.03,300.173z"/>
			<path style="opacity:0.64;fill:#EFB291;" d="M258.547,334.281c-0.248,2.563-0.573,5.117-1.002,7.657
				c-1.03,6.089-2.649,12.115-5.24,17.735c-2.497,5.417-5.949,10.361-10.441,14.309c-4.255,3.741-9.228,6.597-14.518,8.602
				c-5.386,2.041-11.098,3.197-16.843,3.551c-5.782,0.357-11.625-0.105-17.273-1.399c-5.552-1.272-11.017-3.354-15.845-6.4
				c-5.05-3.186-9.149-7.641-11.682-13.065c-3.07-6.574-4.039-13.86-4.832-20.996c-0.372-3.352-0.134-6.675-0.001-10.034
				c0.02-0.509,0.038-1.021,0.049-1.535c-12.74,10.218-35.681,20.542-43.736,24.618c0.728,1.884,1.496,3.755,2.412,5.556
				c1.03,2.026,2.334,3.941,3.646,5.792c5.552,7.831,12.547,14.591,19.96,20.647c13.563,11.08,29.865,18.44,47.045,21.713
				c8.572,1.633,17.471,2.415,26.194,1.946c8.405-0.452,16.722-2.203,24.63-5.074c7.994-2.902,15.566-6.954,22.457-11.935
				c6.925-5.005,12.839-10.956,18.368-17.439c5.845-6.852,11.44-13.962,16.16-21.645c0.296-0.481,0.588-0.965,0.876-1.451
				C289.628,350.634,269.195,343.578,258.547,334.281z"/>
			<path style="fill:#4D4D4F;" d="M412.161,502.835c-3.101-15.249-15.953-97.977-25.469-110.891
				c-10.113-13.724-89.706-41.302-121.743-56.605c0.359,1.128,0.673,2.271,0.934,3.426c1.143,5.066,1.388,10.319,0.922,15.485
				c-0.469,5.208-1.643,10.355-3.471,15.254c-1.756,4.709-4.11,9.221-7.145,13.236c-2.616,3.461-5.776,6.444-9.314,8.949
				c-3.68,2.606-7.72,4.681-11.919,6.31c-4.378,1.698-8.944,2.907-13.576,3.67c-2.701,0.445-5.427,0.737-8.16,0.881v-0.192
				c-1.437,0.131-2.877,0.223-4.318,0.266c-0.281,0.008-0.563,0.01-0.844,0.015c-0.281-0.005-0.563-0.007-0.844-0.015
				c-1.441-0.043-2.881-0.135-4.318-0.266v0.192c-2.733-0.144-5.459-0.436-8.16-0.881c-4.632-0.763-9.198-1.972-13.577-3.67
				c-4.2-1.629-8.239-3.704-11.919-6.31c-3.538-2.505-6.698-5.488-9.314-8.949c-3.035-4.014-5.388-8.527-7.145-13.236
				c-1.827-4.899-3.001-10.046-3.471-15.254c-0.465-5.165-0.221-10.419,0.922-15.485c0.261-1.155,0.575-2.298,0.934-3.426
				c-32.037,15.303-105.923,40.422-116.035,54.146c-8.858,12.022-24.033,89.922-28.854,113.35H412.161z"/>
			<path style="fill:#323234;" d="M257.317,330.278c0.583,7.819,1.159,32.208-12.372,47.477c-3.732,4.211-8.354,7.472-13.74,9.692
				c-6.38,2.63-14.04,3.9-22.762,3.781c-16.591-0.23-29.076-5.203-37.108-14.781c-12.35-14.726-11.845-35.333-11.114-44.012
				c-0.007,0.003,0.148-0.94,0.141-0.937c-5.79,2.276-11.577,4.536-17.237,7.12c-0.036,13.289,2.158,33.062,15.158,48.628
				c11.341,13.58,28.138,20.619,49.925,20.921c0.465,0.006,0.928,0.01,1.388,0.01c20.633,0,36.811-6.478,48.098-19.266
				c13.922-15.773,16.614-36.046,16.77-49.543C271.466,337.025,259.781,331.999,257.317,330.278z"/>
		</g>
		<path style="fill:#C4C6C8;" d="M92.544,502.835c-0.014-0.405-0.03-0.811-0.043-1.216c-0.095-2.829-0.16-5.659-0.219-8.489
			c-0.114-5.518-0.372-11.046-0.162-16.563c0.202-5.317,0.634-10.623,0.821-15.94c0.16-4.541,0.157-9.116-0.378-13.634
			c-0.649,4.593-1.417,9.169-2.131,13.752c-1.484,9.526-2.508,19.139-2.598,28.787c-0.042,4.438,0.089,8.872,0.287,13.304H92.544z"
			/>
		<path style="fill:#C4C6C8;" d="M329.86,502.835c0.014-0.405,0.03-0.811,0.043-1.216c0.095-2.829,0.16-5.659,0.219-8.489
			c0.114-5.518,0.372-11.046,0.162-16.563c-0.202-5.317-0.634-10.623-0.821-15.94c-0.16-4.541-0.157-9.116,0.378-13.634
			c0.649,4.593,1.417,9.169,2.131,13.752c1.484,9.526,2.508,19.139,2.598,28.787c0.042,4.438-0.089,8.872-0.287,13.304H329.86z"/>
	</g>
	<g>
		<g>
			<g>
				<g>
					<g>
						<g>
							<path style="fill:#B56D51;" d="M321.135,193.291c-3.068-9.767-13.933-14.619-24.089-10.87
								c-5.809,2.144-10.024,7.479-12.387,12.719c-1.377,3.054-2.158,6.369-2.561,9.661c-2.086,5.908-3.044,12.383-2.606,18.537
								c0.311,4.358,0.957,12.338,5.738,14.676c4.662,2.28,11.988-1.542,15.908-3.827c4.976-2.9,9.067-6.957,12.383-11.458
								C319.765,214.255,324.379,203.616,321.135,193.291z"/>
							<path style="opacity:0.39;fill:#A5653F;" d="M290.142,238.601c0.629-2.199,1.229-4.407,1.79-6.624
								c2.238-8.842,3.951-17.856,4.626-26.956c0.543-7.318,0.436-14.766-0.908-22.001c-5.089,2.429-8.822,7.311-10.991,12.12
								c-1.377,3.054-2.158,6.369-2.561,9.661c-2.086,5.908-3.044,12.383-2.606,18.537c0.311,4.358,0.957,12.338,5.738,14.676
								C286.673,238.718,288.37,238.838,290.142,238.601z"/>
							<path style="opacity:0.67;fill:#EB936D;" d="M316.294,193.628c-1.131-1.846-3.18-2.926-5.304-3.183
								c-4.889-0.592-9.884,2.834-12.95,6.281c-6.824,7.672-8.023,18.726-8.345,28.509c-0.019,0.572,0.828,0.169,0.887-0.23
								c0.232-1.578,0.467-3.182,0.725-4.793c0.201,1.151,0.494,2.28,0.784,3.292c0.569,1.987,1.836,3.746,4.068,3.85
								c5.387,0.251,9.072-6.112,11.65-9.756c0.242-0.342-0.303-0.437-0.506-0.204c-2.409,2.772-4.898,6.404-8.507,7.746
								c-2.905,1.08-4.213-0.995-5.022-3.361c-0.666-1.95-1.717-4.208-1.289-6.287c0.059-0.288-0.056-0.437-0.23-0.488
								c0.997-4.777,2.415-9.467,4.85-13.632c2.115-3.617,5.337-6.922,9.462-8.235c2.81-0.894,5.883-0.448,7.636,2.091
								c1.637,2.371,1.16,5.514,1.571,8.234c0.049,0.323,0.572,0.009,0.582-0.217C316.506,200.043,318.145,196.648,316.294,193.628z
								"/>
						</g>
						<g>
							<path style="fill:#B56D51;" d="M112.765,222.729c3.316,4.501,7.407,8.558,12.383,11.458
								c3.92,2.284,11.247,6.106,15.908,3.827c4.781-2.338,5.427-10.318,5.738-14.676c0.439-6.153-0.52-12.629-2.606-18.537
								c-0.403-3.292-1.183-6.607-2.561-9.661c-2.363-5.24-6.578-10.575-12.387-12.719c-10.156-3.749-21.021,1.103-24.089,10.87
								C101.908,203.616,106.522,214.255,112.765,222.729z"/>
							<path style="opacity:0.39;fill:#A5653F;" d="M136.145,238.601c-0.629-2.199-1.229-4.407-1.79-6.624
								c-2.238-8.842-3.951-17.856-4.626-26.956c-0.543-7.318-0.436-14.766,0.908-22.001c5.089,2.429,8.822,7.311,10.991,12.12
								c1.377,3.054,2.158,6.369,2.561,9.661c2.086,5.908,3.044,12.383,2.606,18.537c-0.311,4.358-0.957,12.338-5.738,14.676
								C139.614,238.718,137.917,238.838,136.145,238.601z"/>
							<path style="opacity:0.67;fill:#EB936D;" d="M109.993,193.628c1.131-1.846,3.179-2.926,5.304-3.183
								c4.889-0.592,9.884,2.834,12.95,6.281c6.824,7.672,8.023,18.726,8.345,28.509c0.019,0.572-0.828,0.169-0.887-0.23
								c-0.232-1.578-0.467-3.182-0.725-4.793c-0.201,1.151-0.494,2.28-0.784,3.292c-0.569,1.987-1.836,3.746-4.068,3.85
								c-5.387,0.251-9.072-6.112-11.65-9.756c-0.242-0.342,0.303-0.437,0.506-0.204c2.409,2.772,4.898,6.404,8.507,7.746
								c2.905,1.08,4.213-0.995,5.022-3.361c0.666-1.95,1.717-4.208,1.289-6.287c-0.059-0.288,0.055-0.437,0.23-0.488
								c-0.997-4.777-2.415-9.467-4.85-13.632c-2.115-3.617-5.337-6.922-9.463-8.235c-2.809-0.894-5.883-0.448-7.636,2.091
								c-1.637,2.371-1.16,5.514-1.571,8.234c-0.049,0.323-0.572,0.009-0.582-0.217
								C109.781,200.043,108.142,196.648,109.993,193.628z"/>
						</g>
						<path style="fill:#B56D51;" d="M298.965,158.862c1.553-17.465,2.537-34.964,1.268-52.496
							c-0.848-11.724-3.172-24.34-11.955-32.366c-4.012-3.666-9.059-6.049-14.143-8.077c-28.487-11.363-63.554-14-93.268-5.664
							c-14.393,4.038-27.771,11.157-39.726,19.973c-4.738,3.494-9.081,7.406-12.182,11.886c-0.631,1.425-1.164,2.892-1.568,4.394
							c-0.516,1.922-0.644,3.913-0.775,5.89c-2.127,32.074,0.993,64.215,5.789,95.933c2.058,13.614,4.676,27.097,6.778,40.743
							c2.105,13.666,4.081,31.657,15.212,41.223c6.16,5.294,13.062,9.673,19.942,14.005c6.711,4.226,13.194,8.995,20.442,12.324
							c9.017,4.142,19.723,5.358,29.537,2.712c10.306-2.779,18.897-9.469,27.738-15.036c6.88-4.332,13.782-8.711,19.942-14.005
							c2.7-2.32,4.994-4.866,6.725-7.963c1.662-2.974,2.831-6.189,3.73-9.454c6.981-25.348,11.395-51.426,13.938-77.547
							C297.248,176.521,298.179,167.696,298.965,158.862z"/>
						<path style="opacity:0.23;fill:#EA95A2;" d="M239.295,253.537c-3.3-0.317-6.586-0.669-9.898-0.854
							c-6.576-0.368-13.171-0.341-19.748-0.001c-3.183,0.165-6.388,0.34-9.555,0.704c-1.068,0.123-2.255,0.451-3.343,0.712
							c-3.449,0.826-6.91,1.701-10.441,2.099c-1.375,0.155-2.801,0.253-4.178,0.037c2.319,4.668,6.66,7.727,11.423,9.575
							c2.47,0.959,5.043,1.635,7.638,2.157c2.449,0.493,4.931,0.894,7.421,1.099c5.072,0.417,10.22,0.08,15.203-0.944
							c5.091-1.046,10.083-2.821,14.51-5.573c3.412-2.121,6.434-4.853,8.692-8.158C244.435,254.283,241.865,253.784,239.295,253.537
							z"/>
						<path style="opacity:0.39;fill:#A5653F;" d="M207.595,232.942c-3.413-0.475-6.713-1.476-9.883-2.781
							c0.259,1.31,0.888,2.552,1.798,3.636c1.545,1.839,3.654,3.215,5.887,4.129c2.055,0.841,4.386,1.392,6.622,1.114
							c2.82-0.351,5.583-1.393,7.975-2.883c2.103-1.31,4.049-3.087,5.097-5.331c-2.02,0.749-4.089,1.368-6.208,1.786
							C215.163,233.345,211.353,233.465,207.595,232.942z"/>
						<g>
							<g>
								<path style="fill:#FFFFFF;" d="M278.815,189.548c-2.205-3.141-5.011-5.943-8.373-7.9c-3.853-2.242-8.263-3.439-12.72-3.756
									c-0.369-0.026-0.739-0.04-1.11-0.048c-2.232,0.214-4.397,0.625-6.411,1.223c-2.693,0.8-5.077,2.047-7.054,3.642
									c-2.742,2.499-4.685,5.53-5.906,8.81c-1.208,3.245-1.795,6.655-2.139,10.087c2.466,1.428,5.258,2.459,8.077,3.219
									c3.709,1,7.544,1.582,11.36,1.892c1.667,0.135,3.339,0.218,5.007,0.248c2.17-0.198,4.322-0.54,6.422-1.028
									c1.103-0.257,2.197-0.56,3.277-0.904c4.454-2.341,8.599-5.282,12.299-8.65c0.05-0.675,0.074-1.353,0.074-2.033
									C280.814,192.68,279.883,191.069,278.815,189.548z"/>
								<g>
									<g>
										<path style="fill:#AA562B;" d="M271.21,194.188c-1.656,7.356-9.098,12.006-16.622,10.387
											c-7.524-1.619-12.28-8.895-10.624-16.251c1.656-7.356,9.098-12.006,16.622-10.387
											C268.11,179.556,272.867,186.832,271.21,194.188z"/>
										<path style="fill:#4A1A05;" d="M267.732,193.439c-1.233,5.477-6.775,8.94-12.377,7.734
											c-5.602-1.206-9.144-6.623-7.911-12.101c1.233-5.477,6.775-8.94,12.377-7.734
											C265.423,182.544,268.965,187.962,267.732,193.439z"/>
										<path style="fill:#FFFFFF;" d="M257.514,185.499c-0.488,2.169-2.683,3.541-4.902,3.063
											c-2.219-0.477-3.621-2.623-3.133-4.792c0.488-2.169,2.683-3.541,4.902-3.063
											C256.6,181.184,258.003,183.33,257.514,185.499z"/>
										<path style="fill:#FFFFFF;" d="M249.016,189.764c-0.144,0.641-0.792,1.045-1.447,0.904
											c-0.655-0.141-1.069-0.775-0.925-1.415c0.144-0.641,0.792-1.046,1.447-0.904
											C248.746,188.49,249.16,189.123,249.016,189.764z"/>
									</g>
								</g>
								<path style="fill:#594234;" d="M276.186,200.577c-1.619,1.34-3.609,2.153-5.546,2.959c-2.279,0.948-4.61,1.733-7.04,2.215
									c-5.162,1.024-10.358,0.564-15.513-0.269c-2.81-0.454-5.726-0.959-8.415-1.893c-0.05-0.018-0.145,0.069-0.084,0.105
									c2.168,1.301,4.618,1.912,7.064,2.505c2.761,0.669,5.639,1.008,8.471,1.234c2.572,0.205,5.167,0.062,7.707-0.377
									c2.566-0.444,5.181-1.148,7.538-2.248c1.139-0.532,2.293-1.098,3.368-1.746c0.976-0.588,2.08-1.353,2.672-2.336
									C276.499,200.573,276.307,200.476,276.186,200.577z"/>
							</g>
							<path style="fill:#360E00;" d="M279.131,186.598c-0.738-0.88-1.515-1.712-2.307-2.474c-3.337-3.214-7.446-5.629-11.979-6.833
								c-4.588-1.219-9.635-1.245-14.207,0.061c-4.807,1.373-9.199,4.318-12.028,8.389c-0.337,0.484-0.643,0.982-0.932,1.489
								c-1.868,3.562-2.76,7.607-2.339,11.58c0.186-0.684,0.378-1.367,0.587-2.044c0.187-0.841,0.389-1.675,0.638-2.507
								c0.706-2.359,1.503-4.644,2.824-6.751c2.379-3.793,6.098-6.609,10.377-8.082c8.343-2.87,17.833-0.467,24.361,5.132
								c1.931,1.656,3.658,3.589,5.112,5.659c0.708,1.009,1.384,2.059,1.985,3.147C280.827,191.042,280.146,188.74,279.131,186.598z
								"/>
						</g>
						<g>
							<g>
								<path style="fill:#FFFFFF;" d="M151.688,189.994c2.205-3.141,5.011-5.943,8.372-7.9c3.853-2.242,8.263-3.439,12.72-3.756
									c0.369-0.026,0.739-0.04,1.11-0.048c2.232,0.214,4.397,0.625,6.411,1.223c2.693,0.8,5.077,2.047,7.054,3.642
									c2.742,2.499,4.685,5.53,5.906,8.81c1.208,3.245,1.795,6.655,2.139,10.087c-2.466,1.428-5.258,2.459-8.077,3.219
									c-3.709,1-7.544,1.582-11.36,1.892c-1.668,0.135-3.339,0.218-5.007,0.247c-2.17-0.198-4.322-0.54-6.422-1.028
									c-1.103-0.257-2.197-0.56-3.277-0.904c-4.454-2.341-8.599-5.282-12.298-8.65c-0.05-0.675-0.074-1.353-0.074-2.033
									C149.688,193.126,150.62,191.515,151.688,189.994z"/>
								<g>
									<g>
										<path style="fill:#AA562B;" d="M187.084,194.68c-1.649,7.323-9.057,11.952-16.547,10.34
											c-7.49-1.612-12.225-8.855-10.576-16.177c1.649-7.323,9.057-11.952,16.547-10.34
											C183.998,180.115,188.733,187.358,187.084,194.68z"/>
										<path style="fill:#4A1A05;" d="M183.621,193.935c-1.228,5.453-6.744,8.9-12.321,7.699
											c-5.577-1.2-9.103-6.594-7.875-12.046c1.228-5.452,6.744-8.9,12.321-7.699
											C181.323,183.089,184.848,188.483,183.621,193.935z"/>
										<path style="fill:#FFFFFF;" d="M173.449,186.031c-0.486,2.159-2.671,3.525-4.879,3.049
											c-2.209-0.475-3.605-2.611-3.119-4.771c0.486-2.159,2.671-3.525,4.88-3.049
											C172.539,181.736,173.936,183.872,173.449,186.031z"/>
										<path style="fill:#FFFFFF;" d="M164.99,190.277c-0.144,0.638-0.789,1.041-1.441,0.9c-0.652-0.14-1.064-0.771-0.921-1.409
											c0.144-0.638,0.789-1.041,1.441-0.9C164.721,189.009,165.133,189.639,164.99,190.277z"/>
									</g>
								</g>
								<path style="fill:#594234;" d="M154.317,201.023c1.619,1.339,3.609,2.153,5.546,2.959c2.279,0.948,4.609,1.733,7.04,2.215
									c5.161,1.024,10.358,0.564,15.513-0.269c2.81-0.454,5.726-0.959,8.415-1.893c0.051-0.018,0.145,0.069,0.084,0.105
									c-2.168,1.301-4.618,1.912-7.064,2.505c-2.761,0.669-5.639,1.008-8.471,1.234c-2.572,0.205-5.167,0.062-7.707-0.377
									c-2.566-0.444-5.181-1.148-7.538-2.248c-1.139-0.532-2.293-1.098-3.368-1.746c-0.975-0.588-2.08-1.353-2.672-2.336
									C154.003,201.019,154.195,200.922,154.317,201.023z"/>
							</g>
							<path style="fill:#360E00;" d="M151.371,187.044c0.738-0.88,1.516-1.712,2.307-2.474c3.337-3.214,7.446-5.629,11.979-6.833
								c4.588-1.219,9.635-1.245,14.207,0.061c4.807,1.373,9.199,4.318,12.028,8.389c0.337,0.484,0.643,0.982,0.932,1.489
								c1.868,3.562,2.759,7.607,2.339,11.58c-0.186-0.684-0.377-1.367-0.587-2.044c-0.187-0.841-0.389-1.675-0.638-2.507
								c-0.706-2.359-1.503-4.644-2.824-6.75c-2.379-3.793-6.098-6.609-10.378-8.082c-8.343-2.87-17.833-0.467-24.361,5.132
								c-1.931,1.656-3.658,3.589-5.111,5.659c-0.708,1.009-1.384,2.059-1.986,3.147
								C149.676,191.488,150.356,189.186,151.371,187.044z"/>
						</g>
						<path style="fill:#222326;" d="M288.56,168.924c-1.357-2.908-2.91-5.615-5.066-7.487c-3.511-3.049-7.819-4.273-11.913-4.931
							c-4.197-0.674-8.438-0.713-12.656-0.49c-5.432,0.288-10.857,0.937-16.231,2.04c-4.354,0.893-8.677,2.089-12.923,3.665
							c0.577,2.267,1.35,4.497,2.301,6.537c0.211,0.233,0.426,0.461,0.644,0.679c0.444,0.447,0.904,0.86,1.376,1.245
							c2.473,0.656,5.035,0.787,7.547,0.652c4.187-0.226,8.329-1.175,12.451-2.135c1.888-0.439,3.775-0.887,5.671-1.254
							c2.27-0.44,4.557-0.755,6.837-1.089c2.526-0.371,5.062-0.672,7.605-0.692c2.34-0.018,4.755,0.111,7.03,0.902
							c2.609,0.907,4.981,2.624,7.409,4.154c0.203-0.204,0.347-0.513,0.251-0.776C288.77,169.611,288.664,169.268,288.56,168.924z"
							/>
						<path style="fill:#222326;" d="M140.706,168.924c1.357-2.908,2.91-5.615,5.066-7.487c3.511-3.049,7.819-4.273,11.913-4.931
							c4.197-0.674,8.438-0.713,12.656-0.49c5.431,0.288,10.857,0.937,16.231,2.04c4.354,0.893,8.677,2.089,12.923,3.665
							c-0.577,2.267-1.35,4.497-2.301,6.537c-0.211,0.233-0.426,0.461-0.643,0.679c-0.444,0.447-0.904,0.86-1.376,1.245
							c-2.473,0.656-5.035,0.787-7.547,0.652c-4.187-0.226-8.329-1.175-12.451-2.135c-1.888-0.439-3.775-0.887-5.671-1.254
							c-2.27-0.44-4.557-0.755-6.837-1.089c-2.526-0.371-5.062-0.672-7.605-0.692c-2.34-0.018-4.755,0.111-7.03,0.902
							c-2.609,0.907-4.981,2.624-7.409,4.154c-0.203-0.204-0.347-0.513-0.251-0.776
							C140.496,169.611,140.602,169.268,140.706,168.924z"/>
						<path style="opacity:0.65;fill:#92422B;" d="M222.669,233.971c-2.471,1.836-5.293,3.488-8.386,4.045
							c-1.512,0.272-2.94,0.209-4.417-0.204c-1.472-0.411-2.901-0.975-4.25-1.684c-1.391-0.73-2.668-1.63-3.848-2.654
							c-0.571-0.495-1.113-1.012-1.617-1.574c-0.472-0.525-1.03-1.109-1.348-1.742c-0.062-0.124-0.095-0.275-0.174-0.39
							c-0.079-0.115-0.197-0.172-0.247-0.31c-0.113-0.309-0.057-0.77-0.04-1.089c0.039-0.728,0.192-1.439,0.378-2.144
							c0.391-1.483,0.848-2.955,1.274-4.429c1.189-4.111,2.468-8.194,3.547-12.334c0.036-0.138-0.168-0.102-0.203-0.004
							c-1.367,3.9-2.826,7.769-4.125,11.692c-0.539,1.628-1.094,3.255-1.599,4.893c-0.231,0.747-0.421,1.505-0.552,2.274
							c-0.059,0.347-0.1,0.697-0.109,1.048c-0.005,0.18,0.016,0.362,0.011,0.541c-0.006,0.216-0.108,0.418-0.116,0.631
							c-0.029,0.751,0.478,1.48,0.914,2.048c0.5,0.65,1.048,1.264,1.634,1.84c1.209,1.189,2.582,2.203,4.075,3.028
							c2.968,1.641,6.363,2.435,9.762,1.938c3.648-0.534,7.327-2.381,9.796-5.076C223.287,234.037,222.962,233.753,222.669,233.971z
							"/>
					</g>
				</g>
				<path style="fill:#672D91;" d="M126.468,79.13c4.324-0.044,8.636-0.624,12.899-1.312c5.036-0.813,10.033-1.924,14.868-3.565
					c5.364-1.821,10.533-4.316,15.046-7.767c0.197-0.151,0.035-0.391-0.169-0.241c-8.031,5.929-17.989,8.776-27.704,10.456
					c-8.34,1.442-16.951,2.351-25.323,0.62c-4.211-0.871-8.67-2.42-11.633-5.689c-0.324-0.357-1.128,0.198-0.818,0.574
					c1.123,1.362,1.932,2.923,2.755,4.475c0.791,1.492,1.66,2.917,2.753,4.21c2.084,2.465,4.729,4.365,7.576,5.857
					c6.292,3.296,13.22,4.667,20.284,4.721c1.383,0.011,2.762-0.022,4.14-0.084c-3.378,0.98-6.894,1.547-10.356,2.004
					c-3.399,0.448-6.821,0.829-10.255,0.786c-3.281-0.041-6.477-0.538-9.607-1.523c-3.28-1.032-6.425-2.439-9.663-3.587
					c-0.339-0.12-0.748,0.22-0.783,0.549c-0.495,4.628,0.681,9.384,2.475,13.623c1.735,4.099,4.097,8.092,7.094,11.399
					c5.419,5.98,13.146,9.285,21.167,9.579c1.997,0.073,3.993-0.044,5.964-0.326c-0.83,0.393-1.669,0.748-2.482,1.082
					c-3.702,1.521-7.453,3.003-11.372,3.866c-2.469,0.544-4.97,0.817-7.498,0.833c-0.274,0.002-0.772,0.314-0.635,0.655
					c1.067,2.663,3.892,4.1,6.477,4.928c2.752,0.881,5.706,1.261,8.59,1.29c4.256,0.042,8.475-0.983,12.47-2.381
					c4.092-1.432,7.927-3.251,11.329-5.967c3.545-2.83,6.629-6.191,10.162-9.037c0.303-0.244,0.062-0.612-0.266-0.38
					c-3.168,2.239-5.863,5.017-8.789,7.545c-1.474,1.273-3.011,2.481-4.662,3.517c-1.786,1.121-3.711,1.97-5.666,2.75
					c-4.125,1.646-8.513,2.939-12.973,3.142c-2.759,0.125-5.576-0.162-8.254-0.831c-2.666-0.665-5.764-1.842-7.152-4.376
					c4.291-0.154,8.488-1.157,12.517-2.624c1.857-0.676,3.689-1.435,5.513-2.197c1.483-0.619,2.948-1.293,4.343-2.095
					c1.972-0.382,3.912-0.93,5.789-1.659c0.405-0.157,0.33-0.713-0.142-0.556c-1.265,0.421-2.553,0.775-3.854,1.066
					c1.157-0.856,2.192-1.883,2.9-3.142c0.148-0.264-0.23-0.293-0.354-0.103c-0.947,1.463-2.297,2.585-3.799,3.502
					c-5.96,1.128-12.16,0.83-17.875-1.387c-3.646-1.414-7.003-3.591-9.758-6.369c-3.012-3.038-5.384-6.787-7.213-10.638
					c-2.087-4.393-3.461-9.231-3.103-14.116c2.735,1.019,5.419,2.176,8.19,3.096c3.157,1.048,6.388,1.658,9.716,1.769
					c3.447,0.115,6.886-0.229,10.298-0.684c3.258-0.435,6.528-0.891,9.702-1.764c1.383-0.381,2.725-0.837,4.033-1.369
					c1.895-0.132,3.787-0.316,5.676-0.537c0.31-0.036,0.565-0.647,0.128-0.624c-1.224,0.066-2.45,0.14-3.677,0.211
					c1.142-0.561,2.256-1.19,3.341-1.894c0.185-0.12,0.038-0.318-0.146-0.209c-1.461,0.866-2.989,1.579-4.56,2.18
					c-5.2,0.283-10.407,0.421-15.56-0.519c-3.483-0.636-6.879-1.729-10.071-3.264c-2.909-1.399-5.691-3.161-7.911-5.529
					c-1.249-1.333-2.27-2.824-3.142-4.425c-0.38-0.698-0.744-1.409-1.123-2.109c2.254,1.545,4.894,2.547,7.524,3.221
					C117.947,78.81,122.236,79.173,126.468,79.13z"/>
				<path style="fill:#222326;" d="M301.582,102.618c-0.423-3.07-1.266-6.053-2.274-8.978c-1.776-5.154-4.121-10.126-6.976-14.77
					c-2.913-4.739-6.382-9.149-10.443-12.959c-3.916-3.674-8.415-6.746-13.406-8.762c-4.964-2.005-10.435-2.94-15.784-2.731
					c-5.07,0.198-10.098,1.441-14.631,3.733c-4.585,2.319-8.639,5.635-11.834,9.658c-3.332,4.196-5.523,8.977-7.29,14.004
					c-0.948,2.698-1.761,5.445-2.321,8.251c-0.539,2.698-0.842,5.48-0.525,8.226c0.071,0.613,0.179,1.218,0.328,1.814
					c-0.244,0.046-0.459,0.438-0.118,0.465c0.084,0.007,0.168,0.005,0.252,0.005c0.121,0.415,0.255,0.826,0.419,1.229
					c0.271,0.663,1.461,0.042,1.224-0.537c-0.124-0.304-0.233-0.613-0.33-0.924c0.425-0.135,0.838-0.308,1.221-0.476
					c1.174-0.516,2.301-1.129,3.443-1.711c1.204-0.612,2.39-1.036,3.686-1.412c1.761-0.511,3.535-0.983,5.336-1.331
					c3.515-0.679,7.116-0.724,10.683-0.574c3.432,0.144,6.847,0.583,10.185,1.404c6.338,1.558,12.433,4.377,18,7.752
					c5.472,3.318,10.515,7.345,14.938,11.971c2.21,2.311,4.182,4.792,5.837,7.53c1.608,2.661,2.926,5.478,4.237,8.292
					c0.339,0.728,0.677,1.457,1.016,2.185c0.197,0.423,0.944-0.022,1.017-0.335c1.575-6.81,3.551-13.553,4.236-20.534
					C302.051,109.618,302.06,106.091,301.582,102.618z"/>
				<path style="fill:#27282B;" d="M343.774,89.256c-2.28-3.081-5.313-5.529-8.499-7.62c1.804,0.208,3.64,0.149,5.44-0.07
					c2.709-0.329,5.647-1.076,7.734-2.933c1.058-0.942,1.734-2.17,1.918-3.577c0.06-0.458-0.563-0.424-0.803-0.242
					c-2.039,1.544-4.372,2.67-6.978,2.633c-2.347-0.033-4.567-0.96-6.517-2.213c-4.606-2.959-8.095-7.483-11.396-11.766
					c-1.586-2.058-3.132-4.149-4.78-6.158c-1.778-2.167-3.751-4.121-5.985-5.823c-5.844-4.452-13.039-7.539-20.362-8.345
					c-3.195-0.352-6.415-0.137-9.564,0.486c-1.4,0.277-2.841,0.634-4.223,1.137c-0.688-6.455-3.572-12.501-7.606-17.539
					c-4.398-5.492-10.083-9.935-16.311-13.176c-6.758-3.516-13.996-5.378-21.562-6.058c-17.75-1.596-35.406,2.705-52.096,8.378
					c-8.59,2.92-17.031,6.252-25.477,9.559c-4.072,1.595-8.146,3.184-12.244,4.713c-2.146,0.801-4.277,1.563-6.492,2.147
					c-4.785,1.263-9.791,2.121-14.753,2.002c-4.073-0.097-9.236-0.934-11.288-4.963c-0.49-0.961-0.738-2.047-0.817-3.118
					c-0.046-0.623-0.866-0.432-1.093-0.02c-1.981,3.581-1.873,7.664-0.06,11.291c1.501,3.003,3.899,5.393,6.75,7.071
					c-1.842,0.854-3.652,1.773-5.425,2.741c-5.926,3.237-11.494,7.104-16.529,11.608c-4.611,4.125-8.725,8.834-12.161,13.98
					c-3.458,5.179-6.259,10.882-7.817,16.928c-1.534,5.953-1.808,12.223-0.33,18.217c0.189,0.769,0.404,1.532,0.656,2.282
					c0.222,0.661,1.173,0.102,1.223-0.396c0.426-4.243,2.057-8.358,4.186-12.024c2.203-3.794,5.029-7.233,8.328-10.125
					c0.756-0.663,1.544-1.294,2.352-1.901c-0.54,1.125-1.033,2.276-1.521,3.427c-1.476,3.48-3.18,6.813-4.988,10.132
					c-1.967,3.611-4.066,7.138-6.369,10.545c-1.747,2.584-3.504,5.177-5.605,7.492c-2.34,2.577-5.164,4.846-8.622,5.643
					c-0.316,0.073-1.023,0.75-0.492,1.022c7.154,3.67,15.902,3.37,23.175,0.081c0.094,2.292,0.316,4.584,0.651,6.825
					c1.435,9.574,5.8,18.455,11.807,25.982c1.052,1.317,2.16,2.587,3.311,3.816c0.025,0.07,0.047,0.14,0.072,0.21
					c1.943,5.37,4.335,10.554,6.936,15.633c5.234,10.221,11.265,20.014,16.397,30.289c1.486,2.976,2.815,6.018,4.476,8.904
					c1.771,3.077,3.698,6.066,5.222,9.28c0.263,0.555,1.197-0.156,1.112-0.626c-0.567-3.145-1.327-6.249-1.984-9.374
					c-0.206-2.298-0.363-4.602-0.517-6.914c-0.354-5.295-1.107-10.537-1.207-15.851c-0.104-5.546,0.219-11.092,0.783-16.607
					c0.477-4.67,1.022-9.371,1.983-13.969c0.844-4.037,2.085-8.019,4.053-11.658c2.14-3.958,5.071-7.486,8.52-10.372
					c7.119-5.958,15.96-9.125,24.056-13.455c4.016-2.148,7.969-4.621,11.623-7.46c-0.904,1.484-1.885,2.922-2.935,4.307
					c-1.54,2.031-3.251,3.91-4.908,5.843c-1.548,1.806-3.084,3.626-4.785,5.292c-1.696,1.662-3.673,3.464-6.101,3.86
					c-0.424,0.069-0.956,0.811-0.352,1.026c3.239,1.154,6.957-0.27,9.839-1.757c3.728-1.923,7.099-4.498,10.255-7.242
					c7.28-6.33,13.341-14.175,17.743-22.753c0.041-0.079,0.079-0.159,0.119-0.238c-0.041,0.215-0.078,0.431-0.121,0.646
					c-0.89,4.51-2.15,8.961-4.033,13.162c-1.822,4.063-4.27,7.742-7.176,11.107c-2.694,3.12-5.651,6.058-8.969,8.515
					c-3.498,2.591-7.776,5.01-12.272,4.755c-0.453-0.026-1.133,0.806-0.48,0.999c5.583,1.655,11.643,0.526,16.885-1.73
					c5.456-2.349,10.348-5.895,14.763-9.832c4.499-4.013,8.507-8.517,11.844-13.544c3.476-5.236,6.251-10.902,8.725-16.669
					c2.306-5.376,4.406-10.842,6.465-16.316c1.801-4.789,3.683-9.636,6.589-13.883c1.366-1.997,2.985-3.853,4.928-5.308
					c2.166-1.621,4.721-2.696,7.366-3.238c5.305-1.089,10.801,0.256,15.24,3.288c4.873,3.329,8.18,8.474,10.25,13.926
					c2.108,5.554,2.688,11.438,2.688,17.341c0,1.528,0.011,3.05,0.042,4.578c0.001,0.066,0.026,0.105,0.059,0.13
					c-0.351,0.692,0.639,0.779,0.953,0.257c1.094-1.819,2.557-3.446,4.137-4.854c1.575-1.404,3.542-2.844,5.687-3.146
					c2.379-0.335,4.047,1.466,4.717,3.594c0.962,3.055,0.4,6.49,0.26,9.628c-0.18,4.016-0.475,8.028-0.544,12.049
					c-0.066,3.837-0.096,7.687-0.033,11.525c0.112,6.8,0.739,14.059,4.203,20.071c0.292,0.507,0.606,0.994,0.934,1.468
					c-0.056,1.063-0.139,2.126-0.16,3.193c-0.042,2.065,0.096,4.129,0.104,6.193c0.008,2.077-0.028,4.155-0.098,6.23
					c-0.28,8.344-0.866,16.684-1.55,25.003c-0.373,4.534-0.86,9.039-1.629,13.525c-0.079,0.459,0.582,0.432,0.813,0.245
					c1.525-1.234,2.232-3.113,3.398-4.639c1.483-1.941,3.04-3.821,4.455-5.813c2.868-4.036,5.167-8.474,7.525-12.818
					c2.388-4.4,4.842-8.756,7.096-13.227c2.269-4.501,4.428-9.057,6.647-13.583c0.584-1.192,1.262-2.337,1.97-3.467
					c4.417-5.428,8.638-11.144,11.898-17.344c3.221-6.127,5.432-12.895,4.996-19.892c-0.216-3.468-1.036-6.92-2.373-10.139
					c1.587,1.732,2.642,3.968,3.459,6.139c0.612,1.627,0.799,3.238,0.782,4.97c-0.016,1.568-0.127,3.157,0.18,4.707
					c0.11,0.554,0.868,0.07,0.989-0.211c3.272-7.589,5.677-15.973,4.224-24.283C348.031,96.808,346.312,92.687,343.774,89.256z"/>
				<path style="opacity:0.51;fill:#424346;" d="M296.042,156.217c-0.056,1.063-0.139,2.126-0.16,3.193
					c-0.042,2.065,0.096,4.129,0.104,6.193c0.008,2.077-0.028,4.155-0.098,6.23c-0.28,8.344-0.866,16.684-1.55,25.003
					c-0.373,4.534-0.86,9.039-1.629,13.525c-0.079,0.459,0.582,0.432,0.813,0.245c1.525-1.234,2.232-3.113,3.398-4.639
					c0.656-0.859,1.327-1.707,1.994-2.557c2.643-9.081,5.403-18.229,6.407-27.646c1.152-10.812-0.648-21.427-4.373-31.589
					c-0.109-0.297,0.271-0.553,0.521-0.4c2.579,1.569,5.265,3.042,8.193,3.845c2.567,0.704,5.167,0.759,7.72,0.168
					c-2.891-0.775-5.63-2.045-7.954-3.965c-2.332-1.927-4.118-4.439-5.344-7.193c-2.32-5.213-2.824-11.085-2.704-16.729
					c0.131-6.157,1.273-12.154,1.945-18.255c0.711-6.462,1.081-14.864-4.319-19.559c-2.734-2.377-6.439-3.47-10.013-2.775
					c-3.505,0.681-6.464,2.908-8.294,5.944c-0.161,0.267-0.556,0.204-0.648-0.085c-1.8-5.635-1.837-11.737-0.455-17.468
					c2.475-10.269,10.134-20.702,21.408-21.614c1.232-0.1,2.468-0.076,3.697,0.042c-3.569-1.526-7.344-2.568-11.155-2.988
					c-3.195-0.352-6.415-0.137-9.564,0.486c-1.4,0.277-2.841,0.634-4.223,1.137c-0.688-6.455-3.572-12.501-7.606-17.539
					c-4.398-5.492-10.083-9.935-16.311-13.176c-6.758-3.516-13.996-5.378-21.562-6.058c-6.562-0.59-13.111-0.372-19.603,0.421
					c6.799-0.494,13.677-0.191,20.358,1.202c3.407,0.71,6.749,1.723,9.962,3.062c3.202,1.334,6.373,2.943,9.205,4.955
					c5.121,3.64,9.584,8.279,12.711,13.749c3.084,5.393,4.748,11.518,4.615,17.74c-0.007,0.323-0.512,0.52-0.661,0.179
					c-0.258-0.592-0.539-1.173-0.849-1.739c-2.514-4.604-6.691-8.002-11.325-10.331c-4.808-2.417-10.142-3.788-15.472-4.405
					c-5.781-0.67-11.597-0.39-17.294,0.802c-6.863,1.437-13.413,4.088-19.569,7.416c-1.088,0.588-2.16,1.204-3.225,1.831
					c4.744-1.874,9.749-3.057,14.814-3.627c5.276-0.593,10.625-0.508,15.88,0.25c5.16,0.745,10.229,2.16,14.978,4.318
					c4.595,2.088,8.867,4.9,12.478,8.437c0.282,0.276-0.101,0.798-0.43,0.557c-0.74-0.541-1.502-1.049-2.294-1.512
					c-2.902-1.695-6.156-2.746-9.513-2.977c-3.202-0.22-6.407,0.274-9.453,1.258c-6.444,2.083-12.144,6.199-16.917,10.927
					c-2.364,2.341-4.537,4.88-6.468,7.59c-1.991,2.793-3.734,5.776-5.427,8.756c-3.768,6.637-7.133,13.495-10.955,20.103
					c-3.715,6.424-7.891,12.668-13.219,17.877c-0.242,0.236-0.711,0.001-0.593-0.345c1.001-2.931,2.099-5.827,3.208-8.719
					c1.908-4.978,3.847-9.957,5.281-15.098c0.767-2.749,1.366-5.539,1.756-8.356c-2.406,3.376-5.174,6.508-8.165,9.393
					c-6.923,6.678-14.905,12.151-22.954,17.366c-8.094,5.244-16.466,10.146-23.821,16.428c-6.984,5.964-13.116,13.099-16.793,21.588
					c-3.858,8.907-4.549,18.731-2.977,28.247c0.064,0.39-0.421,0.625-0.648,0.273c-0.347-0.538-0.687-1.08-1.017-1.629
					c-2.668-4.435-4.75-9.223-6.252-14.174c-1.53-5.045-2.456-10.279-2.75-15.543c-0.292-5.214,0.048-10.47,1.08-15.592
					c0.57-2.826,1.365-5.608,2.375-8.309c-2.3,3.515-4.124,7.339-5.512,11.306c-1.993,5.697-3.151,11.657-3.858,17.641
					c-0.036,0.303-0.36,0.471-0.605,0.251c-0.364-0.326-0.712-0.668-1.043-1.026c-2.873-3.111-4.551-7.19-5.81-11.177
					c-0.658-2.083-1.199-4.201-1.691-6.328c-0.462-1.996-0.955-4.002-1.259-6.029c-0.637-4.253-0.473-8.603,0.41-12.81
					c0.007-0.034,0.016-0.068,0.024-0.102c-5.457,5.56-11.808,10.299-19.261,12.798c-2.229,0.747-4.538,1.324-6.875,1.677
					c5.918,1.424,12.346,0.665,17.912-1.852c0.094,2.292,0.316,4.584,0.651,6.824c1.435,9.574,5.8,18.456,11.807,25.982
					c1.052,1.318,2.16,2.587,3.311,3.816c0.025,0.07,0.047,0.14,0.072,0.21c1.943,5.37,4.335,10.554,6.936,15.633
					c5.234,10.221,11.265,20.014,16.396,30.289c1.486,2.976,2.815,6.018,4.476,8.904c1.771,3.077,3.698,6.066,5.221,9.28
					c0.263,0.555,1.197-0.156,1.112-0.626c-0.567-3.145-1.327-6.249-1.984-9.374c-0.206-2.298-0.363-4.602-0.517-6.914
					c-0.354-5.295-1.107-10.537-1.207-15.851c-0.104-5.546,0.219-11.092,0.783-16.607c0.477-4.67,1.022-9.371,1.983-13.969
					c0.844-4.037,2.085-8.019,4.053-11.658c2.14-3.958,5.071-7.486,8.52-10.372c7.119-5.958,15.96-9.125,24.056-13.455
					c4.016-2.148,7.969-4.621,11.623-7.46c-0.904,1.484-1.885,2.922-2.935,4.307c-1.54,2.031-3.251,3.91-4.908,5.843
					c-1.548,1.806-3.084,3.626-4.785,5.292c-1.696,1.662-3.673,3.464-6.101,3.86c-0.424,0.069-0.956,0.811-0.352,1.026
					c3.239,1.154,6.957-0.269,9.839-1.757c3.728-1.923,7.099-4.498,10.255-7.242c7.28-6.33,13.341-14.175,17.743-22.753
					c0.041-0.079,0.079-0.159,0.119-0.238c-0.041,0.215-0.078,0.431-0.121,0.646c-0.89,4.51-2.15,8.961-4.033,13.162
					c-1.822,4.063-4.27,7.742-7.176,11.107c-2.694,3.12-5.651,6.058-8.969,8.515c-3.498,2.591-7.776,5.01-12.272,4.755
					c-0.453-0.026-1.133,0.805-0.48,0.999c5.583,1.655,11.643,0.526,16.885-1.73c5.456-2.349,10.348-5.894,14.763-9.832
					c4.499-4.013,8.507-8.517,11.844-13.544c3.476-5.236,6.251-10.902,8.725-16.669c2.306-5.376,4.406-10.842,6.465-16.316
					c1.801-4.789,3.683-9.636,6.589-13.883c1.366-1.997,2.985-3.853,4.928-5.308c2.166-1.621,4.721-2.696,7.366-3.238
					c5.305-1.089,10.801,0.256,15.24,3.288c4.873,3.329,8.18,8.474,10.25,13.926c2.108,5.553,2.688,11.438,2.688,17.341
					c0,1.528,0.011,3.05,0.042,4.578c0.001,0.066,0.026,0.105,0.059,0.13c-0.351,0.692,0.639,0.779,0.953,0.257
					c1.094-1.819,2.557-3.446,4.137-4.854c1.575-1.404,3.542-2.844,5.687-3.146c2.379-0.335,4.047,1.466,4.717,3.594
					c0.962,3.055,0.4,6.49,0.26,9.628c-0.18,4.016-0.475,8.028-0.544,12.049c-0.066,3.837-0.096,7.687-0.033,11.525
					c0.112,6.8,0.739,14.059,4.203,20.071C295.4,155.255,295.714,155.742,296.042,156.217z"/>
			</g>
			<g>
				<path style="opacity:0.65;fill:#92422B;" d="M247.736,253.458c-0.551-0.332-1.516,0.16-2.015,0.392
					c-1.184,0.552-2.325,1.072-3.576,1.492c-0.009,0.003-0.015,0.009-0.024,0.012c-0.118,0.018-0.235,0.04-0.353,0.057
					c-5.248,0.757-10.585,1.164-15.891,1.308c-5.258,0.142-10.52,0.268-15.78,0.303c-2.651,0.018-5.308,0.082-7.959,0.004
					c-2.562-0.076-5.119-0.224-7.676-0.371c-2.45-0.141-4.891-0.35-7.343-0.452c-1.824-0.076-4.062-0.158-5.517-1.311
					c-0.004,0.004-0.007,0.007-0.01,0.011c-0.478-0.25-1.34,0.332-0.977,0.792c1.123,1.423,3.221,1.659,4.995,1.787
					c2.249,0.162,4.515,0.276,6.767,0.385c5.765,0.28,11.543,0.064,17.311-0.054c5.838-0.12,11.661-0.233,17.493-0.536
					c5.647-0.292,11.399-0.454,16.967-1.44c0.954-0.169,1.945-0.303,2.807-0.742C247.415,254.861,248.508,253.922,247.736,253.458z"
					/>
				<path style="opacity:0.65;fill:#92422B;" d="M225.539,267.839c-1.133-0.059-2.292,0.127-3.412,0.276
					c-1.223,0.163-2.44,0.36-3.668,0.488c-2.426,0.252-4.865,0.247-7.302,0.168c-2.342-0.076-4.707-0.211-7.026-0.53
					c-2.216-0.304-4.556-0.691-6.653-1.423c-0.152-0.053-0.4,0.177-0.238,0.29c0.927,0.644,1.808,1.143,2.906,1.523
					c1.04,0.36,2.157,0.573,3.254,0.725c2.344,0.324,4.726,0.479,7.094,0.566c2.496,0.092,5.036,0.069,7.513-0.271
					c1.207-0.166,2.402-0.401,3.597-0.628c1.282-0.244,2.589-0.451,3.851-0.772C225.652,268.2,225.872,267.857,225.539,267.839z"/>
			</g>
		</g>
		<path style="fill:#C4C6C8;" d="M306.296,167.758c-4.606-0.576-9.789-0.576-17.85-4.031c-8.061-3.455-27.063-4.606-41.457-1.727
			s-19.916,11.274-21.592,12.956c-2.801,2.81-10.364,3.455-11.804,3.167c-1.439,0.288-9.002-0.357-11.804-3.167
			c-1.676-1.682-7.198-10.077-21.592-12.956s-33.396-1.727-41.457,1.727s-13.243,3.455-17.85,4.031
			c-4.606,0.576-4.606,4.031-4.606,4.031c0.576,8.637,3.616,7.807,5.182,10.94c0.576,1.152,1.152,7.485,1.727,15.547
			c0.576,8.061,7.485,21.305,18.425,25.911c10.94,4.606,32.245,6.91,45.488,0c13.243-6.91,16.122-23.032,18.425-31.093
			c2.303-8.061,8.061-6.334,8.061-6.334s5.758-1.727,8.061,6.334c2.303,8.061,5.182,24.183,18.426,31.093
			c13.243,6.91,34.548,4.606,45.488,0c10.94-4.606,17.85-17.85,18.426-25.911c0.576-8.061,1.152-14.395,1.727-15.547
			c1.566-3.133,4.606-2.303,5.182-10.94C310.902,171.789,310.902,168.334,306.296,167.758z M183.939,219.868
			c-13.243,6.91-34.548,5.758-45.488-2.879c-10.94-8.637-10.94-28.214-9.788-35.7c0,0,0-9.788,17.274-12.667
			s32.82-3.455,44.912,4.606c0,0,7.485,4.031,8.061,13.819C199.485,196.836,197.182,212.958,183.939,219.868z M288.734,216.989
			c-10.94,8.637-32.245,9.788-45.488,2.879c-13.243-6.91-15.547-23.032-14.971-32.821c0.576-9.788,8.061-13.819,8.061-13.819
			c12.092-8.061,27.638-7.485,44.912-4.606c17.274,2.879,17.274,12.667,17.274,12.667
			C299.674,188.775,299.674,208.352,288.734,216.989z"/>
	</g>
</g>
</svg>
