<?xml version="1.0" encoding="utf-8"?>
<!-- Generator: Adobe Illustrator 27.5.0, SVG Export Plug-In . SVG Version: 6.00 Build 0)  -->
<svg version="1.1" id="Layer_2" xmlns="http://www.w3.org/2000/svg" xmlns:xlink="http://www.w3.org/1999/xlink" x="0px" y="0px"
	 viewBox="0 0 345.956 400" style="enable-background:new 0 0 345.956 400;" xml:space="preserve">
<g>
	<g>
		<g>
			<ellipse style="fill:#821522;" cx="172.978" cy="308.604" rx="101.947" ry="37.061"/>
			<ellipse style="fill:#821522;" cx="172.978" cy="308.604" rx="101.947" ry="37.061"/>
		</g>
		<g>
			<path style="fill:#D3926E;" d="M218.436,243.586c0,0-7.401,34.432-2.896,65.002c0,0,12.228,10.297,27.352,15.446
				c0,0-10.619,37.328-69.829,37.328h-0.17c-59.21,0-69.829-37.328-69.829-37.328c15.124-5.149,27.352-15.446,27.352-15.446
				c4.505-30.57-2.896-65.002-2.896-65.002H218.436z"/>
			<path style="opacity:0.6;fill:#D3926E;" d="M127.52,243.586c0,0,2.164,10.073,3.44,24.158
				c12.202,6.745,26.541,11.897,42.017,12.068h0.002c15.477-0.171,29.815-5.323,42.017-12.068c1.275-14.084,3.44-24.158,3.44-24.158
				H127.52z"/>
		</g>
		<g>
			<g>
				<path style="fill:#6D6E71;" d="M172.978,390v-20.421l-3.396-2.86c-77.4-51.481-101.353-39.505-101.353-39.505
					s-38.968,15.552-47.012,26.634C14.344,363.318,9.82,384.139,8.649,390H172.978z"/>
				<path style="opacity:0.4;fill:#6D6E71;" d="M65.356,345.951c3.772,3.201,8.086,5.656,12.477,7.896
					c4.415,2.252,8.928,4.32,13.218,6.808c4.088,2.37,8.029,5.159,11.072,8.815c1.591,1.911,2.821,3.957,3.251,6.44
					c0.437,2.521,0.137,5.145-0.704,7.552c-0.745,2.132-1.879,4.1-3.528,5.658c-0.329,0.311-0.677,0.601-1.032,0.881h41.059
					c-0.272-1.456-0.151-2.96,0.539-4.359c0.887-1.799,2.609-2.972,4.478-3.58c1.389-0.452,2.874-0.649,4.327-0.75
					c1.587-0.11,3.181-0.068,4.767,0.045c5.823,0.416,11.926,1.92,17.697,0.424v-12.201l-3.396-2.86
					c-77.4-51.481-101.353-39.505-101.353-39.505s-5.51,2.199-12.813,5.532c0.151,0.307,0.306,0.613,0.466,0.917
					C58.324,338.291,61.347,342.549,65.356,345.951z"/>
				<path style="fill:#821522;" d="M173.128,381.233V360.21c0,0-75.001-73.864-88.921-72.444
					c-13.921,1.421-19.034,8.523-13.352,15.909c0,0-19.034,20.171-16.193,28.125C57.502,339.755,102.957,370.721,173.128,381.233z"
					/>
				<path style="opacity:0.8;fill:#821522;" d="M162.906,377.85c-3.158-1.501-6.089-3.538-8.892-5.613
					c-3.163-2.341-6.155-4.913-8.917-7.716c-2.747-2.788-5.305-5.8-7.515-9.033c-2.055-3.006-3.954-6.114-5.929-9.173
					c-3.996-6.189-8.433-12.252-14.645-16.392c-5.218-3.477-12.19-5.362-17.707-1.404c-2.71,1.944-4.473,4.961-5.435,8.107
					c-0.718,2.347-0.67,5.497-2.624,7.259c-1.039,0.936-2.455,1.243-3.815,1.31c-1.898,0.093-3.803-0.26-5.614-0.806
					c-1.861-0.562-3.654-1.339-5.392-2.204c-1.587-0.79-3.092-1.731-4.673-2.529c-4.638-2.345-9.346-5.057-12.99-8.819
					c-1.438-1.485-2.776-3.235-3.425-5.225c-0.914,2.392-1.258,4.55-0.673,6.189c2.841,7.955,48.296,38.921,118.467,49.432v-0.047
					C169.593,380.495,166.132,379.384,162.906,377.85z"/>
				<path style="opacity:0.5;fill:#821522;" d="M115.476,310.835c7.159,7.411,14.203,14.948,20.847,22.826
					c6.867,8.142,13.387,16.613,19.111,25.603c2.68,4.209,5.223,8.534,7.39,13.033c1.231,2.555,2.347,5.166,3.363,7.815
					c2.286,0.395,4.599,0.77,6.941,1.121V360.21c0,0-49.957-49.199-75.894-66.518C103.694,298.978,109.681,304.836,115.476,310.835z
					"/>
				<g>
					<path style="fill:#821522;" d="M136.152,390c-4.812-14.937-19.487-58.03-29.297-60.183
						c-15.317-3.362,4.579,38.145,13.892,60.183H136.152z"/>
					<path style="opacity:0.5;fill:#821522;" d="M136.152,390c-4.812-14.937-19.487-58.03-29.297-60.183
						c-15.317-3.362,4.579,38.145,13.892,60.183H136.152z"/>
				</g>
			</g>
			<g>
				<path style="fill:#6D6E71;" d="M337.307,390c-1.171-5.861-5.695-26.682-12.568-36.151
					c-8.044-11.083-47.012-26.634-47.012-26.634s-23.953-11.976-101.353,39.505l-3.396,2.86V390H337.307z"/>
				<path style="opacity:0.4;fill:#6D6E71;" d="M190.675,381.356c1.586-0.113,3.18-0.155,4.767-0.045
					c1.453,0.101,2.938,0.298,4.327,0.75c1.869,0.608,3.591,1.781,4.478,3.58c0.691,1.4,0.812,2.903,0.539,4.359h41.059
					c-0.355-0.28-0.703-0.57-1.032-0.881c-1.649-1.558-2.782-3.526-3.528-5.658c-0.841-2.407-1.142-5.031-0.704-7.552
					c0.43-2.482,1.66-4.528,3.251-6.44c3.043-3.656,6.984-6.445,11.072-8.815c4.291-2.487,8.804-4.556,13.218-6.808
					c4.391-2.24,8.705-4.694,12.477-7.896c4.009-3.402,7.032-7.66,9.474-12.287c0.161-0.305,0.315-0.611,0.466-0.917
					c-7.303-3.333-12.812-5.532-12.812-5.532s-23.953-11.976-101.353,39.505l-3.396,2.86v12.201
					C178.749,383.276,184.852,381.772,190.675,381.356z"/>
				<path style="fill:#821522;" d="M172.827,381.233V360.21c0,0,75.001-73.864,88.921-72.444
					c13.921,1.421,19.034,8.523,13.352,15.909c0,0,19.034,20.171,16.193,28.125C288.453,339.755,242.999,370.721,172.827,381.233z"
					/>
				<path style="opacity:0.8;fill:#821522;" d="M183.05,377.85c3.158-1.501,6.089-3.538,8.892-5.613
					c3.163-2.341,6.155-4.913,8.917-7.716c2.747-2.788,5.305-5.8,7.515-9.033c2.055-3.006,3.954-6.114,5.929-9.173
					c3.996-6.189,8.433-12.252,14.645-16.392c5.218-3.477,12.19-5.362,17.707-1.404c2.71,1.944,4.473,4.961,5.435,8.107
					c0.718,2.347,0.67,5.497,2.624,7.259c1.039,0.936,2.455,1.243,3.815,1.31c1.898,0.093,3.803-0.26,5.614-0.806
					c1.861-0.562,3.654-1.339,5.392-2.204c1.587-0.79,3.092-1.731,4.673-2.529c4.638-2.345,9.346-5.057,12.99-8.819
					c1.438-1.485,2.775-3.235,3.425-5.225c0.914,2.392,1.258,4.55,0.673,6.189c-2.841,7.955-48.296,38.921-118.467,49.432v-0.047
					C176.363,380.495,179.824,379.384,183.05,377.85z"/>
				<path style="opacity:0.5;fill:#821522;" d="M230.479,310.835c-7.159,7.411-14.203,14.948-20.847,22.826
					c-6.867,8.142-13.387,16.613-19.111,25.603c-2.68,4.209-5.223,8.534-7.39,13.033c-1.231,2.555-2.347,5.166-3.363,7.815
					c-2.286,0.395-4.599,0.77-6.941,1.121V360.21c0,0,49.957-49.199,75.894-66.518C242.261,298.978,236.275,304.836,230.479,310.835
					z"/>
				<g>
					<path style="fill:#821522;" d="M225.209,390c9.313-22.039,29.208-63.546,13.892-60.183
						c-9.81,2.154-24.485,45.246-29.297,60.183H225.209z"/>
					<path style="opacity:0.5;fill:#821522;" d="M225.209,390c9.313-22.039,29.208-63.546,13.892-60.183
						c-9.81,2.154-24.485,45.246-29.297,60.183H225.209z"/>
				</g>
			</g>
		</g>
	</g>
	<g>
		<path style="fill:#D3926E;" d="M248.57,97.911c0.693,10.257-0.602,20.899-1.176,30.862c-0.997,17.306-2.545,34.577-4.91,51.75
			c-2.217,16.102-4.958,32.611-10.931,47.779c-7.487,19.013-27.466,30.809-45.459,38.287c-3.666,1.524-7.329,3.501-11.325,3.982
			c-4.304,0.518-8.199-1.311-12.113-2.843c-8.281-3.24-16.329-7.201-23.765-12.091c-10.269-6.754-19.926-15.674-24.518-27.335
			c-12.221-31.035-13.941-67.135-15.874-100.085c-0.9-15.345-3.589-32.138,2.984-46.555c3.875-8.499,10.095-15.728,17.712-21.102
			c15.841-11.174,36.153-14.179,55.109-14.179c25.265,0,55.216,6.023,68.505,30.072C246.496,83.125,248.063,90.415,248.57,97.911z"
			/>
		<path style="fill:#D3926E;" d="M110.035,132.474c9.587-7.789,23.068-10.785,33.254-28.461
			c10.186-17.676,38.347-26.963,48.833-16.477c10.486,10.486,35.269,40.403,51.338-8.709c0.082-0.251,0.159-0.502,0.237-0.753
			c-0.269-0.543-0.547-1.085-0.843-1.62c-13.289-24.049-43.241-30.072-68.505-30.072c-18.956,0-39.268,3.005-55.109,14.179
			c-7.618,5.373-13.838,12.603-17.712,21.102c-6.573,14.417-3.884,31.209-2.984,46.555c0.824,14.05,1.613,28.673,3.19,43.232
			C101.624,164.332,101.829,139.142,110.035,132.474z"/>
		<g>
			<g>
				<path style="fill:#D3926E;" d="M105.324,172.703c-2.064-5.638-4.459-11.182-8.482-15.728c-7.38-8.338-20.977-4.416-24.858,5.432
					c-3.065,7.778,0.239,16.74,4.106,23.622c3.56,6.335,8.238,12.793,15.256,15.664c5.848,2.393,16.536,3.212,18.863-4.467
					c1.924-6.352-1.42-14.724-3.513-20.675C106.245,175.271,105.793,173.984,105.324,172.703z"/>
				<path style="fill:#D3926E;" d="M96.184,174.008c0,0-5.132-2.717-5.434,3.522c-0.302,6.238,5.232,9.76,5.232,9.76
					s-15.294,2.616-16.804-13.382C77.67,157.909,93.166,159.318,96.184,174.008z"/>
			</g>
			<g>
				<path style="fill:#D3926E;" d="M240.632,172.703c2.064-5.638,4.459-11.182,8.482-15.728c7.38-8.338,20.977-4.416,24.858,5.432
					c3.065,7.778-0.239,16.74-4.107,23.622c-3.56,6.335-8.238,12.793-15.256,15.664c-5.848,2.393-16.536,3.212-18.863-4.467
					c-1.924-6.352,1.42-14.724,3.513-20.675C239.71,175.271,240.163,173.984,240.632,172.703z"/>
				<path style="fill:#D3926E;" d="M249.771,174.008c0,0,5.132-2.717,5.433,3.522c0.302,6.238-5.232,9.76-5.232,9.76
					s15.294,2.616,16.803-13.382C268.285,157.909,252.79,159.318,249.771,174.008z"/>
			</g>
		</g>
		<g>
			<g>
				<path style="fill:#754C29;" d="M156.243,145.66c-7.161,0.149-12.382-2.238-27.3-4.774c-14.918-2.536-24.167,7.011-24.167,7.011
					s4.792-10.849,20.96-13.88s28.715,1.516,29.389,4.295c0.674,2.779,0.168,4.463,0.758,5.558c0,0,0-5.389,1.6-6.989
					c0,0-1.095,3.284-0.505,5.979C157.568,145.554,156.243,145.66,156.243,145.66z"/>
				<g>
					<g>
						<path style="fill:#FFFFFF;" d="M117.404,161.421l1.555,7.316c0,0,4.898,7.161,17.058,8.567
							c12.16,1.406,18.928-4.721,18.928-4.721s-0.315-20.179-19.755-20.427C115.75,151.908,117.404,161.421,117.404,161.421z"/>
						<g>
							
								<ellipse transform="matrix(0.9732 -0.2298 0.2298 0.9732 -33.6762 36.0079)" style="fill:#2A709B;" cx="137.791" cy="162.62" rx="11.11" ry="11.11"/>
							
								<ellipse transform="matrix(0.3827 -0.9239 0.9239 0.3827 -65.1804 227.6898)" style="fill:#241F20;" cx="137.791" cy="162.62" rx="8.042" ry="8.042"/>
							<path style="fill:#FFFFFF;" d="M140.195,160.353c0,1.846,1.496,3.342,3.342,3.342s3.342-1.496,3.342-3.342
								c0-1.846-1.496-3.342-3.342-3.342S140.195,158.507,140.195,160.353z"/>
						</g>
						<path style="fill:#754C29;" d="M154.945,172.583c0,0,0.372-18.986-13.898-21.964c-14.27-2.978-26.183,6.701-26.183,6.701
							s-0.744,7.073,4.095,11.416c0,0-0.496-9.555,0.496-10.672c0.993-1.117,11.87-7.788,23.701-3.226
							C153.456,158.81,154.945,172.583,154.945,172.583z"/>
					</g>
				</g>
			</g>
			<g>
				<path style="fill:#754C29;" d="M188.406,145.66c7.161,0.149,12.382-2.238,27.3-4.774c14.918-2.536,24.167,7.011,24.167,7.011
					s-4.792-10.849-20.96-13.88c-16.168-3.031-28.715,1.516-29.389,4.295c-0.674,2.779-0.168,4.463-0.758,5.558
					c0,0,0-5.389-1.6-6.989c0,0,1.095,3.284,0.505,5.979C187.081,145.554,188.406,145.66,188.406,145.66z"/>
				<g>
					<g>
						<path style="fill:#FFFFFF;" d="M227.244,161.421l-1.555,7.316c0,0-4.898,7.161-17.058,8.567
							c-12.16,1.406-18.928-4.721-18.928-4.721s0.315-20.179,19.755-20.427C228.899,151.908,227.244,161.421,227.244,161.421z"/>
						<g>
							
								<ellipse transform="matrix(0.7071 -0.7071 0.7071 0.7071 -54.402 193.9009)" style="fill:#2A709B;" cx="206.858" cy="162.62" rx="11.11" ry="11.11"/>
							
								<ellipse transform="matrix(0.9239 -0.3827 0.3827 0.9239 -46.4856 91.5396)" style="fill:#241F20;" cx="206.858" cy="162.62" rx="8.042" ry="8.042"/>
							
								<ellipse transform="matrix(0.997 -0.0768 0.0768 0.997 -11.7208 15.9184)" style="fill:#FFFFFF;" cx="201.111" cy="160.353" rx="3.342" ry="3.342"/>
						</g>
						<path style="fill:#754C29;" d="M189.704,172.583c0,0-0.372-18.986,13.898-21.964c14.27-2.978,26.183,6.701,26.183,6.701
							s0.745,7.073-4.095,11.416c0,0,0.496-9.555-0.496-10.672c-0.993-1.117-11.87-7.788-23.701-3.226
							C191.193,158.81,189.704,172.583,189.704,172.583z"/>
					</g>
				</g>
			</g>
		</g>
		<g>
			<path style="opacity:0.6;fill:#FED09E;" d="M191.521,200.243c0,0-3.813,10.58-11.983,7.094c0,0-1.547,5.205-6.509,5.205h-0.104
				c-4.962,0-6.509-5.205-6.509-5.205c-8.17,3.487-11.983-7.094-11.983-7.094s14.467-26.463,18.771-26.463
				C177.509,173.78,191.521,200.243,191.521,200.243z"/>
			<g>
				<path style="fill:#754C29;" d="M161.306,203.615c-1.046,0.539,1.041,2.705,2.882,4.356c0.704-0.097,1.446-0.3,2.229-0.634
					C166.417,207.337,163.051,202.716,161.306,203.615z"/>
				<path style="fill:#754C29;" d="M184.674,203.615c1.046,0.539-1.041,2.705-2.882,4.356c-0.704-0.097-1.446-0.3-2.229-0.634
					C179.563,207.337,182.929,202.716,184.674,203.615z"/>
			</g>
			<path style="fill:#FED09E;" d="M188.417,199.98c-1.861-0.363-3.728-0.687-5.6-0.961c-3.735-0.547-7.49-0.897-11.252-0.968
				c-3.354-0.063-6.733,0.058-10.065,0.552c-2.341,0.347-4.725,0.907-6.928,1.988c0.743,1.787,4.56,9.855,11.845,6.746
				c0,0,1.547,5.205,6.509,5.205h0.104c4.962,0,6.509-5.205,6.509-5.205c7.101,3.03,10.908-4.562,11.784-6.602
				C190.361,200.436,189.394,200.171,188.417,199.98z"/>
		</g>
		<path style="fill:#231F20;" d="M203.97,222.394c-5.033,3.499-11.08,5.043-17.019,6.141c-0.69,0.102-2.325,0.337-2.984,0.434
			c-0.613,0.062-2.357,0.24-2.998,0.303c-2.308,0.211-5.668,0.292-8.019,0.307v-0.624h0.089v0.624l-4.012-0.054
			c-2.279-0.104-4.733-0.282-7.007-0.539c-0.666-0.094-2.308-0.333-2.986-0.429c-4.618-0.813-9.256-1.989-13.494-4.045
			c-1.228-0.594-2.399-1.223-3.554-2.078l0.715-0.874c4.275,3.047,9.446,4.631,14.532,5.767c0,0,1.946,0.397,1.946,0.397
			c0.679,0.11,2.295,0.366,2.944,0.471c2.253,0.29,4.674,0.504,6.934,0.643l3.983,0.117v0.624h-0.089v-0.624
			c3.104-0.054,6.872-0.225,9.931-0.629c1.12-0.105,2.813-0.411,3.934-0.579c4.526-0.864,9.057-2.077,13.182-4.15
			c1.166-0.579,2.338-1.246,3.324-1.997L203.97,222.394L203.97,222.394z"/>
		<g>
			<path style="fill:#3A3F4F;" d="M105.081,116.607c0,0-7.228,27.656-3.3,56.727c0,0-17.128-27.814-15.242-51.384
				C88.424,98.378,105.081,116.607,105.081,116.607z"/>
			<path style="fill:#3A3F4F;" d="M105.081,116.607c0,0-7.228,27.656-3.3,56.727c0,0-17.128-27.814-15.242-51.384
				C88.424,98.378,105.081,116.607,105.081,116.607z"/>
			<path style="fill:#3A3F4F;" d="M105.081,116.607c0,0-7.228,27.656-3.3,56.727c0,0-17.128-27.814-15.242-51.384
				C88.424,98.378,105.081,116.607,105.081,116.607z"/>
		</g>
		<g>
			<path style="fill:#3A3F4F;" d="M239.109,107.213c0,0,8.153,32.236,3.722,66.121c0,0,19.319-32.419,17.192-59.894
				C257.896,85.966,239.109,107.213,239.109,107.213z"/>
			<path style="fill:#3A3F4F;" d="M239.109,107.213c0,0,8.153,32.236,3.722,66.121c0,0,19.319-32.419,17.192-59.894
				C257.896,85.966,239.109,107.213,239.109,107.213z"/>
			<path style="fill:#3A3F4F;" d="M239.109,107.213c0,0,8.153,32.236,3.722,66.121c0,0,19.319-32.419,17.192-59.894
				C257.896,85.966,239.109,107.213,239.109,107.213z"/>
		</g>
		<path style="fill:#3A3F4F;" d="M247.813,66.668c-3.246-51.944-65.239-56.273-65.239-56.273
			c17.933,4.483,25.508,11.44,25.508,11.44c-51.48-24.581-95.386-3.246-95.386-3.246c12.368-4.174,24.581-1.855,24.581-1.855
			c-59.365,4.174-70.65,50.707-70.65,50.707C76.521,49.353,92.29,47.653,92.29,47.653S73.43,54.146,68.792,73.779
			c-4.638,19.634,3.71,36.175,3.71,36.175c-0.773-12.368,6.029-20.252,6.029-20.252c-10.358,26.9,2.473,37.412,2.473,37.412
			c-0.927-3.092,0.206-7.469,0.206-7.469c2.875,15.812-5.462,23.574-5.462,23.574c18.112-2.012,20.412-17.824,20.412-17.824
			c29.899-1.437,27.886-24.149,63.535-44.273c35.648-20.124,42.261,23.861,59.51,23.287c17.249-0.575,21.562-16.099,21.562-16.099
			s-8.113,33.557,6.695,46.442c0,0-0.769-10.001,8.27-16.347c0,0-3.462,4.423-2.885,7.308c0,0,2.693-6.154,11.539-10.962
			c8.847-4.808,15.193-36.348-4.616-44.426c0,0,13.655,0.962,15.578,20.001c0,0,4.231-22.309-19.039-25.963
			c0,0,0.306-14.33-8.579-20.693C247.729,43.67,253.847,56.247,247.813,66.668"/>
		<g>
			<path style="fill:#3A3F4F;" d="M243.781,71.475c0,0-13.214-48.368-68.313-47.121c0,0,20.693,0.249,30.915,13.214
				c0,0-30.417-19.945-75.793,5.485C130.591,43.053,202.145,14.631,243.781,71.475z"/>
			<path style="fill:#3A3F4F;" d="M210.387,94.67c-6.438-5.501-10.409-13.084-17.395-18.085c-6.514-4.663-14.732-6.285-22.611-5.126
				c-11.907,1.753-21.852,8.678-30.089,17.128c-4.222,4.33-8.046,9.026-11.806,13.757c-3.839,4.83-7.299,10.318-12.139,14.249
				c-4.911,3.987-10.791,5.352-16.985,4.477c-1.782-0.252-9.82-1.517-10.676-3.595c3.397,8.25,7.475,7.92,7.475,7.92
				c29.899-1.437,27.886-24.149,63.535-44.273c35.649-20.124,42.261,23.861,59.51,23.287c17.249-0.575,21.562-16.099,21.562-16.099
				s-0.424,1.755-0.9,4.611c2.123-7.57,3.595-14.093,3.595-14.093C239.431,90.086,221.891,104.501,210.387,94.67z"/>
			<path style="fill:#3A3F4F;" d="M145.445,52.366c-36.902,3.141-59.409,24.078-66.914,37.336
				c-4.289,11.138-4.6,19.464-3.495,25.401C86.912,59.805,145.445,52.366,145.445,52.366z"/>
		</g>
	</g>
</g>
</svg>
