<?xml version="1.0" encoding="utf-8"?>
<!-- Generator: Adobe Illustrator 27.5.0, SVG Export Plug-In . SVG Version: 6.00 Build 0)  -->
<svg version="1.1" id="Layer_1" xmlns="http://www.w3.org/2000/svg" xmlns:xlink="http://www.w3.org/1999/xlink" x="0px" y="0px"
	 viewBox="0 0 248.28 360.974" style="enable-background:new 0 0 248.28 360.974;" xml:space="preserve">
<g>
	<g>
		<path style="fill:#2A2938;" d="M173.618,93.609c3.372,2.858,8.612,3.586,12.506,1.494c3.894-2.092,5.632-7.925,2.662-11.199
			c3.962,0.648,8.248-0.949,10.712-4.118c2.464-3.17,2.935-7.803,1.037-11.341c-1.898-3.538-6.113-5.721-10.079-5.097
			c4.937-3.138,7.883-9.157,7.333-14.98c-0.177-1.876-0.797-3.878-2.359-4.932c-1.066-0.72-2.417-0.885-3.702-0.814
			c-2.895,0.16-5.713,1.457-7.716,3.553c1.543-5.441,2.321-11.294,0.751-16.727s-5.902-10.331-11.479-11.268
			c-1.997-0.336-4.041-0.164-6.057,0.036c-2.344,0.234-5.294,1.091-5.498,3.437c-1.283-5.567-4.724-11.327-10.312-12.518
			c-2.164-0.461-4.411-0.179-6.6,0.145c-6.835,1.012-14.136,2.857-17.373,8.961c-0.733-4.486-5.691-7.559-10.187-6.893
			c-4.496,0.666-8.15,4.459-9.42,8.824c0.709-5.333-2.39-10.889-7.192-13.315C95.842,4.429,89.691,5.147,85.413,8.41
			c-4.278,3.263-6.585,8.843-6.13,14.204c-2.456-1.919-5.365-3.367-8.469-3.653c-3.104-0.285-6.406,0.711-8.497,3.022
			c-2.874,3.175-2.906,7.407-2.624,11.68c-1.368-2.724-4.833-3.944-7.824-3.359c-2.992,0.585-5.514,2.643-7.405,5.034
			c-4.01,5.071-5.626,11.957-4.292,18.282c-1.935,2.127-3.895,4.29-5.187,6.859c-1.293,2.569-1.856,5.642-0.87,8.343
			c0.986,2.701,3.791,4.821,6.639,4.421c-3.184,4.003-2.932,10.333,0.561,14.07c1.395,1.492,3.631,2.601,5.454,1.679
			c-0.402,4.113-0.789,8.367,0.493,12.295c1.282,3.929,4.702,7.473,8.834,7.543c3.357,0.056,6.341-2.111,8.681-4.519
			C64.777,104.312,108.657,38.539,173.618,93.609z"/>
		<path style="opacity:0.43;fill:#2A2938;" d="M163.923,96.246c2.787,2.363,7.12,2.965,10.339,1.235
			c3.219-1.73,4.656-6.553,2.201-9.259c3.276,0.535,6.819-0.784,8.856-3.405c2.037-2.621,2.426-6.451,0.857-9.377
			c-1.569-2.925-5.054-4.73-8.333-4.214c4.081-2.594,6.517-7.571,6.063-12.385c-0.146-1.551-0.659-3.206-1.951-4.078
			c-0.881-0.595-1.999-0.732-3.06-0.673c-2.394,0.132-4.723,1.205-6.38,2.938c1.276-4.498,1.919-9.337,0.621-13.829
			s-4.88-8.541-9.491-9.316c-1.651-0.278-3.341-0.136-5.008,0.03c-1.938,0.193-4.377,0.902-4.545,2.842
			c-1.06-4.603-3.906-9.365-8.525-10.349c-1.789-0.382-3.647-0.148-5.457,0.12c-5.651,0.837-11.687,2.362-14.363,7.409
			c-0.606-3.709-4.705-6.25-8.423-5.699c-3.717,0.55-6.738,3.687-7.788,7.295c0.587-4.409-1.976-9.002-5.946-11.008
			c-3.97-2.006-9.056-1.412-12.592,1.285c-3.536,2.698-5.445,7.311-5.068,11.743c-2.031-1.586-4.436-2.784-7.002-3.02
			c-2.566-0.236-5.296,0.588-7.025,2.498c-2.376,2.625-2.403,6.123-2.17,9.656c-1.131-2.252-3.995-3.261-6.469-2.777
			c-2.474,0.484-4.559,2.185-6.122,4.162c-3.315,4.193-4.652,9.885-3.549,15.115c-1.6,1.759-3.22,3.547-4.289,5.671
			c-1.069,2.124-1.535,4.664-0.719,6.898c0.815,2.234,3.134,3.986,5.489,3.655c-2.633,3.309-2.424,8.543,0.464,11.632
			c1.153,1.234,3.002,2.151,4.509,1.388c-0.332,3.401-0.653,6.917,0.408,10.165c1.06,3.248,3.888,6.178,7.304,6.236
			c2.775,0.047,5.243-1.745,7.177-3.736C73.938,105.094,110.216,50.716,163.923,96.246z"/>
		<path style="opacity:0.43;fill:#2A2938;" d="M150.706,99.841c1.991,1.688,5.086,2.118,7.385,0.882
			c2.3-1.236,3.326-4.681,1.572-6.614c2.34,0.382,4.871-0.56,6.326-2.432c1.455-1.872,1.733-4.608,0.612-6.698
			c-1.121-2.09-3.61-3.378-5.952-3.01c2.915-1.853,4.656-5.408,4.331-8.847c-0.105-1.108-0.471-2.29-1.394-2.913
			c-0.63-0.425-1.428-0.523-2.186-0.481c-1.71,0.094-3.374,0.86-4.557,2.098c0.911-3.213,1.371-6.67,0.443-9.879
			c-0.927-3.209-3.485-6.101-6.779-6.655c-1.18-0.198-2.387-0.097-3.577,0.022c-1.384,0.138-3.126,0.644-3.247,2.03
			c-0.757-3.288-2.79-6.689-6.09-7.393c-1.278-0.273-2.605-0.106-3.898,0.085c-4.036,0.598-8.348,1.687-10.26,5.292
			c-0.433-2.649-3.361-4.464-6.016-4.071c-2.655,0.393-4.813,2.634-5.563,5.211c0.419-3.149-1.411-6.431-4.247-7.863
			c-2.836-1.433-6.469-1.009-8.995,0.918c-2.526,1.927-3.889,5.223-3.62,8.389c-1.451-1.133-3.168-1.989-5.001-2.157
			c-1.833-0.168-3.783,0.42-5.018,1.785c-1.697,1.875-1.716,4.374-1.55,6.898c-0.808-1.609-2.854-2.329-4.621-1.983
			c-1.767,0.346-3.256,1.561-4.373,2.973c-2.368,2.995-3.323,7.061-2.535,10.797c-1.143,1.256-2.3,2.533-3.063,4.051
			c-0.763,1.517-1.096,3.332-0.514,4.927c0.582,1.595,2.239,2.847,3.921,2.611c-1.88,2.364-1.731,6.102,0.331,8.309
			c0.824,0.881,2.144,1.536,3.221,0.992c-0.237,2.429-0.466,4.941,0.291,7.261c0.757,2.32,2.777,4.413,5.217,4.454
			c1.982,0.033,3.745-1.247,5.127-2.668C86.428,106.162,112.342,67.319,150.706,99.841z"/>
		<path style="fill:#B36E4F;" d="M151.482,257.286c0,0,0,14.765,0,27.168c0,12.403,13.289,15.304,35.103,20.086
			c21.814,4.781,53.489,0.896,57.971,50.799c0,0-239.995,0.495-240.831,0c4.482-49.903,36.157-46.018,57.971-50.799
			c21.814-4.781,35.103-7.683,35.103-20.086c0-12.403,0-27.168,0-27.168S150.975,257.793,151.482,257.286z"/>
		<path style="opacity:0.47;fill:#834D2A;" d="M110.107,279.866c8.046,2.784,16.926,3.044,25.268,1.55
			c5.659-1.014,11.095-2.979,16.107-5.75c0-9.663,0-18.379,0-18.379c-0.507,0.507-54.684,0-54.684,0s0,6.931,0,15.284
			C100.763,275.758,105.34,278.216,110.107,279.866z"/>
		<path style="fill:#FDC25B;" d="M186.585,304.54c-1.044-0.229-2.062-0.452-3.066-0.674c-0.335,0.274-0.671,0.546-1.005,0.821
			c-6.236,5.118-12.227,10.539-18.584,15.509c-6.438,5.034-13.241,9.545-20.936,12.415c-6.936,2.587-14.311,3.803-21.71,3.538
			c-7.722-0.276-15.172-2.144-22.441-4.665c-5.46-1.893-10.683-4.377-15.65-7.329c-5.41-3.215-10.575-6.969-15.028-11.431
			c-2.426-2.43-4.745-5.16-6.511-8.176c-21.812,4.767-53.45,0.919-57.929,50.79c0.836,0.495,240.831,0,240.831,0
			C240.073,305.436,208.399,309.321,186.585,304.54z"/>
		<g>
			<path style="fill:#9E5D45;" d="M50.096,205.51c2.216,3.133,4.93,5.984,8.201,8.075c2.577,1.647,7.387,4.421,10.38,2.996
				c3.07-1.462,3.376-6.851,3.515-9.795c0.197-4.157-0.518-8.567-1.956-12.622c-0.308-2.24-0.862-4.505-1.8-6.609
				c-1.609-3.609-4.421-7.33-8.222-8.93c-6.645-2.797-13.628,0.214-15.48,6.751C42.777,192.289,45.923,199.612,50.096,205.51z"/>
			<path style="opacity:0.47;fill:#834D2A;" d="M65.498,216.855c-0.44-1.506-0.86-3.016-1.256-4.532
				c-1.579-6.046-2.819-12.195-3.387-18.376c-0.457-4.971-0.494-10.012,0.276-14.879c3.338,1.775,5.83,5.176,7.307,8.488
				c0.938,2.104,1.491,4.368,1.8,6.609c1.438,4.055,2.153,8.465,1.956,12.622c-0.139,2.944-0.445,8.332-3.515,9.795
				C67.751,217.022,66.651,217.06,65.498,216.855z"/>
			<path style="opacity:0.47;fill:#834D2A;" d="M47.882,185.729c0.708-1.222,2.022-1.901,3.397-2.021
				c3.165-0.277,6.456,2.171,8.495,4.583c4.539,5.37,5.475,12.887,5.823,19.522c0.02,0.388-0.535,0.094-0.579-0.178
				c-0.173-1.075-0.349-2.167-0.539-3.265c-0.114,0.774-0.288,1.532-0.462,2.21c-0.341,1.332-1.138,2.491-2.585,2.505
				c-3.493,0.033-5.976-4.37-7.701-6.904c-0.162-0.238,0.191-0.288,0.326-0.125c1.603,1.939,3.27,4.462,5.632,5.462
				c1.901,0.805,2.72-0.567,3.211-2.149c0.405-1.304,1.054-2.806,0.747-4.226c-0.043-0.197,0.03-0.295,0.143-0.325
				c-0.715-3.261-1.703-6.474-3.343-9.356c-1.424-2.504-3.563-4.824-6.259-5.818c-1.836-0.677-3.825-0.453-4.927,1.223
				c-1.029,1.564-0.674,3.705-0.902,5.537c-0.027,0.218-0.371-0.008-0.381-0.162C47.836,190.069,46.723,187.728,47.882,185.729z"/>
		</g>
		<g>
			<path style="fill:#9E5D45;" d="M202.797,185.378c-1.852-6.538-8.835-9.548-15.48-6.751c-3.801,1.6-6.613,5.32-8.221,8.93
				c-0.938,2.104-1.492,4.368-1.8,6.609c-1.438,4.055-2.153,8.465-1.956,12.622c0.14,2.944,0.445,8.332,3.515,9.795
				c2.993,1.426,7.803-1.349,10.38-2.996c3.271-2.091,5.985-4.942,8.201-8.075C201.608,199.612,204.755,192.289,202.797,185.378z"/>
			<path style="opacity:0.47;fill:#834D2A;" d="M182.034,216.855c0.44-1.506,0.86-3.016,1.256-4.532
				c1.579-6.046,2.819-12.195,3.387-18.376c0.457-4.971,0.494-10.012-0.276-14.879c-3.338,1.775-5.83,5.176-7.306,8.488
				c-0.938,2.104-1.492,4.368-1.8,6.609c-1.438,4.055-2.153,8.465-1.956,12.622c0.14,2.944,0.445,8.332,3.515,9.795
				C179.78,217.022,180.88,217.06,182.034,216.855z"/>
			<path style="opacity:0.47;fill:#834D2A;" d="M199.65,185.729c-0.708-1.222-2.022-1.901-3.397-2.021
				c-3.165-0.277-6.456,2.171-8.495,4.583c-4.539,5.37-5.475,12.887-5.823,19.522c-0.02,0.388,0.535,0.094,0.579-0.178
				c0.173-1.075,0.349-2.167,0.539-3.265c0.114,0.774,0.288,1.532,0.462,2.21c0.341,1.332,1.138,2.491,2.585,2.505
				c3.493,0.033,5.976-4.37,7.701-6.904c0.162-0.238-0.191-0.288-0.326-0.125c-1.604,1.939-3.27,4.462-5.632,5.462
				c-1.901,0.805-2.72-0.567-3.212-2.149c-0.405-1.304-1.054-2.806-0.747-4.226c0.043-0.197-0.03-0.295-0.143-0.325
				c0.715-3.261,1.703-6.474,3.342-9.356c1.424-2.504,3.563-4.824,6.259-5.818c1.836-0.677,3.825-0.453,4.927,1.223
				c1.029,1.564,0.674,3.705,0.902,5.537c0.027,0.218,0.371-0.008,0.381-0.162C199.695,190.069,200.808,187.728,199.65,185.729z"/>
		</g>
		<path style="fill:#2A2938;" d="M65.367,185.926c0,0-16.47-31.936-7.092-67.492c5.491-20.82,23.055-46.668,63.899-49.349
			c42.655-2.8,93.841,40.527,62.124,114.019L65.367,185.926z"/>
		<path style="fill:#B36E4F;" d="M64.537,180.059c0,0-1.346,36.511,10.432,57.205c11.778,20.695,33.903,31.58,50.407,31.58
			s49.768-15.472,55.441-54.152c5.673-38.68,3.868-71.945-15.214-86.643c-19.082-14.699-45.9-17.277-66.272-9.283
			C78.959,126.76,63.781,138.721,64.537,180.059z"/>
		<path style="opacity:0.47;fill:#834D2A;" d="M106.997,211.96c0,0,4.794-4.747,8.297-1.551c3.845,3.508,9.579,7.555,14.639,2.833
			c5.059-4.722,7.623-4.655,10.456-2.631c2.833,2.024,2.563,6.409-2.024,6.813c-4.587,0.405-8.567,1.754-11.94,2.496
			c-3.373,0.742-7.42-0.472-11.94-1.687C109.965,217.019,103.084,216.884,106.997,211.96z"/>
		<g>
			<path style="fill:#FFFFFF;" d="M142.218,189.294c0,0,3.848,7.953,16.336,6.145c12.464-1.805,10.669-11.756,10.669-11.756
				s-4.428-6.641-13.836-6.026C144.259,178.383,142.218,189.294,142.218,189.294z"/>
			<g>
				<g>
					<circle style="fill:#5D3331;" cx="156.174" cy="185.679" r="7.594"/>
					<circle style="fill:#1A1716;" cx="156.174" cy="185.679" r="5.655"/>
					<path style="fill:#FFFFFF;" d="M156.902,182.557c0,1.237,1.003,2.239,2.239,2.239s2.24-1.003,2.24-2.239
						s-1.003-2.239-2.24-2.239S156.902,181.32,156.902,182.557z"/>
					<path style="fill:#FFFFFF;" d="M160.909,185.871c0,0.365,0.296,0.661,0.661,0.661s0.661-0.296,0.661-0.661
						s-0.296-0.661-0.661-0.661S160.909,185.506,160.909,185.871z"/>
				</g>
			</g>
			<path style="fill:#332A3C;" d="M173.33,167.37c0,0-3.773-6.468-12.397-5.39s-17.571,5.929-20.374,5.066
				c-2.803-0.862-2.264-5.929,7.654-7.977C158.13,157.021,170.743,155.835,173.33,167.37z"/>
			<path style="fill:#3A272A;" d="M142.218,189.294c0,0,2.161-10.962,14.029-11.269c8.24,0.369,12.975,5.657,12.975,5.657
				l3.874-2.152c0,0-7.256-5.965-17.403-5.719S141.41,185.374,142.218,189.294z"/>
			<path style="fill:#6B4331;" d="M143.511,181.428c4.071-7.588,12.589-9.601,20.271-6.435c2.419,0.931,4.647,2.265,6.719,3.77
				c-2.781-1.533-5.66-2.945-8.741-3.747C154.653,173.008,147.737,175.295,143.511,181.428L143.511,181.428z"/>
		</g>
		<g>
			<path style="fill:#FFFFFF;" d="M106.045,189.294c0,0-3.848,7.953-16.336,6.145c-12.464-1.805-10.669-11.756-10.669-11.756
				s4.427-6.641,13.836-6.026C104.003,178.383,106.045,189.294,106.045,189.294z"/>
			<g>
				<g>
					<circle style="fill:#5D3331;" cx="92.089" cy="185.679" r="7.594"/>
					<path style="fill:#1A1716;" d="M86.434,185.679c0,3.123,2.532,5.655,5.655,5.655c3.123,0,5.655-2.532,5.655-5.655
						c0-3.123-2.532-5.655-5.655-5.655C88.966,180.024,86.434,182.556,86.434,185.679z"/>
					<path style="fill:#FFFFFF;" d="M92.817,182.557c0,1.237,1.003,2.239,2.24,2.239s2.239-1.003,2.239-2.239
						s-1.003-2.239-2.239-2.239S92.817,181.32,92.817,182.557z"/>
					<path style="fill:#FFFFFF;" d="M96.825,185.871c0,0.365,0.296,0.661,0.661,0.661c0.365,0,0.661-0.296,0.661-0.661
						s-0.296-0.661-0.661-0.661C97.121,185.21,96.825,185.506,96.825,185.871z"/>
				</g>
			</g>
			<path style="fill:#332A3C;" d="M74.933,167.37c0,0,3.773-6.468,12.397-5.39c8.624,1.078,17.571,5.929,20.374,5.066
				c2.803-0.862,2.264-5.929-7.654-7.977C90.132,157.021,77.52,155.835,74.933,167.37z"/>
			<path style="fill:#3A272A;" d="M106.045,189.294c0,0-2.161-10.962-14.029-11.269c-8.24,0.369-12.975,5.657-12.975,5.657
				l-3.874-2.152c0,0,7.256-5.965,17.403-5.719S106.853,185.374,106.045,189.294z"/>
			<path style="fill:#6B4331;" d="M104.751,181.428c-4.071-7.588-12.589-9.601-20.271-6.435c-2.419,0.931-4.647,2.265-6.719,3.77
				c2.781-1.533,5.66-2.945,8.741-3.747C93.61,173.008,100.525,175.295,104.751,181.428L104.751,181.428z"/>
		</g>
		<g>
			<g style="opacity:0.47;">
				<path style="fill:#834D2A;" d="M117.236,216.945c0,0-2.174-4.453-4.506-3.499C110.397,214.401,113.048,216.998,117.236,216.945z
					"/>
				<path style="fill:#834D2A;" d="M131.029,216.945c0,0,2.173-4.453,4.506-3.499C137.867,214.401,135.217,216.998,131.029,216.945z
					"/>
			</g>
			<path style="opacity:0.3;fill:#B36E4F;" d="M128.899,205.839c0,1.472-1.886,2.665-4.212,2.665c-2.326,0-4.212-1.193-4.212-2.665
				c0-1.472,1.886-2.665,4.212-2.665C127.013,203.175,128.899,204.368,128.899,205.839z"/>
		</g>
		<g>
			<g>
				<path style="fill:#BE5741;" d="M131.931,236.528c-4.411-1.399-5.985,1.099-7.851,0.85c-1.866-0.249-2.364-2.488-8.149-0.56
					c-3.503,1.113-8.281,1.02-12.022,0.682c5.291,3.429,9.509,10.12,19.82,10.423c10.521,0.309,16.028-5.827,20.887-10.798
					C141.109,238.446,135.635,237.703,131.931,236.528z"/>
				<path style="fill:#8B4037;" d="M115.931,236.818c5.785-1.928,6.283,0.311,8.149,0.56c1.866,0.249,3.44-2.249,7.851-0.85
					c3.704,1.174,9.178,1.918,12.685,0.598c0.039-0.04,0.078-0.081,0.118-0.12c-2.392-0.312-7.175-3.951-10.71-6.239
					c-3.535-2.287-6.239-2.911-9.982-1.664c-2.392-1.04-6.031-1.56-12.062,2.807c-6.031,4.367-8.526,5.303-8.526,5.303
					c0.153,0.092,0.305,0.189,0.456,0.287C107.65,237.838,112.428,237.932,115.931,236.818z"/>
			</g>
			<path style="fill:#8B4037;" d="M113.6,245.052c5.508,2.681,11.932,3.071,17.82,1.555c0.368-0.064,0.905-0.25,1.266-0.352
				c0.421-0.124,0.846-0.243,1.275-0.359c-0.569,0.278-1.224,0.573-1.809,0.833C126.224,249.141,118.904,248.806,113.6,245.052
				L113.6,245.052z"/>
			<path style="fill:#693B31;" d="M114.214,237.387c2.226-1.214,5.067-1.762,7.599-1.029c0.835,0.249,1.629,0.616,2.43,0.721
				c0.806,0.104,1.613-0.186,2.402-0.496c2.455-1.064,5.301-0.411,7.649,0.528c-0.829-0.236-1.659-0.464-2.507-0.606
				c-1.674-0.329-3.431-0.28-4.994,0.395c-0.781,0.316-1.657,0.662-2.601,0.555c-0.921-0.138-1.691-0.522-2.499-0.77
				C119.244,235.954,116.51,236.388,114.214,237.387L114.214,237.387z"/>
		</g>
	</g>
	<g style="opacity:0.43;">
		<path style="fill:#2A2938;" d="M125.307,104.889c-0.609-0.08-1.218-0.161-1.827-0.243c-0.056-0.074-0.111-0.149-0.168-0.222
			c0.04-0.049,0.072-0.094,0.08-0.121c0.351-1.166,0.531-2.392,0.725-3.593c0.187-1.154,0.346-2.313,0.497-3.471
			c0.301-2.314,0.53-4.64,0.717-6.966c0.379-4.688,0.532-9.409,0.426-14.111c-0.059-2.626-0.186-5.25-0.375-7.869
			c-0.014-0.189-0.329,0.09-0.324,0.217c0.372,9.341-0.012,18.739-1.177,28.016c-0.165,1.314-0.335,2.627-0.525,3.938
			c-0.129,0.891-0.288,1.795-0.399,2.699c-1.174-4.525-2.526-8.988-3.507-13.564c-0.961-4.483-1.691-9.009-2.256-13.559
			c-0.309-2.489-0.423-5.025-0.86-7.494c-0.052-0.294-0.574,0.273-0.583,0.439c-0.127,2.364,0.121,4.768,0.336,7.122
			c0.207,2.279,0.488,4.549,0.825,6.812c0.682,4.593,1.618,9.146,2.765,13.644c0.435,1.706,0.892,3.407,1.429,5.082
			c-0.515-0.648-1.026-1.299-1.518-1.964c-1.566-2.117-3.071-4.278-4.495-6.493c-2.81-4.37-5.338-8.932-7.549-13.634
			c-1.247-2.65-2.42-5.335-3.483-8.064c-0.066-0.169-0.432,0.179-0.377,0.334c3.505,9.915,8.458,19.297,14.622,27.818
			c0.862,1.192,1.751,2.364,2.66,3.52c0.233,0.296,0.466,0.593,0.701,0.889c-1.471-1.207-2.939-2.416-4.346-3.699
			c-1.957-1.786-3.817-3.673-5.594-5.638c-3.532-3.907-6.675-8.17-9.389-12.682c-1.523-2.532-2.918-5.147-4.164-7.826
			c-0.088-0.19-0.488,0.201-0.417,0.369c2.052,4.873,4.604,9.523,7.633,13.858c3.054,4.37,6.541,8.427,10.419,12.087
			c1.314,1.24,2.664,2.458,4.075,3.596c-0.026-0.004-0.053-0.009-0.079-0.013c-1.341-0.453-2.665-0.956-3.966-1.514
			c-2.73-1.17-5.36-2.567-7.863-4.167c-4.999-3.193-9.472-7.149-13.263-11.71c-1.066-1.283-2.062-2.617-3.012-3.987
			c-0.941-1.356-1.775-2.783-2.72-4.135c-0.069-0.098-0.322,0.189-0.282,0.287c1.107,2.74,2.888,5.277,4.665,7.621
			c1.814,2.394,3.835,4.619,6.029,6.67c4.196,3.922,8.998,7.16,14.195,9.603c-2.365-0.633-4.696-1.397-6.975-2.29
			c-6.02-2.358-11.7-5.611-16.776-9.616c-1.398-1.104-2.747-2.269-4.057-3.476c-1.384-1.276-2.768-2.655-3.54-4.402
			c-0.065-0.148-0.377,0.163-0.33,0.294c0.566,1.574,1.608,2.843,2.767,4.022c1.14,1.16,2.344,2.257,3.585,3.308
			c2.472,2.094,5.104,4.007,7.869,5.697c5.528,3.379,11.558,5.945,17.831,7.568c1.653,0.428,3.329,0.801,5.018,1.093
			c1.113,0.384,2.242,0.747,3.392,1.004c0.123,0.084,0.244,0.172,0.368,0.254c0.117,0.078,0.279,0.019,0.421-0.095
			c0.113,0.02,0.226,0.036,0.339,0.053c0.104,0.112,0.206,0.226,0.314,0.334c0.225,0.226,0.76-0.414,0.578-0.665
			c-0.025-0.035-0.053-0.068-0.078-0.103c0.022-0.075,0.02-0.142-0.027-0.189c0.189,0.009,0.379,0.022,0.568,0.028
			C125.117,105.595,125.633,104.932,125.307,104.889z"/>
		<path style="fill:#2A2938;" d="M171.533,87.061c-0.137-0.145-0.27-0.291-0.398-0.44c-0.307,0.555-0.636,1.1-1.005,1.629
			c-0.934,1.339-2.047,2.556-3.249,3.658c-2.528,2.319-5.432,4.201-8.432,5.849c-6.437,3.536-13.554,5.861-20.826,6.875
			c-2.014,0.281-4.044,0.476-6.075,0.57c-1.048,0.049-2.098,0.082-3.148,0.089c-0.488,0.003-0.977-0.004-1.466,0
			c0.501-0.144,1.002-0.29,1.503-0.438c0.035,0.041,0.093,0.069,0.186,0.072c0.58,0.022,1.166-0.178,1.711-0.366
			c0.629-0.217,1.241-0.489,1.84-0.777c0.165-0.079,0.325-0.166,0.487-0.25c3.992-1.32,7.924-2.843,11.683-4.697
			c5.056-2.494,9.809-5.655,13.718-9.745c2.115-2.213,3.992-4.687,5.321-7.453c0.205-0.427-0.339-0.244-0.475-0.01
			c-2.702,4.664-6.276,8.611-10.63,11.789c-4.743,3.462-10.106,5.944-15.575,8.025c-0.517,0.197-1.038,0.384-1.558,0.574
			c0.069-0.048,0.139-0.094,0.207-0.143c2.041-1.458,3.85-3.221,5.493-5.111c3.527-4.057,6.437-8.654,8.659-13.545
			c1.256-2.763,2.27-5.626,3.06-8.556c0.106-0.394-0.466,0.01-0.53,0.22c-1.536,5.047-3.758,9.86-6.56,14.328
			c-2.6,4.145-5.717,8.192-9.603,11.211c-1.049,0.815-2.168,1.54-3.353,2.142c-0.719,0.366-1.485,0.623-2.238,0.903
			c0.802-0.574,1.534-1.251,2.189-1.953c1.623-1.741,2.87-3.801,3.952-5.91c2.569-5.008,4.479-10.378,5.71-15.867
			c0.682-3.041,1.128-6.132,1.378-9.238c0.023-0.284-0.477,0.13-0.499,0.325c-0.62,5.405-1.858,10.748-3.65,15.885
			c-0.874,2.504-1.891,4.958-3.042,7.347c-0.996,2.066-2.091,4.118-3.535,5.911c-0.742,0.921-1.567,1.759-2.507,2.479
			c-0.981,0.751-2.103,1.286-3.248,1.735c-0.006,0.002-0.011,0.007-0.017,0.009c0.724-1.593,1.207-3.317,1.601-4.998
			c0.552-2.36,0.874-4.767,1.066-7.182c0.396-4.962,0.207-9.949,0.131-14.92c-0.044-2.883-0.014-5.768,0.236-8.641
			c0.022-0.253-0.429,0.121-0.45,0.295c-1.184,9.887,0.325,19.997-1.772,29.786c-0.268,1.253-0.59,2.499-0.989,3.717
			c-0.341,1.041-0.743,2.061-1.11,3.093c-0.119,0.009-0.239,0.014-0.358,0.027c-0.085,0.009-0.331,0.281-0.187,0.322
			c0.128,0.036,0.26,0.06,0.391,0.088c-0.013,0.039-0.028,0.077-0.041,0.116c-0.145,0.43,0.387,0.164,0.571-0.02
			c0.603,0.085,1.218,0.117,1.821,0.144c0.915,0.042,1.832,0.068,2.749,0.056c1.877-0.024,3.753-0.132,5.618-0.348
			c3.748-0.434,7.467-1.212,11.069-2.336c3.59-1.121,7.075-2.576,10.398-4.336c3.134-1.659,6.191-3.573,8.859-5.921
			c1.456-1.281,2.792-2.695,3.937-4.262c0.386-0.528,0.765-1.092,1.112-1.68C171.618,87.146,171.574,87.104,171.533,87.061z"/>
		<g>
			<path style="fill:#2A2938;" d="M185.972,150.616c-0.432-5.919-1.787-11.874-4.697-17.09c-3.019-5.411-7.605-9.596-12.96-12.641
				c-5.629-3.201-11.824-5.182-18.023-6.947c-6.729-1.915-13.594-3.606-19.996-6.484c-0.842-0.378-1.673-0.78-2.493-1.202
				c-0.148-0.076-0.44,0.293-0.316,0.364c6.032,3.416,12.659,5.452,19.283,7.372c6.232,1.807,12.489,3.636,18.307,6.563
				c5.534,2.784,10.582,6.648,13.986,11.89c3.217,4.955,4.907,10.737,5.571,16.57c0.69,6.059,0.246,12.095-0.425,18.132
				c-0.082,0.741-0.171,1.482-0.258,2.223c-0.079,0.674,0.791,0.055,0.866-0.32C186.024,163.023,186.42,156.744,185.972,150.616z"/>
			<path style="fill:#2A2938;" d="M190.722,141.464c-1.169-5.513-3.513-10.725-6.9-15.231c-3.15-4.189-7.151-7.735-11.682-10.369
				c-2.267-1.318-4.665-2.415-7.151-3.249c-2.739-0.919-5.573-1.513-8.412-2.024c-5.714-1.027-11.575-1.745-16.996-3.935
				c-0.706-0.285-1.399-0.599-2.079-0.94c-0.144-0.072-0.433,0.285-0.31,0.357c4.962,2.884,10.584,3.863,16.162,4.84
				c5.517,0.966,10.981,2.075,16.01,4.638c4.632,2.361,8.792,5.664,12.157,9.627c3.596,4.235,6.215,9.237,7.686,14.593
				c1.539,5.603,1.774,11.475,0.853,17.204c-0.113,0.704-0.248,1.404-0.401,2.101c-0.049,0.223,0.099,0.314,0.299,0.26
				c0.229-0.062,0.429-0.339,0.485-0.558C191.892,153.12,191.933,147.17,190.722,141.464z"/>
			<path style="fill:#2A2938;" d="M184.258,117.834c-6.156-6.32-14.498-9.908-23.028-11.703c-5.156-1.085-10.416-1.557-15.676-1.709
				c-0.142-0.004-0.4,0.363-0.25,0.375c8.987,0.723,18.109,2.025,26.389,5.775c7.547,3.418,14.126,9.104,17.745,16.65
				c1.909,3.982,2.884,8.408,2.643,12.829c-0.014,0.247,0.279,0.186,0.412,0.11c0.216-0.124,0.369-0.361,0.393-0.606
				C193.685,131.419,189.836,123.56,184.258,117.834z"/>
		</g>
		<g>
			<path style="fill:#2A2938;" d="M62.611,150.616c0.433-5.919,1.787-11.874,4.697-17.09c3.018-5.411,7.605-9.596,12.96-12.641
				c5.629-3.201,11.824-5.182,18.023-6.947c6.729-1.915,13.594-3.606,19.996-6.484c0.842-0.378,1.672-0.78,2.493-1.202
				c0.148-0.076,0.44,0.293,0.316,0.364c-6.032,3.416-12.659,5.452-19.283,7.372c-6.232,1.807-12.489,3.636-18.307,6.563
				c-5.534,2.784-10.582,6.648-13.986,11.89c-3.217,4.955-4.907,10.737-5.571,16.57c-0.69,6.059-0.246,12.095,0.425,18.132
				c0.082,0.741,0.171,1.482,0.258,2.223c0.079,0.674-0.791,0.055-0.866-0.32C62.56,163.023,62.164,156.744,62.611,150.616z"/>
			<path style="fill:#2A2938;" d="M57.861,141.464c1.169-5.513,3.513-10.725,6.9-15.231c3.15-4.189,7.151-7.735,11.682-10.369
				c2.267-1.318,4.665-2.415,7.151-3.249c2.739-0.919,5.573-1.513,8.412-2.024c5.714-1.027,11.575-1.745,16.996-3.935
				c0.706-0.285,1.398-0.599,2.079-0.94c0.144-0.072,0.433,0.285,0.31,0.357c-4.962,2.884-10.584,3.863-16.162,4.84
				c-5.516,0.966-10.981,2.075-16.01,4.638c-4.632,2.361-8.792,5.664-12.157,9.627c-3.595,4.235-6.215,9.237-7.686,14.593
				c-1.539,5.603-1.774,11.475-0.853,17.204c0.113,0.704,0.248,1.404,0.401,2.101c0.049,0.223-0.099,0.314-0.299,0.26
				c-0.229-0.062-0.429-0.339-0.485-0.558C56.692,153.12,56.651,147.17,57.861,141.464z"/>
			<path style="fill:#2A2938;" d="M64.326,117.834c6.156-6.32,14.498-9.908,23.028-11.703c5.156-1.085,10.416-1.557,15.676-1.709
				c0.142-0.004,0.4,0.363,0.25,0.375c-8.987,0.723-18.109,2.025-26.389,5.775c-7.547,3.418-14.126,9.104-17.745,16.65
				c-1.909,3.982-2.884,8.408-2.643,12.829c0.014,0.247-0.279,0.186-0.412,0.11c-0.216-0.124-0.369-0.361-0.393-0.606
				C54.899,131.419,58.748,123.56,64.326,117.834z"/>
		</g>
	</g>
</g>
</svg>
