<?xml version="1.0" encoding="utf-8"?>
<!-- Generator: Adobe Illustrator 27.5.0, SVG Export Plug-In . SVG Version: 6.00 Build 0)  -->
<svg version="1.1" id="Layer_1" xmlns="http://www.w3.org/2000/svg" xmlns:xlink="http://www.w3.org/1999/xlink" x="0px" y="0px"
	 viewBox="0 0 295.076 400" style="enable-background:new 0 0 295.076 400;" xml:space="preserve">
<g>
	<g>
		<g>
			<g>
				<path style="fill:#D3926E;" d="M273.673,390c1.51-38.607-8.2-66.155-8.2-66.155l-38.337,1.134V390H273.673z"/>
				<path style="opacity:0.6;fill:#D3926E;" d="M228.515,390c1.293-1.841,2.827-3.541,4.316-5.12
					c3.61-3.828,8.057-6.762,12.764-9.066c4.803-2.35,9.899-4.087,15.08-5.388c4.173-1.048,8.43-1.839,12.717-2.262
					c-1.725-26.745-7.918-44.319-7.918-44.319l-38.337,1.134V390H228.515z"/>
				<path style="fill:#821522;" d="M209.944,259.888c0,0,27.461-0.109,47.088,16.145c19.627,16.254,16.56,68.388,30.667,77.282
					c0,0-28.178,19.221-63.159,21.582C224.54,374.897,208.224,354.873,209.944,259.888z"/>
				<path style="opacity:0.3;fill:#821522;" d="M236.585,364.288c-0.305-6.614-1.261-13.199-3.22-19.534
					c-1.637-5.293-3.753-10.44-6.355-15.332c-2.609-4.905-5.71-9.558-9.321-13.783c-2.115-2.474-4.409-4.794-6.864-6.929
					c3.323,53.432,13.714,66.187,13.714,66.187c4.154-0.28,8.21-0.801,12.137-1.496
					C236.734,370.363,236.726,367.324,236.585,364.288z"/>
			</g>
			<g>
				<path style="fill:#D3926E;" d="M67.939,390v-65.02l-38.337-1.134c0,0-9.709,27.548-8.2,66.155H67.939z"/>
				<path style="opacity:0.6;fill:#D3926E;" d="M49.481,375.814c4.708,2.304,9.154,5.238,12.764,9.066
					c1.489,1.579,3.023,3.278,4.316,5.12h1.378v-65.02l-38.337-1.134c0,0-6.193,17.574-7.918,44.319
					c4.287,0.423,8.544,1.214,12.717,2.262C39.582,371.727,44.678,373.464,49.481,375.814z"/>
				<path style="fill:#821522;" d="M85.132,259.888c0,0-27.461-0.109-47.088,16.145s-16.56,68.388-30.667,77.282
					c0,0,28.178,19.221,63.159,21.582C70.536,374.897,86.852,354.873,85.132,259.888z"/>
				<path style="opacity:0.3;fill:#821522;" d="M58.49,364.288c0.306-6.614,1.261-13.199,3.22-19.534
					c1.637-5.293,3.753-10.44,6.355-15.332c2.609-4.905,5.71-9.558,9.321-13.783c2.115-2.474,4.409-4.794,6.864-6.929
					c-3.323,53.432-13.714,66.187-13.714,66.187c-4.154-0.28-8.211-0.801-12.137-1.496C58.341,370.363,58.35,367.324,58.49,364.288z
					"/>
			</g>
			<g>
				<path style="fill:#821522;" d="M227.083,390c12.385-19.362-17.139-130.112-17.139-130.112H84.644
					c0,0-29.524,110.75-17.139,130.112H227.083z"/>
			</g>
			<g style="opacity:0.3;">
				<path style="fill:#821522;" d="M226.5,348.228c-2.297,4.32-5.275,8.281-8.673,11.794c-6.909,7.143-15.78,12.008-24.967,15.606
					c-9.367,3.669-19.266,5.79-29.254,6.846c-10.215,1.08-20.514,1.073-30.766,0.63c-9.633-0.416-19.334-0.983-28.73-3.296
					c-9.078-2.235-17.585-6.175-25.207-11.587c-6.111-4.339-10.476-10.38-12.86-17.405c-2.183,17.916-2.44,33.084,1.461,39.183
					h159.578c4.284-6.698,3.553-24.333,0.764-44.535C227.426,346.401,226.981,347.324,226.5,348.228z"/>
			</g>
			<g>
				<g>
					<path style="fill:#D3926E;" d="M173.839,201.921c0,0-9.937,60.617,36.105,57.967c0,0-6.294,52.336-58.961,52.336h-7.606
						c-52.667,0-58.961-52.336-58.961-52.336c46.042,2.65,36.105-57.967,36.105-57.967H173.839z"/>
				</g>
				<path style="opacity:0.6;fill:#D3926E;" d="M173.839,201.921h-53.317c0,0,1.787,10.913,0.33,23.274
					c10.517,7.505,21.163,12.585,25.729,12.585h0.035c4.722,0,15.946-5.432,26.806-13.362
					C172.127,212.38,173.839,201.921,173.839,201.921z"/>
			</g>
		</g>
		<g>
			<path style="fill:#3A3F4F;" d="M99.345,184.884c0,0-23.022-0.531-16.115,31.877c0,0-4.073-5.844-3.719-14.344
				c0,0-4.073,19.834,11.157,30.283c0,0-25.324,10.98-4.959,35.773c0,0-1.594,1.771-0.708,4.25c0,0-10.094,0.177-10.803,13.813
				c-0.708,13.636,6.375,15.938,6.375,15.938s-1.948,1.24-2.125,3.011c0,0-10.448,0.885-10.094,12.751
				c0.354,11.865,8.678,12.219,8.678,12.219s-1.417,1.417-1.24,2.833c0,0-9.789,1.502-8.084,9.344
				c1.705,7.841,9.802,8.097,9.802,8.097s-14.831,11.848-7.671,21.479c0,0-1.193-5.114,1.364-8.864c0,0-2.387,16.791,4.603,21.905
				c0,0-3.324-8.438-2.557-13.297c0,0,2.557,15.513,5.711,17.558c0,0,7.415-6.307,7.756-16.962c0,0,0.938,7.586-2.983,12.956
				c0,0,8.95-3.921,9.12-16.365c0.17-12.444-6.222-18.922-6.222-18.922s10.313-3.58,14.916-12.87
				c4.603-9.29-1.364-19.263-5.37-20.03c0,0,14.916-4.091,11.251-20.03c0,0,2.813,5.455,0.341,11.592c0,0,4.176-3.58,2.898-12.444
				c-1.279-8.864-8.012-10.313-8.012-10.313s8.438-0.085,14.319-11.507c5.881-11.421-5.625-21.82-5.625-21.82
				s8.353-5.966,10.91-15.683c2.557-9.717-2.046-18.837-4.517-20.541c0,0,15.342-8.182,2.557-25.911
				C107.512,172.93,99.345,184.884,99.345,184.884z"/>
			<path style="opacity:0.5;fill:#3A3F4F;" d="M117.74,216.569c0,0,15.342-8.182,2.557-25.911
				c-12.785-17.729-20.952-5.775-20.952-5.775s-8.907-0.203-13.979,7.442c1.309,0.262,2.606,0.587,3.881,0.98
				c3.406,1.05,6.677,2.581,9.6,4.627c2.91,2.037,5.456,4.572,7.455,7.511c2.078,3.055,3.585,6.55,4.38,10.159
				c0.697,3.169,0.867,6.51,0.519,9.735c-0.323,3.005-1.113,6.321-3.29,8.555c-2.189,2.246-5.264,2.393-8.108,1.584
				c1.887,2.776,3.722,5.613,5.084,8.688c1.228,2.772,2.03,5.72,2.133,8.761c0.097,2.874-0.344,5.915-1.437,8.587
				c-1.431,3.499-4.409,7.215-8.203,7.562c1.19,0.386,2.375,0.786,3.523,1.302c1.487,0.668,3.687,1.715,3.82,3.586
				c0.111,1.563-0.926,2.576-2.37,2.94c-1.715,0.432-3.581,0.223-5.306-0.029c-1.259-0.184-2.496-0.467-3.742-0.71
				c1.191,3.411,2.237,6.852,2.49,10.479c0.315,4.507-0.059,9.932-3.685,13.137c-2.162,1.911-5.152,2.675-7.983,2.716
				c-1.454,0.021-2.896-0.138-4.325-0.394c0.468,0.272,0.77,0.372,0.77,0.372s-0.111,0.071-0.279,0.2
				c0.732,0.242,1.458,0.499,2.202,0.705c1.593,0.441,3.208,0.801,4.807,1.215c0.942,0.244,2.254,0.62,2.593,1.664
				c0.33,1.017-0.38,1.859-1.281,2.196c-1.051,0.392-2.266,0.37-3.369,0.313c-0.879-0.046-1.749-0.157-2.621-0.267
				c0.104,1.086,1.09,1.92,1.904,2.549c0.976,0.754,2.049,1.381,2.946,2.235c2.061,1.96,3.764,4.413,4.115,7.299
				c0.258,2.12-0.178,4.552-1.857,6.016c-1.428,1.245-3.381,1.629-5.218,1.757c-1.764,0.123-3.529,0.005-5.293-0.072
				c1.563,1.383,3.625,1.962,5.679,2.241c2.074,0.282,4.174,0.287,6.252,0.536c1.041,0.125,2.088,0.288,3.045,0.738
				c0.537,0.253,1.201,0.722,1.035,1.408c-0.156,0.643-0.88,1.061-1.42,1.342c-0.818,0.426-1.704,0.722-2.593,0.957
				c-2.406,0.636-4.857,1-7.324,0.667c1.254,1.539,2.347,3.654,1.184,5.505c-1.125,1.79-3.554,2.329-5.506,2.509
				c-2.254,0.207-4.641,0.024-6.814-0.618c-2.043-0.603-4.022-1.799-4.563-4.002c-0.101-0.411-0.15-0.841-0.152-1.275
				c-0.523,1.17-0.714,2.598-0.335,4.341c1.387,6.382,7.008,7.739,9.053,8.023c1.047-0.309,2.148-0.474,3.232-0.414
				c1.326,0.074,2.692,0.251,3.761,1.106c1.008,0.807,1.689,2.068,2.185,3.239c0.567,1.339,0.928,2.76,1.126,4.199
				c0.369,2.691,0.269,5.839-1.323,8.156c-0.104,0.151-0.285,0.173-0.424,0.055c-0.437-0.37-0.7-0.883-1.02-1.351
				c-0.205,1.788-0.335,3.584-0.482,5.378c-0.146,1.784-0.318,3.569-0.611,5.336c-0.272,1.639-0.644,3.264-1.06,4.872
				c-0.67,2.586-1.494,5.135-2.489,7.616c1.854-1.877,6.782-7.658,7.058-16.297c0,0,0.938,7.586-2.983,12.956
				c0,0,8.95-3.921,9.12-16.365c0.17-12.444-6.222-18.922-6.222-18.922s10.313-3.58,14.916-12.87
				c4.603-9.291-1.364-19.263-5.37-20.03c0,0,14.916-4.091,11.251-20.03c0,0,2.813,5.455,0.341,11.592c0,0,4.176-3.58,2.898-12.444
				c-1.279-8.864-8.012-10.313-8.012-10.313s8.438-0.085,14.319-11.507c5.881-11.421-5.625-21.82-5.625-21.82
				s8.353-5.966,10.91-15.683C124.814,227.394,120.212,218.274,117.74,216.569z"/>
		</g>
	</g>
	<g>
		<g>
			<path style="fill:#3A3F4F;" d="M225.059,97.389c0,0,9.915,20.362,2.289,34.895c-7.626,14.534-0.432,66.747-65.177,59.553V58.867
				L225.059,97.389z"/>
			<path style="opacity:0.5;fill:#3A3F4F;" d="M225.059,97.389c0,0,9.915,20.362,2.289,34.895
				c-7.626,14.534-0.432,66.747-65.177,59.553V58.867L225.059,97.389z"/>
		</g>
		<g>
			<path style="fill:#3A3F4F;" d="M69.797,97.389c0,0-9.915,20.362-2.289,34.895c7.626,14.534,0.432,66.747,65.177,59.553V58.867
				L69.797,97.389z"/>
			<path style="opacity:0.5;fill:#3A3F4F;" d="M69.797,97.389c0,0-9.915,20.362-2.289,34.895
				c7.626,14.534,0.432,66.747,65.177,59.553V58.867L69.797,97.389z"/>
		</g>
		<path style="fill:#D3926E;" d="M213.732,79.401c0,0-7.896,86.869-18.612,104.872c-10.716,18.003-40.044,35.434-48.504,35.434
			h-0.035c-8.46,0-37.788-17.431-48.504-35.434c-8.792-14.77-15.686-75.896-17.878-97.371c-1.21-11.854,1.546-23.841,8.121-33.722
			c8.726-13.111,26.047-26.221,60.431-26.221C217.519,26.958,213.732,79.401,213.732,79.401z"/>
		<radialGradient id="SVGID_1_" cx="116.4974" cy="164.0607" r="24.7087" gradientUnits="userSpaceOnUse">
			<stop  offset="1.799800e-04" style="stop-color:#DF7469"/>
			<stop  offset="1" style="stop-color:#FFFFFF"/>
		</radialGradient>
		<circle style="opacity:0.3;fill:url(#SVGID_1_);" cx="116.497" cy="164.061" r="24.709"/>
		
			<radialGradient id="SVGID_00000131343277276748011900000014672935880644093868_" cx="176.4818" cy="164.0607" r="24.7087" gradientUnits="userSpaceOnUse">
			<stop  offset="1.799800e-04" style="stop-color:#DF7469"/>
			<stop  offset="1" style="stop-color:#FFFFFF"/>
		</radialGradient>
		
			<circle style="opacity:0.3;fill:url(#SVGID_00000131343277276748011900000014672935880644093868_);" cx="176.482" cy="164.061" r="24.709"/>
		<g>
			<g>
				<g>
					<g>
						<path style="fill:#FFFFFF;" d="M100.891,143.637l-1.178-2.751c0,0-0.314-4.817,2.35-8.974
							c2.665-4.157,7.994-7.248,15.029-5.489c7.035,1.759,11.997,7.975,10.875,15.286c-1.122,7.311-2.418,7.888-2.418,7.888
							s-8.67,3.58-16.611,0.276S100.891,143.637,100.891,143.637z"/>
						<path style="fill:#844E3D;" d="M99.713,140.887c0,0,5.905,13.361,25.836,8.71c0,0-8.278,4.43-18.011,0.59
							C99.492,147.013,99.713,140.887,99.713,140.887z"/>
						<path style="fill:#844E3D;" d="M100.862,129.045c2.85-7.517,17.123-8.472,24.123-2.684c0.332,0.286,0.715,0.603,1.009,0.91
							c0.411,0.424,0.807,0.862,1.055,1.358c0.018,0.036-0.006,0.075-0.054,0.086c-0.048,0.011-0.1-0.008-0.119-0.043
							c-0.489-0.802-1.31-1.501-2.13-2.143c-1.107-0.804-2.343-1.52-3.692-2.073c-2.849-1.185-6.14-1.622-9.273-1.358
							c-2.128,0.193-4.237,0.644-5.997,1.514c-2.189,1.035-3.908,2.629-4.741,4.471c-0.011,0.038-0.068,0.061-0.119,0.046
							C100.877,129.117,100.85,129.079,100.862,129.045L100.862,129.045z"/>
						<g>
							<circle style="fill:#726658;" cx="116.916" cy="137.842" r="10.207"/>
							<path style="fill:#241F20;" d="M109.528,137.842c0,4.081,3.308,7.388,7.388,7.388c4.081,0,7.389-3.308,7.389-7.388
								c0-4.081-3.308-7.388-7.389-7.388C112.836,130.454,109.528,133.762,109.528,137.842z"/>
							<path style="fill:#FFFFFF;" d="M119.126,135.76c0,1.696,1.375,3.07,3.071,3.07c1.696,0,3.071-1.375,3.071-3.07
								c0-1.696-1.375-3.071-3.071-3.071C120.501,132.689,119.126,134.064,119.126,135.76z"/>
						</g>
						<path style="fill:#231F20;" d="M127.967,141.709c0,0,3.385-13.19-11.038-16.557c-14.612-3.411-16.872,10.249-17.108,13.166
							c0,0,1.577-9.303,10.643-11.353C119.531,124.916,127.967,131.144,127.967,141.709z"/>
					</g>
					<path style="fill:#3A3F4F;" d="M93.862,117.469c0,0,7.672-4.305,17.477-3.334c13.276,1.315,15.705,6.003,20.555,5.113
						C136.743,118.358,109.507,99.818,93.862,117.469z"/>
				</g>
				<g>
					<g>
						<path style="fill:#FFFFFF;" d="M192.801,143.637l1.178-2.751c0,0,0.314-4.817-2.35-8.974
							c-2.665-4.157-7.994-7.248-15.029-5.489s-11.996,7.975-10.875,15.286c1.122,7.311,2.418,7.888,2.418,7.888
							s8.67,3.58,16.611,0.276C192.694,146.568,192.801,143.637,192.801,143.637z"/>
						<path style="fill:#844E3D;" d="M193.979,140.887c0,0-5.905,13.361-25.836,8.71c0,0,8.278,4.43,18.011,0.59
							C194.2,147.013,193.979,140.887,193.979,140.887z"/>
						<path style="fill:#844E3D;" d="M192.829,129.045c-2.85-7.517-17.124-8.472-24.123-2.684c-0.332,0.286-0.715,0.603-1.009,0.91
							c-0.411,0.424-0.807,0.862-1.055,1.358c-0.018,0.036,0.006,0.075,0.054,0.086c0.048,0.011,0.1-0.008,0.119-0.043
							c0.489-0.802,1.31-1.501,2.129-2.143c1.108-0.804,2.343-1.52,3.692-2.073c2.849-1.185,6.14-1.622,9.273-1.358
							c2.128,0.193,4.237,0.644,5.997,1.514c2.189,1.035,3.908,2.629,4.741,4.471c0.011,0.038,0.068,0.061,0.119,0.046
							C192.815,129.117,192.841,129.079,192.829,129.045L192.829,129.045z"/>
						<g>
							<circle style="fill:#726658;" cx="176.775" cy="137.842" r="10.207"/>
							<path style="fill:#241F20;" d="M184.164,137.842c0,4.081-3.308,7.388-7.389,7.388c-4.08,0-7.388-3.308-7.388-7.388
								c0-4.081,3.308-7.388,7.388-7.388C180.856,130.454,184.164,133.762,184.164,137.842z"/>
							<path style="fill:#FFFFFF;" d="M174.566,135.76c0,1.696-1.375,3.07-3.071,3.07s-3.07-1.375-3.07-3.07
								c0-1.696,1.375-3.071,3.07-3.071S174.566,134.064,174.566,135.76z"/>
						</g>
						<path style="fill:#231F20;" d="M165.725,141.709c0,0-3.385-13.19,11.038-16.557c14.612-3.411,16.872,10.249,17.108,13.166
							c0,0-1.577-9.303-10.644-11.353C174.161,124.916,165.725,131.144,165.725,141.709z"/>
					</g>
					<path style="fill:#3A3F4F;" d="M199.83,117.469c0,0-7.672-4.305-17.477-3.334c-13.276,1.315-15.705,6.003-20.555,5.113
						C156.949,118.358,184.184,99.818,199.83,117.469z"/>
				</g>
			</g>
			<g>
				<path style="opacity:0.5;fill:#D3926E;" d="M146.797,166.809c0.139,0,0.277-0.031,0.405-0.086
					c2.185-0.941,4.222-0.747,6.208-1.061c2.044-0.323,1.385-4.481,1.385-4.481h0.035c0,0,1.97,5.049-0.369,7.696
					c-2.34,2.647-7.601,1.785-7.601,1.785h-0.091c0,0-5.261,0.862-7.601-1.785c-2.34-2.648-0.369-7.696-0.369-7.696
					s-0.658,4.158,1.385,4.481c1.985,0.313,4.022,0.119,6.208,1.061C146.52,166.778,146.658,166.809,146.797,166.809
					L146.797,166.809z"/>
				<g>
					<path style="fill:#754C29;" d="M144.08,169.27c-0.047,0.006-0.243-0.199-0.281-0.227c-0.264-0.204-0.54-0.393-0.823-0.569
						c-1.095-0.678-2.426-1.232-3.739-1.035c0.071-0.011,0.441,0.381,0.503,0.428c0.318,0.243,0.647,0.471,0.998,0.664
						C141.743,169.084,142.929,169.42,144.08,169.27z"/>
					<path style="fill:#754C29;" d="M149.549,169.27c0.047,0.006,0.244-0.199,0.281-0.227c0.264-0.204,0.54-0.393,0.823-0.569
						c1.095-0.678,2.426-1.232,3.739-1.035c-0.071-0.011-0.441,0.381-0.503,0.428c-0.317,0.243-0.647,0.471-0.998,0.664
						C151.887,169.084,150.7,169.42,149.549,169.27z"/>
				</g>
				<g>
					<path style="fill:#754C29;" d="M154.83,161.181c2.854,7.034-0.708,10.838-7.992,9.617c-1.155,0.139-2.793,0.299-4.133,0.083
						c-5.308-0.839-5.603-5.483-3.906-9.699c-0.92,2.93-1.289,7.263,2.121,8.653c1.822,0.715,3.883,0.936,5.827,0.694
						c1.989,0.215,4.079,0.004,5.932-0.76C156.055,168.381,155.684,164.107,154.83,161.181L154.83,161.181z"/>
					<path style="fill:#754C29;" d="M154.83,161.181c2.854,7.034-0.708,10.838-7.992,9.617c-1.155,0.139-2.793,0.299-4.133,0.083
						c-5.308-0.839-5.603-5.483-3.906-9.699c-0.92,2.93-1.289,7.263,2.121,8.653c1.822,0.715,3.883,0.936,5.827,0.694
						c1.989,0.215,4.079,0.004,5.932-0.76C156.055,168.381,155.684,164.107,154.83,161.181L154.83,161.181z"/>
				</g>
			</g>
			<g>
				<path style="fill:#B7534E;" d="M146.286,198.946c-11.332,0-17.091-13.734-17.091-13.734c1.447,1.398,3.316,2.398,5.379,2.132
					c2.091-0.269,4.015-1.569,5.742-2.695c3.238-2.111,6.475,1.267,6.475,1.267h0.104c0,0,3.238-3.378,6.475-1.267
					c1.727,1.126,3.651,2.426,5.742,2.695c2.063,0.266,3.932-0.734,5.379-2.132c0,0-5.759,13.734-17.091,13.734H146.286z"/>
				<path style="opacity:0.7;fill:#9B8579;" d="M129.361,185.042c8.31,6.79,19.151,8.606,28.866,3.725
					c2.09-0.984,4.229-2.391,6.116-3.74c0.232-0.186,0.544,0.173,0.297,0.372c-1.25,1.036-2.537,2.033-3.909,2.905
					c-7.002,4.574-15.761,5.683-23.514,2.373c-3.02-1.271-5.829-3.012-8.187-5.294C128.83,185.169,129.112,184.824,129.361,185.042
					L129.361,185.042z"/>
			</g>
		</g>
		<g>
			<g>
				<path style="fill:#D3926E;" d="M88.619,150.529c-1.59-4.342-3.435-8.613-6.534-12.115c-5.685-6.423-16.159-3.401-19.148,4.184
					c-2.361,5.992,0.184,12.895,3.163,18.196c2.742,4.879,6.346,9.854,11.751,12.066c4.505,1.844,12.738,2.474,14.53-3.441
					c1.482-4.893-1.094-11.341-2.706-15.926C89.329,152.507,88.981,151.516,88.619,150.529z"/>
				<path style="fill:#D3926E;" d="M81.58,151.535c0,0-3.953-2.093-4.185,2.713c-0.233,4.805,4.03,7.518,4.03,7.518
					s-11.781,2.015-12.943-10.308C67.319,139.134,79.255,140.219,81.58,151.535z"/>
			</g>
			<g>
				<path style="fill:#D3926E;" d="M205.072,150.529c1.59-4.342,3.435-8.613,6.534-12.115c5.685-6.423,16.158-3.401,19.148,4.184
					c2.361,5.992-0.184,12.895-3.163,18.196c-2.742,4.879-6.345,9.854-11.751,12.066c-4.505,1.844-12.738,2.474-14.53-3.441
					c-1.482-4.893,1.094-11.341,2.706-15.926C204.362,152.507,204.711,151.516,205.072,150.529z"/>
				<path style="fill:#D3926E;" d="M212.112,151.535c0,0,3.953-2.093,4.185,2.713c0.233,4.805-4.03,7.518-4.03,7.518
					s11.781,2.015,12.943-10.308C226.373,139.134,214.437,140.219,212.112,151.535z"/>
			</g>
		</g>
		<path style="fill:#3A3F4F;" d="M88.921,102.783c0,0,4.522,41.11-5.55,52.416c-10.072,11.305-13.566,28.161-3.906,44.399
			c0,0-14.183-15.005-12.539-32.477c1.645-17.472,14.594-22.2,15.827-38.233c1.233-16.033-1.85-26.927-1.85-26.927L88.921,102.783z"
			/>
		<g>
			<path style="fill:#3A3F4F;" d="M205.323,102.783c0,0-4.522,41.11,5.55,52.416c10.072,11.305,13.566,28.161,3.906,44.399
				c0,0,14.183-15.005,12.539-32.477c-1.644-17.472-14.594-22.2-15.827-38.233c-1.233-16.033,1.85-26.927,1.85-26.927
				L205.323,102.783z"/>
			<g>
				<path style="fill:#3A3F4F;" d="M147.122,54.385c0,0-3.238,5.714,3.047,7.999c6.285,2.286,14.475-9.142,26.284,23.427
					c11.809,32.569,32.569,25.331,32.569,25.331s-15.808-2.286-23.617-20.379c0,0,9.142,11.809,25.331,19.237
					c16.189,7.428,19.046,17.713,15.999,22.284c0,0,14.285-12.951,12.761-36.188c-1.524-23.236-14.285-26.093-14.285-26.093
					s6.857-14.285-3.238-35.045c-10.094-20.76-46.092-35.616-75.232-15.237L147.122,54.385z"/>
				<path style="opacity:0.5;fill:#3A3F4F;" d="M154.362,60.656c2.833-1.528,5.568-3.24,8.771-3.871
					c6.557-1.292,13.006,1.232,18.242,5.057c5.222,3.815,9.585,8.698,13.73,13.624c2.074,2.464,4.098,4.969,6.166,7.438
					c1.931,2.305,3.892,4.572,6.146,6.571c4.274,3.791,9.369,6.638,14.969,7.883c2.777,0.617,5.759,0.961,8.6,0.68
					c2.039-0.202,4.061-0.819,5.723-2.046c1.057-0.78,1.887-1.749,2.522-2.83c0.108,0.941,0.197,1.917,0.264,2.934
					c1.524,23.236-12.761,36.188-12.761,36.188c3.047-4.571,0.19-14.856-15.999-22.284c-16.189-7.428-25.332-19.237-25.332-19.237
					c7.809,18.094,23.617,20.379,23.617,20.379s-20.76,7.238-32.569-25.331c-11.717-32.317-19.871-21.318-26.137-23.379
					C151.701,61.973,153.043,61.367,154.362,60.656z"/>
			</g>
		</g>
		<g>
			<path style="fill:#3A3F4F;" d="M147.122,54.385c0,0,3.238,5.714-3.047,7.999c-6.285,2.286-14.475-9.142-26.284,23.427
				c-11.809,32.569-32.569,25.331-32.569,25.331s15.808-2.286,23.617-20.379c0,0-9.142,11.809-25.331,19.237
				c-16.189,7.428-19.046,17.713-15.999,22.284c0,0-14.285-12.951-12.761-36.188c1.524-23.236,14.285-26.093,14.285-26.093
				s-6.857-14.285,3.238-35.045c10.095-20.76,46.092-35.616,75.233-15.237L147.122,54.385z"/>
			<path style="opacity:0.5;fill:#3A3F4F;" d="M139.882,60.656c-2.833-1.528-5.568-3.24-8.771-3.871
				c-6.557-1.292-13.006,1.232-18.242,5.057c-5.222,3.815-9.585,8.698-13.73,13.624c-2.074,2.464-4.098,4.969-6.166,7.438
				c-1.931,2.305-3.892,4.572-6.146,6.571c-4.274,3.791-9.369,6.638-14.969,7.883c-2.777,0.617-5.759,0.961-8.6,0.68
				c-2.039-0.202-4.061-0.819-5.723-2.046c-1.057-0.78-1.887-1.749-2.522-2.83c-0.108,0.941-0.197,1.917-0.264,2.934
				c-1.524,23.236,12.761,36.188,12.761,36.188c-3.047-4.571-0.191-14.856,15.999-22.284c16.189-7.428,25.332-19.237,25.332-19.237
				c-7.809,18.094-23.617,20.379-23.617,20.379s20.76,7.238,32.569-25.331c11.717-32.317,19.871-21.318,26.137-23.379
				C142.542,61.973,141.2,61.367,139.882,60.656z"/>
		</g>
	</g>
</g>
</svg>
